solid stl
  facet normal 0 0 1
    outer loop
      vertex -0.053953 -0.0538548 0
      vertex -0.06 -0.0525 0
      vertex -0.06 -0.06 0
    endloop
  endfacet
  facet normal 0 0 1
    outer loop
      vertex 0.06 0.0525 0
      vertex 0.06 0.06 0
      vertex 0.0525 0.06 0
    endloop
  endfacet
  facet normal 0 0 1
    outer loop
      vertex 0.0525 0.06 0
      vertex 0.0520524 0.0521154 0
      vertex 0.06 0.0525 0
    endloop
  endfacet
  facet normal 0 0 1
    outer loop
      vertex -0.06 0.06 0
      vertex -0.06 0.0525 0
      vertex -0.0514033 0.0528162 0
    endloop
  endfacet
  facet normal 0 0 1
    outer loop
      vertex -0.0140069 0.0133785 0
      vertex -0.0212342 0.0153755 0
      vertex -0.0201673 0.00730824 0
    endloop
  endfacet
  facet normal 0 0 1
    outer loop
      vertex 0.0540542 -0.0537891 0
      vertex 0.0525 -0.06 0
      vertex 0.06 -0.06 0
    endloop
  endfacet
  facet normal 0 0 1
    outer loop
      vertex -0.0525 -0.06 0
      vertex -0.053953 -0.0538548 0
      vertex -0.06 -0.06 0
    endloop
  endfacet
  facet normal -0 0 1
    outer loop
      vertex 0.06 -0.0525 0
      vertex 0.0540542 -0.0537891 0
      vertex 0.06 -0.06 0
    endloop
  endfacet
  facet normal -0 0 1
    outer loop
      vertex -0.0075 0.06 0
      vertex -0.011269 0.0522134 0
      vertex -0.00347813 0.0516543 0
    endloop
  endfacet
  facet normal 0 0 1
    outer loop
      vertex -0.0283075 0.0166895 0
      vertex -0.0353934 0.018655 0
      vertex -0.0342721 0.0116247 0
    endloop
  endfacet
  facet normal 0 0 1
    outer loop
      vertex 0 0.06 0
      vertex -0.00347813 0.0516543 0
      vertex 0.00433191 0.0518993 0
    endloop
  endfacet
  facet normal 0 0 1
    outer loop
      vertex 0.0103612 -0.00368648 0
      vertex 0.0102895 0.00497348 0
      vertex 0.00295011 0.000616051 0
    endloop
  endfacet
  facet normal 0 -0 1
    outer loop
      vertex -0.0517491 0.0209617 0
      vertex -0.0479651 0.0142334 0
      vertex -0.0427082 0.0214505 0
    endloop
  endfacet
  facet normal -0 0 1
    outer loop
      vertex 0.0544498 0.00781284 0
      vertex 0.0530521 0.000179679 0
      vertex 0.06 0 0
    endloop
  endfacet
  facet normal 0 -0 1
    outer loop
      vertex 0 0.06 0
      vertex 0.00433191 0.0518993 0
      vertex 0.0075 0.06 0
    endloop
  endfacet
  facet normal 0 -0 1
    outer loop
      vertex -0.0427082 0.0214505 0
      vertex -0.0411308 0.0134359 0
      vertex -0.0353934 0.018655 0
    endloop
  endfacet
  facet normal 0 0 1
    outer loop
      vertex -0.00347813 0.0516543 0
      vertex 0 0.06 0
      vertex -0.0075 0.06 0
    endloop
  endfacet
  facet normal 0 0 1
    outer loop
      vertex -0.0538981 0.00630958 0
      vertex -0.06 0.0075 0
      vertex -0.06 0 0
    endloop
  endfacet
  facet normal 0 0 1
    outer loop
      vertex 0.0157746 -0.0467598 0
      vertex 0.0151289 -0.053423 0
      vertex 0.0228746 -0.0528592 0
    endloop
  endfacet
  facet normal 0 0 1
    outer loop
      vertex -0.0353934 0.018655 0
      vertex -0.0283075 0.0166895 0
      vertex -0.0296108 0.0231381 0
    endloop
  endfacet
  facet normal 0 0 1
    outer loop
      vertex -0.00392487 -0.0130504 0
      vertex 0.00312981 -0.0162438 0
      vertex 0.00309627 -0.00805327 0
    endloop
  endfacet
  facet normal 0 0 1
    outer loop
      vertex 0.00309627 -0.00805327 0
      vertex -0.00417105 -0.0048246 0
      vertex -0.00392487 -0.0130504 0
    endloop
  endfacet
  facet normal -0 0 1
    outer loop
      vertex 0.00295011 0.000616051 0
      vertex -0.00417105 -0.0048246 0
      vertex 0.00309627 -0.00805327 0
    endloop
  endfacet
  facet normal 0 -0 1
    outer loop
      vertex 0.00295011 0.000616051 0
      vertex 0.00309627 -0.00805327 0
      vertex 0.0103612 -0.00368648 0
    endloop
  endfacet
  facet normal 0 0 1
    outer loop
      vertex 0.0100916 -0.0121875 0
      vertex 0.0103612 -0.00368648 0
      vertex 0.00309627 -0.00805327 0
    endloop
  endfacet
  facet normal 0 0 1
    outer loop
      vertex 0.00312981 -0.0162438 0
      vertex 0.0100916 -0.0121875 0
      vertex 0.00309627 -0.00805327 0
    endloop
  endfacet
  facet normal 0 0 1
    outer loop
      vertex -0.0196237 0.0515681 0
      vertex -0.0225 0.06 0
      vertex -0.0267579 0.0537344 0
    endloop
  endfacet
  facet normal 0 0 1
    outer loop
      vertex 0 -0.06 0
      vertex -0.00734036 -0.0543638 0
      vertex -0.0075 -0.06 0
    endloop
  endfacet
  facet normal -0 0 1
    outer loop
      vertex -0.0521985 -0.0164125 0
      vertex -0.06 -0.0225 0
      vertex -0.0538493 -0.0244059 0
    endloop
  endfacet
  facet normal 0 0 1
    outer loop
      vertex 0.06 -0.0075 0
      vertex 0.06 0 0
      vertex 0.0530521 0.000179679 0
    endloop
  endfacet
  facet normal 0 0 1
    outer loop
      vertex 0.0530521 0.000179679 0
      vertex 0.0525212 -0.00761312 0
      vertex 0.06 -0.0075 0
    endloop
  endfacet
  facet normal 0 0 1
    outer loop
      vertex 0.06 0 0
      vertex 0.06 0.0075 0
      vertex 0.0544498 0.00781284 0
    endloop
  endfacet
  facet normal -0 0 1
    outer loop
      vertex -0.0375 0.06 0
      vertex -0.0427628 0.0522493 0
      vertex -0.0344254 0.0512159 0
    endloop
  endfacet
  facet normal -0 0 1
    outer loop
      vertex -0.0344534 -0.00166251 0
      vertex -0.0393887 -0.00707565 0
      vertex -0.0323728 -0.00718061 0
    endloop
  endfacet
  facet normal 0 0 1
    outer loop
      vertex 0.0340339 0.0332178 0
      vertex 0.0283457 0.0380994 0
      vertex 0.0266134 0.0291657 0
    endloop
  endfacet
  facet normal -0 0 1
    outer loop
      vertex 0.0340339 0.0332178 0
      vertex 0.0266134 0.0291657 0
      vertex 0.0344596 0.025077 0
    endloop
  endfacet
  facet normal 0 0 1
    outer loop
      vertex 0.0375 -0.06 0
      vertex 0.0305785 -0.052451 0
      vertex 0.03 -0.06 0
    endloop
  endfacet
  facet normal -0 0 1
    outer loop
      vertex 0.06 0.0375 0
      vertex 0.0495448 0.0367811 0
      vertex 0.0535187 0.0298238 0
    endloop
  endfacet
  facet normal -0 0 1
    outer loop
      vertex 0.0375 0.06 0
      vertex 0.03 0.06 0
      vertex 0.0294293 0.0536303 0
    endloop
  endfacet
  facet normal 0 0 1
    outer loop
      vertex -0.039534 -0.0189169 0
      vertex -0.0442061 -0.0145142 0
      vertex -0.047014 -0.0217932 0
    endloop
  endfacet
  facet normal 0 0 1
    outer loop
      vertex -0.0323728 -0.00718061 0
      vertex -0.025359 -0.00713948 0
      vertex -0.0270412 0.000933462 0
    endloop
  endfacet
  facet normal 0 0 1
    outer loop
      vertex -0.0534324 0.0372985 0
      vertex -0.06 0.0375 0
      vertex -0.06 0.03 0
    endloop
  endfacet
  facet normal 0 0 1
    outer loop
      vertex -0.03 0.06 0
      vertex -0.0344254 0.0512159 0
      vertex -0.0267579 0.0537344 0
    endloop
  endfacet
  facet normal 0 0 1
    outer loop
      vertex -0.047014 -0.0217932 0
      vertex -0.0442061 -0.0145142 0
      vertex -0.0521985 -0.0164125 0
    endloop
  endfacet
  facet normal 0 -0 1
    outer loop
      vertex -0.0361658 -0.0371755 0
      vertex -0.0292776 -0.0403438 0
      vertex -0.0263572 -0.0316257 0
    endloop
  endfacet
  facet normal 0 0 1
    outer loop
      vertex -0.0263572 -0.0316257 0
      vertex -0.0342942 -0.0291782 0
      vertex -0.0361658 -0.0371755 0
    endloop
  endfacet
  facet normal 0 0 1
    outer loop
      vertex -0.0463192 -0.00805309 0
      vertex -0.0521985 -0.0164125 0
      vertex -0.0442061 -0.0145142 0
    endloop
  endfacet
  facet normal -0 0 1
    outer loop
      vertex 0.0209061 0.036412 0
      vertex 0.0178651 0.029191 0
      vertex 0.0266134 0.0291657 0
    endloop
  endfacet
  facet normal 0 0 1
    outer loop
      vertex 0.0383059 -0.0360941 0
      vertex 0.0402479 -0.0292115 0
      vertex 0.031742 -0.0284133 0
    endloop
  endfacet
  facet normal 0 0 1
    outer loop
      vertex 0.030958 -0.036709 0
      vertex 0.0383059 -0.0360941 0
      vertex 0.031742 -0.0284133 0
    endloop
  endfacet
  facet normal 0 -0 1
    outer loop
      vertex -0.0375 -0.06 0
      vertex -0.03 -0.06 0
      vertex -0.0298709 -0.0542524 0
    endloop
  endfacet
  facet normal 0 0 1
    outer loop
      vertex -0.0283075 0.0166895 0
      vertex -0.0225858 0.02426 0
      vertex -0.0296108 0.0231381 0
    endloop
  endfacet
  facet normal -0 0 1
    outer loop
      vertex 0.0305785 -0.052451 0
      vertex 0.0228746 -0.0528592 0
      vertex 0.03 -0.06 0
    endloop
  endfacet
  facet normal 0 0 1
    outer loop
      vertex 0.06 -0.0375 0
      vertex 0.06 -0.03 0
      vertex 0.0541718 -0.0299166 0
    endloop
  endfacet
  facet normal 0 0 1
    outer loop
      vertex -0.0217286 0.033854 0
      vertex -0.0275929 0.0381615 0
      vertex -0.028079 0.0300129 0
    endloop
  endfacet
  facet normal 0 0 1
    outer loop
      vertex 0.0217451 0.0221214 0
      vertex 0.0292069 0.0197979 0
      vertex 0.0266134 0.0291657 0
    endloop
  endfacet
  facet normal 0 -0 1
    outer loop
      vertex -0.03 0.06 0
      vertex -0.0267579 0.0537344 0
      vertex -0.0225 0.06 0
    endloop
  endfacet
  facet normal 0 0 1
    outer loop
      vertex -0.0344254 0.0512159 0
      vertex -0.03 0.06 0
      vertex -0.0375 0.06 0
    endloop
  endfacet
  facet normal 0 -0 1
    outer loop
      vertex -0.0403604 -0.000760697 0
      vertex -0.0344534 -0.00166251 0
      vertex -0.0335838 0.00472203 0
    endloop
  endfacet
  facet normal 0 0 1
    outer loop
      vertex -0.0538493 -0.0244059 0
      vertex -0.06 -0.0225 0
      vertex -0.06 -0.03 0
    endloop
  endfacet
  facet normal 0 0 1
    outer loop
      vertex -0.0183269 -0.00865355 0
      vertex -0.025359 -0.00713948 0
      vertex -0.0251463 -0.0151691 0
    endloop
  endfacet
  facet normal 0 -0 1
    outer loop
      vertex -0.0442061 -0.0145142 0
      vertex -0.039534 -0.0189169 0
      vertex -0.0375916 -0.0124424 0
    endloop
  endfacet
  facet normal 0 0 1
    outer loop
      vertex -0.0402896 0.00623291 0
      vertex -0.0411308 0.0134359 0
      vertex -0.0470254 0.00674658 0
    endloop
  endfacet
  facet normal 0 0 1
    outer loop
      vertex 0.0266134 0.0291657 0
      vertex 0.0178651 0.029191 0
      vertex 0.0217451 0.0221214 0
    endloop
  endfacet
  facet normal 0 0 1
    outer loop
      vertex -0.0323728 -0.00718061 0
      vertex -0.0393887 -0.00707565 0
      vertex -0.0375916 -0.0124424 0
    endloop
  endfacet
  facet normal 0 0 1
    outer loop
      vertex 0.0266134 0.0291657 0
      vertex 0.0283457 0.0380994 0
      vertex 0.0209061 0.036412 0
    endloop
  endfacet
  facet normal 0 0 1
    outer loop
      vertex 0.0344596 0.025077 0
      vertex 0.0396955 0.0293204 0
      vertex 0.0340339 0.0332178 0
    endloop
  endfacet
  facet normal 0 -0 1
    outer loop
      vertex 0.0266134 0.0291657 0
      vertex 0.0292069 0.0197979 0
      vertex 0.0344596 0.025077 0
    endloop
  endfacet
  facet normal 0 0 1
    outer loop
      vertex 0.03 -0.06 0
      vertex 0.0228746 -0.0528592 0
      vertex 0.0225 -0.06 0
    endloop
  endfacet
  facet normal -0 0 1
    outer loop
      vertex -0.0270412 0.000933462 0
      vertex -0.0344534 -0.00166251 0
      vertex -0.0323728 -0.00718061 0
    endloop
  endfacet
  facet normal 0 -0 1
    outer loop
      vertex -0.0161172 0.0295956 0
      vertex -0.0108126 0.0261124 0
      vertex -0.00915674 0.0334466 0
    endloop
  endfacet
  facet normal 0 0 1
    outer loop
      vertex 0.06 0.0225 0
      vertex 0.06 0.03 0
      vertex 0.0535187 0.0298238 0
    endloop
  endfacet
  facet normal -0 0 1
    outer loop
      vertex 0.0535187 0.0298238 0
      vertex 0.0501048 0.022588 0
      vertex 0.06 0.0225 0
    endloop
  endfacet
  facet normal 0 -0 1
    outer loop
      vertex 0.0535187 0.0298238 0
      vertex 0.06 0.03 0
      vertex 0.06 0.0375 0
    endloop
  endfacet
  facet normal 0 0 1
    outer loop
      vertex 0.0225 0.06 0
      vertex 0.0209811 0.0515432 0
      vertex 0.0294293 0.0536303 0
    endloop
  endfacet
  facet normal 0 -0 1
    outer loop
      vertex 0.0294293 0.0536303 0
      vertex 0.0365761 0.0495295 0
      vertex 0.0375 0.06 0
    endloop
  endfacet
  facet normal 0 0 1
    outer loop
      vertex 0.0294293 0.0536303 0
      vertex 0.03 0.06 0
      vertex 0.0225 0.06 0
    endloop
  endfacet
  facet normal 0 0 1
    outer loop
      vertex -0.00915674 0.0334466 0
      vertex -0.0108126 0.0261124 0
      vertex -0.00446893 0.026971 0
    endloop
  endfacet
  facet normal 0 0 1
    outer loop
      vertex -0.0201673 0.00730824 0
      vertex -0.0273285 0.00933496 0
      vertex -0.0270412 0.000933462 0
    endloop
  endfacet
  facet normal 0 0 1
    outer loop
      vertex -0.0192521 -0.000657526 0
      vertex -0.0201673 0.00730824 0
      vertex -0.0270412 0.000933462 0
    endloop
  endfacet
  facet normal 0 -0 1
    outer loop
      vertex -0.0270412 0.000933462 0
      vertex -0.025359 -0.00713948 0
      vertex -0.0192521 -0.000657526 0
    endloop
  endfacet
  facet normal -0 0 1
    outer loop
      vertex -0.0469472 -0.000789427 0
      vertex -0.0537396 -0.000961814 0
      vertex -0.0534145 -0.00857547 0
    endloop
  endfacet
  facet normal 0 0 1
    outer loop
      vertex 0.0102817 -0.0350016 0
      vertex 0.0170716 -0.032584 0
      vertex 0.0101943 -0.0278051 0
    endloop
  endfacet
  facet normal 0 0 1
    outer loop
      vertex -0.06 0.0225 0
      vertex -0.0530628 0.0290922 0
      vertex -0.06 0.03 0
    endloop
  endfacet
  facet normal 0 0 1
    outer loop
      vertex -0.0140069 0.0133785 0
      vertex -0.0157899 0.0211552 0
      vertex -0.0212342 0.0153755 0
    endloop
  endfacet
  facet normal 0 0 1
    outer loop
      vertex -0.06 0.03 0
      vertex -0.0530628 0.0290922 0
      vertex -0.0534324 0.0372985 0
    endloop
  endfacet
  facet normal 0 0 1
    outer loop
      vertex -0.0108126 0.0261124 0
      vertex -0.0161172 0.0295956 0
      vertex -0.0157899 0.0211552 0
    endloop
  endfacet
  facet normal 0 0 1
    outer loop
      vertex -0.0347347 0.0259415 0
      vertex -0.028079 0.0300129 0
      vertex -0.0337358 0.0338226 0
    endloop
  endfacet
  facet normal -0 0 1
    outer loop
      vertex -0.0337358 0.0338226 0
      vertex -0.0395082 0.0293373 0
      vertex -0.0347347 0.0259415 0
    endloop
  endfacet
  facet normal 0 0 1
    outer loop
      vertex -0.028079 0.0300129 0
      vertex -0.0275929 0.0381615 0
      vertex -0.0337358 0.0338226 0
    endloop
  endfacet
  facet normal 0 -0 1
    outer loop
      vertex -0.0330711 -0.0214486 0
      vertex -0.0258737 -0.0232983 0
      vertex -0.0251463 -0.0151691 0
    endloop
  endfacet
  facet normal -0 0 1
    outer loop
      vertex -0.0393887 -0.00707565 0
      vertex -0.0463192 -0.00805309 0
      vertex -0.0442061 -0.0145142 0
    endloop
  endfacet
  facet normal 0 -0 1
    outer loop
      vertex -0.0342721 0.0116247 0
      vertex -0.0335838 0.00472203 0
      vertex -0.0273285 0.00933496 0
    endloop
  endfacet
  facet normal 0 0 1
    outer loop
      vertex -0.0170488 -0.0317958 0
      vertex -0.0181425 -0.0245095 0
      vertex -0.0263572 -0.0316257 0
    endloop
  endfacet
  facet normal 0 0 1
    outer loop
      vertex -0.0222915 -0.0371665 0
      vertex -0.0170488 -0.0317958 0
      vertex -0.0263572 -0.0316257 0
    endloop
  endfacet
  facet normal 0 0 1
    outer loop
      vertex -0.0263572 -0.0316257 0
      vertex -0.0292776 -0.0403438 0
      vertex -0.0222915 -0.0371665 0
    endloop
  endfacet
  facet normal -0 0 1
    outer loop
      vertex -0.0258737 -0.0232983 0
      vertex -0.0342942 -0.0291782 0
      vertex -0.0263572 -0.0316257 0
    endloop
  endfacet
  facet normal 0 0 1
    outer loop
      vertex -0.0181425 -0.0245095 0
      vertex -0.0258737 -0.0232983 0
      vertex -0.0263572 -0.0316257 0
    endloop
  endfacet
  facet normal 0 0 1
    outer loop
      vertex -0.00119416 0.0192042 0
      vertex 0.00643748 0.0202929 0
      vertex 0.00260589 0.0278734 0
    endloop
  endfacet
  facet normal 0 0 1
    outer loop
      vertex -0.00863093 0.019435 0
      vertex -0.00119416 0.0192042 0
      vertex -0.00446893 0.026971 0
    endloop
  endfacet
  facet normal 0 0 1
    outer loop
      vertex -0.0463192 -0.00805309 0
      vertex -0.0393887 -0.00707565 0
      vertex -0.0403604 -0.000760697 0
    endloop
  endfacet
  facet normal 0 0 1
    outer loop
      vertex -0.028079 0.0300129 0
      vertex -0.0296108 0.0231381 0
      vertex -0.0225858 0.02426 0
    endloop
  endfacet
  facet normal 0 0 1
    outer loop
      vertex 0.00260589 0.0278734 0
      vertex -0.00195328 0.0354135 0
      vertex -0.00446893 0.026971 0
    endloop
  endfacet
  facet normal -0 0 1
    outer loop
      vertex 0.00260589 0.0278734 0
      vertex -0.00446893 0.026971 0
      vertex -0.00119416 0.0192042 0
    endloop
  endfacet
  facet normal 0 -0 1
    outer loop
      vertex 0.0239735 -0.0224497 0
      vertex 0.0242062 -0.0304474 0
      vertex 0.031742 -0.0284133 0
    endloop
  endfacet
  facet normal -0 0 1
    outer loop
      vertex 0.0304652 -0.0193965 0
      vertex 0.0239735 -0.0224497 0
      vertex 0.031742 -0.0284133 0
    endloop
  endfacet
  facet normal 0 0 1
    outer loop
      vertex 0.036434 -0.0233665 0
      vertex 0.0304652 -0.0193965 0
      vertex 0.031742 -0.0284133 0
    endloop
  endfacet
  facet normal 0 0 1
    outer loop
      vertex 0.031742 -0.0284133 0
      vertex 0.0402479 -0.0292115 0
      vertex 0.036434 -0.0233665 0
    endloop
  endfacet
  facet normal 0 0 1
    outer loop
      vertex -0.0296108 0.0231381 0
      vertex -0.028079 0.0300129 0
      vertex -0.0347347 0.0259415 0
    endloop
  endfacet
  facet normal -0 0 1
    outer loop
      vertex 0.031742 -0.0284133 0
      vertex 0.0242062 -0.0304474 0
      vertex 0.030958 -0.036709 0
    endloop
  endfacet
  facet normal 0 0 1
    outer loop
      vertex -0.0225 -0.06 0
      vertex -0.0226298 -0.0510652 0
      vertex -0.0298709 -0.0542524 0
    endloop
  endfacet
  facet normal 0 0 1
    outer loop
      vertex -0.0298709 -0.0542524 0
      vertex -0.0378157 -0.0528066 0
      vertex -0.0375 -0.06 0
    endloop
  endfacet
  facet normal 0 0 1
    outer loop
      vertex -0.0298709 -0.0542524 0
      vertex -0.03 -0.06 0
      vertex -0.0225 -0.06 0
    endloop
  endfacet
  facet normal 0 0 1
    outer loop
      vertex -0.0435362 -0.0343125 0
      vertex -0.050875 -0.030811 0
      vertex -0.0518295 -0.039243 0
    endloop
  endfacet
  facet normal 0 0 1
    outer loop
      vertex 8.49882e-05 -0.0437061 0
      vertex 0.00401222 -0.037561 0
      vertex -0.00258483 -0.03592 0
    endloop
  endfacet
  facet normal -0 0 1
    outer loop
      vertex -0.00258483 -0.03592 0
      vertex -0.00835452 -0.0408583 0
      vertex 8.49882e-05 -0.0437061 0
    endloop
  endfacet
  facet normal 0 0 1
    outer loop
      vertex 0.00401222 -0.037561 0
      vertex 0.00355581 -0.0311239 0
      vertex -0.00258483 -0.03592 0
    endloop
  endfacet
  facet normal 0 0 1
    outer loop
      vertex 0.0313784 0.0114382 0
      vertex 0.0240526 0.0141232 0
      vertex 0.0249108 0.00662145 0
    endloop
  endfacet
  facet normal 0 0 1
    outer loop
      vertex 8.49882e-05 -0.0437061 0
      vertex 0.00932158 -0.041862 0
      vertex 0.00401222 -0.037561 0
    endloop
  endfacet
  facet normal -0 0 1
    outer loop
      vertex 0.06 -0.0225 0
      vertex 0.0505814 -0.0226276 0
      vertex 0.0541718 -0.0299166 0
    endloop
  endfacet
  facet normal 0 0 1
    outer loop
      vertex 0.0541718 -0.0299166 0
      vertex 0.0522855 -0.0381968 0
      vertex 0.06 -0.0375 0
    endloop
  endfacet
  facet normal 0 -0 1
    outer loop
      vertex 0.0541718 -0.0299166 0
      vertex 0.06 -0.03 0
      vertex 0.06 -0.0225 0
    endloop
  endfacet
  facet normal 0 0 1
    outer loop
      vertex 0.038748 -0.00164449 0
      vertex 0.0396225 0.00775126 0
      vertex 0.0324917 0.00352707 0
    endloop
  endfacet
  facet normal 0 -0 1
    outer loop
      vertex -0.047014 -0.0217932 0
      vertex -0.041529 -0.0263883 0
      vertex -0.039534 -0.0189169 0
    endloop
  endfacet
  facet normal 0 0 1
    outer loop
      vertex 0.0380128 -0.00960829 0
      vertex 0.038748 -0.00164449 0
      vertex 0.0319741 -0.00446345 0
    endloop
  endfacet
  facet normal 0 0 1
    outer loop
      vertex -0.0283075 0.0166895 0
      vertex -0.0212342 0.0153755 0
      vertex -0.0225858 0.02426 0
    endloop
  endfacet
  facet normal -0 0 1
    outer loop
      vertex 0.0324917 0.00352707 0
      vertex 0.0263661 -0.000121138 0
      vertex 0.0319741 -0.00446345 0
    endloop
  endfacet
  facet normal 0 0 1
    outer loop
      vertex 0.0324917 0.00352707 0
      vertex 0.0319741 -0.00446345 0
      vertex 0.038748 -0.00164449 0
    endloop
  endfacet
  facet normal 0 0 1
    outer loop
      vertex -0.041529 -0.0263883 0
      vertex -0.047014 -0.0217932 0
      vertex -0.050875 -0.030811 0
    endloop
  endfacet
  facet normal 0 0 1
    outer loop
      vertex 0.0102817 -0.0350016 0
      vertex 0.0101943 -0.0278051 0
      vertex 0.00355581 -0.0311239 0
    endloop
  endfacet
  facet normal 0 0 1
    outer loop
      vertex 0.0441613 0.0515247 0
      vertex 0.0431888 0.0433617 0
      vertex 0.0514442 0.0442864 0
    endloop
  endfacet
  facet normal 0 0 1
    outer loop
      vertex 0.0514442 0.0442864 0
      vertex 0.0520524 0.0521154 0
      vertex 0.0441613 0.0515247 0
    endloop
  endfacet
  facet normal 0 0 1
    outer loop
      vertex 0.045 -0.06 0
      vertex 0.0525 -0.06 0
      vertex 0.0463572 -0.0511493 0
    endloop
  endfacet
  facet normal 0 0 1
    outer loop
      vertex 0.06 0.045 0
      vertex 0.06 0.0525 0
      vertex 0.0520524 0.0521154 0
    endloop
  endfacet
  facet normal 0 0 1
    outer loop
      vertex 0.0520524 0.0521154 0
      vertex 0.0525 0.06 0
      vertex 0.045 0.06 0
    endloop
  endfacet
  facet normal -0 0 1
    outer loop
      vertex 0.0102817 -0.0350016 0
      vertex 0.00401222 -0.037561 0
      vertex 0.00932158 -0.041862 0
    endloop
  endfacet
  facet normal 0 -0 1
    outer loop
      vertex -0.050875 -0.030811 0
      vertex -0.0435362 -0.0343125 0
      vertex -0.041529 -0.0263883 0
    endloop
  endfacet
  facet normal 0 0 1
    outer loop
      vertex -0.00743883 0.0428415 0
      vertex -0.00347813 0.0516543 0
      vertex -0.011269 0.0522134 0
    endloop
  endfacet
  facet normal 0 0 1
    outer loop
      vertex -0.0196237 0.0515681 0
      vertex -0.0211462 0.0422143 0
      vertex -0.0147757 0.0454338 0
    endloop
  endfacet
  facet normal 0 -0 1
    outer loop
      vertex 0.00932158 -0.041862 0
      vertex 0.0157746 -0.0467598 0
      vertex 0.0165865 -0.039874 0
    endloop
  endfacet
  facet normal 0 0 1
    outer loop
      vertex -0.0458726 -0.0513173 0
      vertex -0.0446808 -0.0424656 0
      vertex -0.052389 -0.0469508 0
    endloop
  endfacet
  facet normal 0 0 1
    outer loop
      vertex -0.052389 -0.0469508 0
      vertex -0.053953 -0.0538548 0
      vertex -0.0458726 -0.0513173 0
    endloop
  endfacet
  facet normal 0 0 1
    outer loop
      vertex 0.0100182 0.0288124 0
      vertex 0.0132088 0.0365099 0
      vertex 0.00557989 0.0361625 0
    endloop
  endfacet
  facet normal 0 0 1
    outer loop
      vertex 0.000804049 0.0437471 0
      vertex 0.00864014 0.0441467 0
      vertex 0.00433191 0.0518993 0
    endloop
  endfacet
  facet normal 0 0 1
    outer loop
      vertex 0.0527156 -0.0466981 0
      vertex 0.0458471 -0.0423549 0
      vertex 0.0463572 -0.0511493 0
    endloop
  endfacet
  facet normal 0 0 1
    outer loop
      vertex 0.0463572 -0.0511493 0
      vertex 0.0540542 -0.0537891 0
      vertex 0.0527156 -0.0466981 0
    endloop
  endfacet
  facet normal 0 0 1
    outer loop
      vertex -0.0525 -0.06 0
      vertex -0.045 -0.06 0
      vertex -0.0458726 -0.0513173 0
    endloop
  endfacet
  facet normal 0 0 1
    outer loop
      vertex 0.00326571 -0.0239475 0
      vertex 0.00312981 -0.0162438 0
      vertex -0.00374972 -0.0209498 0
    endloop
  endfacet
  facet normal 0 -0 1
    outer loop
      vertex -0.0157899 0.0211552 0
      vertex -0.0140069 0.0133785 0
      vertex -0.00863093 0.019435 0
    endloop
  endfacet
  facet normal 0 0 1
    outer loop
      vertex 0.06 -0.0525 0
      vertex 0.06 -0.045 0
      vertex 0.0527156 -0.0466981 0
    endloop
  endfacet
  facet normal -0 0 1
    outer loop
      vertex 0.0182855 0.000177816 0
      vertex 0.0103612 -0.00368648 0
      vertex 0.0171962 -0.0087603 0
    endloop
  endfacet
  facet normal 0 0 1
    outer loop
      vertex 0.0182855 0.000177816 0
      vertex 0.0175156 0.00885296 0
      vertex 0.0102895 0.00497348 0
    endloop
  endfacet
  facet normal 0 0 1
    outer loop
      vertex -0.011269 0.0522134 0
      vertex -0.0075 0.06 0
      vertex -0.015 0.06 0
    endloop
  endfacet
  facet normal 0 0 1
    outer loop
      vertex -0.0517491 0.0209617 0
      vertex -0.0427082 0.0214505 0
      vertex -0.0460519 0.0286741 0
    endloop
  endfacet
  facet normal 0 0 1
    outer loop
      vertex -0.0402896 0.00623291 0
      vertex -0.0335838 0.00472203 0
      vertex -0.0342721 0.0116247 0
    endloop
  endfacet
  facet normal 0 0 1
    outer loop
      vertex -0.0270412 0.000933462 0
      vertex -0.0335838 0.00472203 0
      vertex -0.0344534 -0.00166251 0
    endloop
  endfacet
  facet normal 0 0 1
    outer loop
      vertex -0.0338393 0.0419501 0
      vertex -0.0406982 0.0442861 0
      vertex -0.0398537 0.0363929 0
    endloop
  endfacet
  facet normal 0 0 1
    outer loop
      vertex -0.0375916 -0.0124424 0
      vertex -0.0318604 -0.0139859 0
      vertex -0.0323728 -0.00718061 0
    endloop
  endfacet
  facet normal 0 0 1
    outer loop
      vertex -0.050875 -0.030811 0
      vertex -0.06 -0.03 0
      vertex -0.06 -0.0375 0
    endloop
  endfacet
  facet normal 0 0 1
    outer loop
      vertex 0.0108925 0.0135067 0
      vertex 0.0102895 0.00497348 0
      vertex 0.0175156 0.00885296 0
    endloop
  endfacet
  facet normal 0 0 1
    outer loop
      vertex -0.0147757 0.0454338 0
      vertex -0.014991 0.037897 0
      vertex -0.00743883 0.0428415 0
    endloop
  endfacet
  facet normal -0 0 1
    outer loop
      vertex 0.0122784 0.0519602 0
      vertex 0.00433191 0.0518993 0
      vertex 0.00864014 0.0441467 0
    endloop
  endfacet
  facet normal 0 0 1
    outer loop
      vertex 0.0525624 0.0153153 0
      vertex 0.0447643 0.0153927 0
      vertex 0.0477625 0.00783822 0
    endloop
  endfacet
  facet normal 0 0 1
    outer loop
      vertex 0.0477625 0.00783822 0
      vertex 0.0544498 0.00781284 0
      vertex 0.0525624 0.0153153 0
    endloop
  endfacet
  facet normal 0 -0 1
    outer loop
      vertex 0.00722441 -0.0545311 0
      vertex 0.0075 -0.06 0
      vertex 0.015 -0.06 0
    endloop
  endfacet
  facet normal 0 0 1
    outer loop
      vertex -0.0161172 0.0295956 0
      vertex -0.0217286 0.033854 0
      vertex -0.0225858 0.02426 0
    endloop
  endfacet
  facet normal 0 0 1
    outer loop
      vertex -0.06 0 0
      vertex -0.0537396 -0.000961814 0
      vertex -0.0538981 0.00630958 0
    endloop
  endfacet
  facet normal 0 -0 1
    outer loop
      vertex 0.0544498 0.00781284 0
      vertex 0.06 0.0075 0
      vertex 0.06 0.015 0
    endloop
  endfacet
  facet normal 0 0 1
    outer loop
      vertex -0.00743883 0.0428415 0
      vertex -0.00915674 0.0334466 0
      vertex -0.00195328 0.0354135 0
    endloop
  endfacet
  facet normal 0 0 1
    outer loop
      vertex 0.0415083 0.035909 0
      vertex 0.0431888 0.0433617 0
      vertex 0.0355495 0.0411741 0
    endloop
  endfacet
  facet normal 0 0 1
    outer loop
      vertex 0.0075 0.06 0
      vertex 0.00433191 0.0518993 0
      vertex 0.0122784 0.0519602 0
    endloop
  endfacet
  facet normal 0 0 1
    outer loop
      vertex -0.014991 0.037897 0
      vertex -0.0147757 0.0454338 0
      vertex -0.0211462 0.0422143 0
    endloop
  endfacet
  facet normal 0 0 1
    outer loop
      vertex 0.0209061 0.036412 0
      vertex 0.0231441 0.043362 0
      vertex 0.0162143 0.044214 0
    endloop
  endfacet
  facet normal 0 -0 1
    outer loop
      vertex -0.06 -0.045 0
      vertex -0.052389 -0.0469508 0
      vertex -0.0518295 -0.039243 0
    endloop
  endfacet
  facet normal 0 0 1
    outer loop
      vertex -0.00915674 0.0334466 0
      vertex -0.014991 0.037897 0
      vertex -0.0161172 0.0295956 0
    endloop
  endfacet
  facet normal 0 0 1
    outer loop
      vertex -0.0116612 -0.00248142 0
      vertex -0.00417105 -0.0048246 0
      vertex -0.00469473 0.00364543 0
    endloop
  endfacet
  facet normal 0 0 1
    outer loop
      vertex -0.0111207 -0.0105732 0
      vertex -0.00417105 -0.0048246 0
      vertex -0.0116612 -0.00248142 0
    endloop
  endfacet
  facet normal 0 0 1
    outer loop
      vertex -0.0534145 -0.00857547 0
      vertex -0.0537396 -0.000961814 0
      vertex -0.06 -0.0075 0
    endloop
  endfacet
  facet normal 0 0 1
    outer loop
      vertex -0.0518295 -0.039243 0
      vertex -0.050875 -0.030811 0
      vertex -0.06 -0.0375 0
    endloop
  endfacet
  facet normal 0 0 1
    outer loop
      vertex -0.06 0.015 0
      vertex -0.06 0.0075 0
      vertex -0.0545175 0.0128798 0
    endloop
  endfacet
  facet normal 0 0 1
    outer loop
      vertex -0.0514033 0.0528162 0
      vertex -0.0427628 0.0522493 0
      vertex -0.045 0.06 0
    endloop
  endfacet
  facet normal 0 0 1
    outer loop
      vertex -0.0211462 0.0422143 0
      vertex -0.0217286 0.033854 0
      vertex -0.014991 0.037897 0
    endloop
  endfacet
  facet normal 0 0 1
    outer loop
      vertex -0.0212342 0.0153755 0
      vertex -0.0283075 0.0166895 0
      vertex -0.0273285 0.00933496 0
    endloop
  endfacet
  facet normal 0 -0 1
    outer loop
      vertex -0.0545175 0.0128798 0
      vertex -0.0538981 0.00630958 0
      vertex -0.0479651 0.0142334 0
    endloop
  endfacet
  facet normal 0 0 1
    outer loop
      vertex -0.0273285 0.00933496 0
      vertex -0.0283075 0.0166895 0
      vertex -0.0342721 0.0116247 0
    endloop
  endfacet
  facet normal 0 -0 1
    outer loop
      vertex -0.0273371 0.0464096 0
      vertex -0.0211462 0.0422143 0
      vertex -0.0196237 0.0515681 0
    endloop
  endfacet
  facet normal 0 0 1
    outer loop
      vertex -0.0335838 0.00472203 0
      vertex -0.0402896 0.00623291 0
      vertex -0.0403604 -0.000760697 0
    endloop
  endfacet
  facet normal 0 0 1
    outer loop
      vertex -0.06 -0.015 0
      vertex -0.0521985 -0.0164125 0
      vertex -0.0534145 -0.00857547 0
    endloop
  endfacet
  facet normal 0 0 1
    outer loop
      vertex -0.0347347 0.0259415 0
      vertex -0.0353934 0.018655 0
      vertex -0.0296108 0.0231381 0
    endloop
  endfacet
  facet normal 0 0 1
    outer loop
      vertex -0.00374972 -0.0209498 0
      vertex -0.00392487 -0.0130504 0
      vertex -0.0108974 -0.0185351 0
    endloop
  endfacet
  facet normal 0 0 1
    outer loop
      vertex -0.00754614 -0.0478451 0
      vertex -0.0152847 -0.0458487 0
      vertex -0.0151821 -0.0529641 0
    endloop
  endfacet
  facet normal 0 0 1
    outer loop
      vertex -0.0151821 -0.0529641 0
      vertex -0.00734036 -0.0543638 0
      vertex -0.00754614 -0.0478451 0
    endloop
  endfacet
  facet normal 0 0 1
    outer loop
      vertex -0.0342721 0.0116247 0
      vertex -0.0353934 0.018655 0
      vertex -0.0411308 0.0134359 0
    endloop
  endfacet
  facet normal 0 -0 1
    outer loop
      vertex -0.0192521 -0.000657526 0
      vertex -0.0183269 -0.00865355 0
      vertex -0.0116612 -0.00248142 0
    endloop
  endfacet
  facet normal 0 -0 1
    outer loop
      vertex 0.00258569 0.0104444 0
      vertex 0.00295011 0.000616051 0
      vertex 0.0102895 0.00497348 0
    endloop
  endfacet
  facet normal 0 0 1
    outer loop
      vertex -0.00469473 0.00364543 0
      vertex 0.00295011 0.000616051 0
      vertex 0.00258569 0.0104444 0
    endloop
  endfacet
  facet normal 0 0 1
    outer loop
      vertex -0.0125656 0.00554143 0
      vertex -0.0201673 0.00730824 0
      vertex -0.0192521 -0.000657526 0
    endloop
  endfacet
  facet normal -0 0 1
    outer loop
      vertex 0.0245886 -0.00676424 0
      vertex 0.0171962 -0.0087603 0
      vertex 0.0239403 -0.0143692 0
    endloop
  endfacet
  facet normal 0 -0 1
    outer loop
      vertex 0.00355581 -0.0311239 0
      vertex 0.00401222 -0.037561 0
      vertex 0.0102817 -0.0350016 0
    endloop
  endfacet
  facet normal -0 0 1
    outer loop
      vertex 0.0217451 0.0221214 0
      vertex 0.0139385 0.0220192 0
      vertex 0.0175981 0.0161252 0
    endloop
  endfacet
  facet normal 0 0 1
    outer loop
      vertex 0.0169629 -0.017037 0
      vertex 0.0100916 -0.0121875 0
      vertex 0.0100664 -0.0202178 0
    endloop
  endfacet
  facet normal -0 0 1
    outer loop
      vertex 0.0171962 -0.0087603 0
      vertex 0.0100916 -0.0121875 0
      vertex 0.0169629 -0.017037 0
    endloop
  endfacet
  facet normal 0 0 1
    outer loop
      vertex 0.045131 -0.00814398 0
      vertex 0.0444185 -0.015763 0
      vertex 0.0520846 -0.0153281 0
    endloop
  endfacet
  facet normal 0 0 1
    outer loop
      vertex 0.0520846 -0.0153281 0
      vertex 0.0525212 -0.00761312 0
      vertex 0.045131 -0.00814398 0
    endloop
  endfacet
  facet normal 0 0 1
    outer loop
      vertex -0.00338299 -0.0285218 0
      vertex -0.00374972 -0.0209498 0
      vertex -0.0105646 -0.0262099 0
    endloop
  endfacet
  facet normal 0 0 1
    outer loop
      vertex 0.0165865 -0.039874 0
      vertex 0.0237688 -0.0381794 0
      vertex 0.0170716 -0.032584 0
    endloop
  endfacet
  facet normal 0 -0 1
    outer loop
      vertex -0.015 -0.06 0
      vertex -0.0075 -0.06 0
      vertex -0.00734036 -0.0543638 0
    endloop
  endfacet
  facet normal -0 0 1
    outer loop
      vertex 0.0237688 -0.0381794 0
      vertex 0.0165865 -0.039874 0
      vertex 0.0233492 -0.0456319 0
    endloop
  endfacet
  facet normal 0 0 1
    outer loop
      vertex -0.0226092 -0.0437758 0
      vertex -0.0152847 -0.0458487 0
      vertex -0.0156343 -0.0387914 0
    endloop
  endfacet
  facet normal 0 0 1
    outer loop
      vertex -0.0393887 -0.00707565 0
      vertex -0.0344534 -0.00166251 0
      vertex -0.0403604 -0.000760697 0
    endloop
  endfacet
  facet normal 0 0 1
    outer loop
      vertex -0.00734036 -0.0543638 0
      vertex 0 -0.06 0
      vertex -2.44266e-05 -0.0515057 0
    endloop
  endfacet
  facet normal 0 0 1
    outer loop
      vertex 0.0101943 -0.0278051 0
      vertex 0.0170332 -0.0249674 0
      vertex 0.0100664 -0.0202178 0
    endloop
  endfacet
  facet normal 0 -0 1
    outer loop
      vertex -0.00374972 -0.0209498 0
      vertex -0.00338299 -0.0285218 0
      vertex 0.00326571 -0.0239475 0
    endloop
  endfacet
  facet normal 0 -0 1
    outer loop
      vertex 0.00326571 -0.0239475 0
      vertex 0.00355581 -0.0311239 0
      vertex 0.0101943 -0.0278051 0
    endloop
  endfacet
  facet normal 0 0 1
    outer loop
      vertex 0.0151289 -0.053423 0
      vertex 0.015 -0.06 0
      vertex 0.0225 -0.06 0
    endloop
  endfacet
  facet normal 0 0 1
    outer loop
      vertex 0.06 -0.015 0
      vertex 0.06 -0.0075 0
      vertex 0.0525212 -0.00761312 0
    endloop
  endfacet
  facet normal 0 -0 1
    outer loop
      vertex -0.028079 0.0300129 0
      vertex -0.0225858 0.02426 0
      vertex -0.0217286 0.033854 0
    endloop
  endfacet
  facet normal 0 0 1
    outer loop
      vertex 0.0430198 -0.022795 0
      vertex 0.0444185 -0.015763 0
      vertex 0.0371855 -0.0168156 0
    endloop
  endfacet
  facet normal 0 0 1
    outer loop
      vertex 0.0530521 0.000179679 0
      vertex 0.0544498 0.00781284 0
      vertex 0.0477625 0.00783822 0
    endloop
  endfacet
  facet normal 0 0 1
    outer loop
      vertex 0.0525212 -0.00761312 0
      vertex 0.0530521 0.000179679 0
      vertex 0.0458743 -6.78438e-05 0
    endloop
  endfacet
  facet normal 0 0 1
    outer loop
      vertex 0.0228746 -0.0528592 0
      vertex 0.0305785 -0.052451 0
      vertex 0.0233492 -0.0456319 0
    endloop
  endfacet
  facet normal 0 0 1
    outer loop
      vertex 0.0171962 -0.0087603 0
      vertex 0.0245886 -0.00676424 0
      vertex 0.0182855 0.000177816 0
    endloop
  endfacet
  facet normal 0 0 1
    outer loop
      vertex -0.0318604 -0.0139859 0
      vertex -0.0375916 -0.0124424 0
      vertex -0.039534 -0.0189169 0
    endloop
  endfacet
  facet normal 0 0 1
    outer loop
      vertex 0.0369556 0.0169241 0
      vertex 0.0447643 0.0153927 0
      vertex 0.0421751 0.0228148 0
    endloop
  endfacet
  facet normal 0 0 1
    outer loop
      vertex -0.0427628 0.0522493 0
      vertex -0.0375 0.06 0
      vertex -0.045 0.06 0
    endloop
  endfacet
  facet normal 0 -0 1
    outer loop
      vertex -0.0525 0.06 0
      vertex -0.0514033 0.0528162 0
      vertex -0.045 0.06 0
    endloop
  endfacet
  facet normal 0 0 1
    outer loop
      vertex 0.0239403 -0.0143692 0
      vertex 0.030952 -0.0118523 0
      vertex 0.0245886 -0.00676424 0
    endloop
  endfacet
  facet normal 0 0 1
    outer loop
      vertex -0.0342721 0.0116247 0
      vertex -0.0411308 0.0134359 0
      vertex -0.0402896 0.00623291 0
    endloop
  endfacet
  facet normal 0 0 1
    outer loop
      vertex -0.0518295 -0.039243 0
      vertex -0.06 -0.0375 0
      vertex -0.06 -0.045 0
    endloop
  endfacet
  facet normal 0 -0 1
    outer loop
      vertex -0.0105646 -0.0262099 0
      vertex -0.0096546 -0.0335994 0
      vertex -0.00338299 -0.0285218 0
    endloop
  endfacet
  facet normal 0 0 1
    outer loop
      vertex 0.0233492 -0.0456319 0
      vertex 0.0308777 -0.0447076 0
      vertex 0.0237688 -0.0381794 0
    endloop
  endfacet
  facet normal 0 0 1
    outer loop
      vertex 0.0355495 0.0411741 0
      vertex 0.0340339 0.0332178 0
      vertex 0.0415083 0.035909 0
    endloop
  endfacet
  facet normal 0 0 1
    outer loop
      vertex 0.0431888 0.0433617 0
      vertex 0.0365761 0.0495295 0
      vertex 0.0355495 0.0411741 0
    endloop
  endfacet
  facet normal -0 0 1
    outer loop
      vertex 0.0441613 0.0515247 0
      vertex 0.0365761 0.0495295 0
      vertex 0.0431888 0.0433617 0
    endloop
  endfacet
  facet normal 0 -0 1
    outer loop
      vertex 0.0431888 0.0433617 0
      vertex 0.0495448 0.0367811 0
      vertex 0.0514442 0.0442864 0
    endloop
  endfacet
  facet normal 0 0 1
    outer loop
      vertex 0.0415083 0.035909 0
      vertex 0.0495448 0.0367811 0
      vertex 0.0431888 0.0433617 0
    endloop
  endfacet
  facet normal 0 0 1
    outer loop
      vertex 0.0384103 -0.0520995 0
      vertex 0.0375 -0.06 0
      vertex 0.045 -0.06 0
    endloop
  endfacet
  facet normal -0 0 1
    outer loop
      vertex 0.0463572 -0.0511493 0
      vertex 0.0384103 -0.0520995 0
      vertex 0.045 -0.06 0
    endloop
  endfacet
  facet normal 0 0 1
    outer loop
      vertex -0.00863093 0.019435 0
      vertex -0.00446893 0.026971 0
      vertex -0.0108126 0.0261124 0
    endloop
  endfacet
  facet normal 0 0 1
    outer loop
      vertex 0.06 0.0375 0
      vertex 0.06 0.045 0
      vertex 0.0514442 0.0442864 0
    endloop
  endfacet
  facet normal 0 0 1
    outer loop
      vertex 0.0514442 0.0442864 0
      vertex 0.0495448 0.0367811 0
      vertex 0.06 0.0375 0
    endloop
  endfacet
  facet normal 0 0 1
    outer loop
      vertex 0.0520524 0.0521154 0
      vertex 0.0514442 0.0442864 0
      vertex 0.06 0.045 0
    endloop
  endfacet
  facet normal 0 0 1
    outer loop
      vertex 0.0375 0.06 0
      vertex 0.0365761 0.0495295 0
      vertex 0.0441613 0.0515247 0
    endloop
  endfacet
  facet normal 0 0 1
    outer loop
      vertex 0.045 0.06 0
      vertex 0.0441613 0.0515247 0
      vertex 0.0520524 0.0521154 0
    endloop
  endfacet
  facet normal 0 0 1
    outer loop
      vertex 0.0441613 0.0515247 0
      vertex 0.045 0.06 0
      vertex 0.0375 0.06 0
    endloop
  endfacet
  facet normal 0 0 1
    outer loop
      vertex -0.0353934 0.018655 0
      vertex -0.0347347 0.0259415 0
      vertex -0.0427082 0.0214505 0
    endloop
  endfacet
  facet normal 0 0 1
    outer loop
      vertex -0.0330711 -0.0214486 0
      vertex -0.039534 -0.0189169 0
      vertex -0.041529 -0.0263883 0
    endloop
  endfacet
  facet normal 0 -0 1
    outer loop
      vertex -0.041529 -0.0263883 0
      vertex -0.0342942 -0.0291782 0
      vertex -0.0330711 -0.0214486 0
    endloop
  endfacet
  facet normal 0 0 1
    outer loop
      vertex -0.0435362 -0.0343125 0
      vertex -0.0342942 -0.0291782 0
      vertex -0.041529 -0.0263883 0
    endloop
  endfacet
  facet normal 0 0 1
    outer loop
      vertex 0.0157746 -0.0467598 0
      vertex 0.0233492 -0.0456319 0
      vertex 0.0165865 -0.039874 0
    endloop
  endfacet
  facet normal 0 0 1
    outer loop
      vertex -0.0537396 -0.000961814 0
      vertex -0.0470254 0.00674658 0
      vertex -0.0538981 0.00630958 0
    endloop
  endfacet
  facet normal 0 0 1
    outer loop
      vertex -0.06 0.045 0
      vertex -0.06 0.0375 0
      vertex -0.0543858 0.0453868 0
    endloop
  endfacet
  facet normal 0 0 1
    outer loop
      vertex -0.0406982 0.0442861 0
      vertex -0.0478013 0.0450875 0
      vertex -0.0466703 0.0369054 0
    endloop
  endfacet
  facet normal 0 0 1
    outer loop
      vertex -0.0543858 0.0453868 0
      vertex -0.06 0.0525 0
      vertex -0.06 0.045 0
    endloop
  endfacet
  facet normal 0 -0 1
    outer loop
      vertex -0.0181425 -0.0245095 0
      vertex -0.0170488 -0.0317958 0
      vertex -0.0105646 -0.0262099 0
    endloop
  endfacet
  facet normal 0 0 1
    outer loop
      vertex -0.0273371 0.0464096 0
      vertex -0.0275929 0.0381615 0
      vertex -0.0211462 0.0422143 0
    endloop
  endfacet
  facet normal 0 0 1
    outer loop
      vertex -0.06 0.0375 0
      vertex -0.0534324 0.0372985 0
      vertex -0.0543858 0.0453868 0
    endloop
  endfacet
  facet normal 0 0 1
    outer loop
      vertex -0.0196237 0.0515681 0
      vertex -0.0267579 0.0537344 0
      vertex -0.0273371 0.0464096 0
    endloop
  endfacet
  facet normal 0 0 1
    outer loop
      vertex -0.0111207 -0.0105732 0
      vertex -0.0183269 -0.00865355 0
      vertex -0.0180905 -0.0166632 0
    endloop
  endfacet
  facet normal 0 -0 1
    outer loop
      vertex -0.0275929 0.0381615 0
      vertex -0.0217286 0.033854 0
      vertex -0.0211462 0.0422143 0
    endloop
  endfacet
  facet normal 0 0 1
    outer loop
      vertex -0.0125656 0.00554143 0
      vertex -0.00469473 0.00364543 0
      vertex -0.00615171 0.0118529 0
    endloop
  endfacet
  facet normal 0 0 1
    outer loop
      vertex -0.0373514 -0.0451456 0
      vertex -0.0361658 -0.0371755 0
      vertex -0.0446808 -0.0424656 0
    endloop
  endfacet
  facet normal 0 0 1
    outer loop
      vertex -0.0373514 -0.0451456 0
      vertex -0.0446808 -0.0424656 0
      vertex -0.0458726 -0.0513173 0
    endloop
  endfacet
  facet normal 0 -0 1
    outer loop
      vertex -0.0458726 -0.0513173 0
      vertex -0.0378157 -0.0528066 0
      vertex -0.0373514 -0.0451456 0
    endloop
  endfacet
  facet normal 0 0 1
    outer loop
      vertex -0.0446808 -0.0424656 0
      vertex -0.0435362 -0.0343125 0
      vertex -0.0518295 -0.039243 0
    endloop
  endfacet
  facet normal 0 0 1
    outer loop
      vertex -0.0361658 -0.0371755 0
      vertex -0.0435362 -0.0343125 0
      vertex -0.0446808 -0.0424656 0
    endloop
  endfacet
  facet normal 0 0 1
    outer loop
      vertex 0.000804049 0.0437471 0
      vertex -0.00195328 0.0354135 0
      vertex 0.00557989 0.0361625 0
    endloop
  endfacet
  facet normal 0 0 1
    outer loop
      vertex -0.00195328 0.0354135 0
      vertex 0.000804049 0.0437471 0
      vertex -0.00743883 0.0428415 0
    endloop
  endfacet
  facet normal 0 0 1
    outer loop
      vertex -0.0212342 0.0153755 0
      vertex -0.0157899 0.0211552 0
      vertex -0.0225858 0.02426 0
    endloop
  endfacet
  facet normal 0 0 1
    outer loop
      vertex 0.0237688 -0.0381794 0
      vertex 0.030958 -0.036709 0
      vertex 0.0242062 -0.0304474 0
    endloop
  endfacet
  facet normal -0 0 1
    outer loop
      vertex 0.0239735 -0.0224497 0
      vertex 0.0170332 -0.0249674 0
      vertex 0.0242062 -0.0304474 0
    endloop
  endfacet
  facet normal 0 0 1
    outer loop
      vertex 0.00557989 0.0361625 0
      vertex 0.00864014 0.0441467 0
      vertex 0.000804049 0.0437471 0
    endloop
  endfacet
  facet normal 0 0 1
    outer loop
      vertex 0.0458471 -0.0423549 0
      vertex 0.0383059 -0.0360941 0
      vertex 0.0385566 -0.0440313 0
    endloop
  endfacet
  facet normal -0 0 1
    outer loop
      vertex 0.0448955 -0.0351421 0
      vertex 0.0383059 -0.0360941 0
      vertex 0.0458471 -0.0423549 0
    endloop
  endfacet
  facet normal 0 0 1
    outer loop
      vertex 0.0458471 -0.0423549 0
      vertex 0.0522855 -0.0381968 0
      vertex 0.0448955 -0.0351421 0
    endloop
  endfacet
  facet normal 0 0 1
    outer loop
      vertex 0.0527156 -0.0466981 0
      vertex 0.0522855 -0.0381968 0
      vertex 0.0458471 -0.0423549 0
    endloop
  endfacet
  facet normal -0 0 1
    outer loop
      vertex 0.0100664 -0.0202178 0
      vertex 0.00326571 -0.0239475 0
      vertex 0.0101943 -0.0278051 0
    endloop
  endfacet
  facet normal 0 0 1
    outer loop
      vertex 0.0385566 -0.0440313 0
      vertex 0.0463572 -0.0511493 0
      vertex 0.0458471 -0.0423549 0
    endloop
  endfacet
  facet normal 0 0 1
    outer loop
      vertex -0.045 -0.06 0
      vertex -0.0375 -0.06 0
      vertex -0.0378157 -0.0528066 0
    endloop
  endfacet
  facet normal -0 0 1
    outer loop
      vertex -0.0458726 -0.0513173 0
      vertex -0.053953 -0.0538548 0
      vertex -0.0525 -0.06 0
    endloop
  endfacet
  facet normal 0 0 1
    outer loop
      vertex -0.0378157 -0.0528066 0
      vertex -0.0458726 -0.0513173 0
      vertex -0.045 -0.06 0
    endloop
  endfacet
  facet normal 0 0 1
    outer loop
      vertex 0.00722441 -0.0545311 0
      vertex 0.0151289 -0.053423 0
      vertex 0.00770768 -0.0483128 0
    endloop
  endfacet
  facet normal 0 0 1
    outer loop
      vertex -0.00338299 -0.0285218 0
      vertex 0.00355581 -0.0311239 0
      vertex 0.00326571 -0.0239475 0
    endloop
  endfacet
  facet normal 0 0 1
    outer loop
      vertex -0.0335838 0.00472203 0
      vertex -0.0270412 0.000933462 0
      vertex -0.0273285 0.00933496 0
    endloop
  endfacet
  facet normal 0 0 1
    outer loop
      vertex 0.0239735 -0.0224497 0
      vertex 0.0304652 -0.0193965 0
      vertex 0.0239403 -0.0143692 0
    endloop
  endfacet
  facet normal 0 0 1
    outer loop
      vertex 0.0178651 0.029191 0
      vertex 0.0209061 0.036412 0
      vertex 0.0132088 0.0365099 0
    endloop
  endfacet
  facet normal 0 0 1
    outer loop
      vertex 0.0292069 0.0197979 0
      vertex 0.0217451 0.0221214 0
      vertex 0.0240526 0.0141232 0
    endloop
  endfacet
  facet normal 0 0 1
    outer loop
      vertex 0.06 -0.045 0
      vertex 0.06 -0.0375 0
      vertex 0.0522855 -0.0381968 0
    endloop
  endfacet
  facet normal 0 -0 1
    outer loop
      vertex 0.0527156 -0.0466981 0
      vertex 0.0540542 -0.0537891 0
      vertex 0.06 -0.0525 0
    endloop
  endfacet
  facet normal 0 -0 1
    outer loop
      vertex 0.0522855 -0.0381968 0
      vertex 0.0527156 -0.0466981 0
      vertex 0.06 -0.045 0
    endloop
  endfacet
  facet normal 0 0 1
    outer loop
      vertex 0.0182855 0.000177816 0
      vertex 0.0263661 -0.000121138 0
      vertex 0.0249108 0.00662145 0
    endloop
  endfacet
  facet normal 0 0 1
    outer loop
      vertex 0.0245886 -0.00676424 0
      vertex 0.0263661 -0.000121138 0
      vertex 0.0182855 0.000177816 0
    endloop
  endfacet
  facet normal 0 0 1
    outer loop
      vertex -0.0537396 -0.000961814 0
      vertex -0.0469472 -0.000789427 0
      vertex -0.0470254 0.00674658 0
    endloop
  endfacet
  facet normal 0 0 1
    outer loop
      vertex -0.0466703 0.0369054 0
      vertex -0.0534324 0.0372985 0
      vertex -0.0530628 0.0290922 0
    endloop
  endfacet
  facet normal 0 0 1
    outer loop
      vertex -0.06 0.0225 0
      vertex -0.0517491 0.0209617 0
      vertex -0.0530628 0.0290922 0
    endloop
  endfacet
  facet normal 0 0 1
    outer loop
      vertex 0.0249108 0.00662145 0
      vertex 0.0175156 0.00885296 0
      vertex 0.0182855 0.000177816 0
    endloop
  endfacet
  facet normal 0 0 1
    outer loop
      vertex -0.0442061 -0.0145142 0
      vertex -0.0375916 -0.0124424 0
      vertex -0.0393887 -0.00707565 0
    endloop
  endfacet
  facet normal 0 0 1
    outer loop
      vertex -0.015 0.06 0
      vertex -0.0196237 0.0515681 0
      vertex -0.011269 0.0522134 0
    endloop
  endfacet
  facet normal 0 -0 1
    outer loop
      vertex -0.0225 0.06 0
      vertex -0.0196237 0.0515681 0
      vertex -0.015 0.06 0
    endloop
  endfacet
  facet normal 0 0 1
    outer loop
      vertex -0.0427082 0.0214505 0
      vertex -0.0347347 0.0259415 0
      vertex -0.0395082 0.0293373 0
    endloop
  endfacet
  facet normal 0 0 1
    outer loop
      vertex -0.0398537 0.0363929 0
      vertex -0.0466703 0.0369054 0
      vertex -0.0460519 0.0286741 0
    endloop
  endfacet
  facet normal 0 0 1
    outer loop
      vertex -0.0460519 0.0286741 0
      vertex -0.0395082 0.0293373 0
      vertex -0.0398537 0.0363929 0
    endloop
  endfacet
  facet normal 0 0 1
    outer loop
      vertex -0.0427082 0.0214505 0
      vertex -0.0395082 0.0293373 0
      vertex -0.0460519 0.0286741 0
    endloop
  endfacet
  facet normal 0 0 1
    outer loop
      vertex -0.0460519 0.0286741 0
      vertex -0.0530628 0.0290922 0
      vertex -0.0517491 0.0209617 0
    endloop
  endfacet
  facet normal -0 0 1
    outer loop
      vertex -0.0466703 0.0369054 0
      vertex -0.0530628 0.0290922 0
      vertex -0.0460519 0.0286741 0
    endloop
  endfacet
  facet normal 0 0 1
    outer loop
      vertex -0.06 -0.015 0
      vertex -0.06 -0.0225 0
      vertex -0.0521985 -0.0164125 0
    endloop
  endfacet
  facet normal 0 0 1
    outer loop
      vertex -0.0534145 -0.00857547 0
      vertex -0.06 -0.0075 0
      vertex -0.06 -0.015 0
    endloop
  endfacet
  facet normal 0 0 1
    outer loop
      vertex -0.0337358 0.0338226 0
      vertex -0.0398537 0.0363929 0
      vertex -0.0395082 0.0293373 0
    endloop
  endfacet
  facet normal 0 0 1
    outer loop
      vertex -0.0344254 0.0512159 0
      vertex -0.0427628 0.0522493 0
      vertex -0.0406982 0.0442861 0
    endloop
  endfacet
  facet normal -0 0 1
    outer loop
      vertex -0.0406982 0.0442861 0
      vertex -0.0466703 0.0369054 0
      vertex -0.0398537 0.0363929 0
    endloop
  endfacet
  facet normal -0 0 1
    outer loop
      vertex 0.0240526 0.0141232 0
      vertex 0.0175156 0.00885296 0
      vertex 0.0249108 0.00662145 0
    endloop
  endfacet
  facet normal 0 0 1
    outer loop
      vertex 0.0245886 -0.00676424 0
      vertex 0.0319741 -0.00446345 0
      vertex 0.0263661 -0.000121138 0
    endloop
  endfacet
  facet normal 0 0 1
    outer loop
      vertex 0.0324917 0.00352707 0
      vertex 0.0249108 0.00662145 0
      vertex 0.0263661 -0.000121138 0
    endloop
  endfacet
  facet normal 0 0 1
    outer loop
      vertex -0.0411308 0.0134359 0
      vertex -0.0479651 0.0142334 0
      vertex -0.0470254 0.00674658 0
    endloop
  endfacet
  facet normal 0 0 1
    outer loop
      vertex 0.0165865 -0.039874 0
      vertex 0.0102817 -0.0350016 0
      vertex 0.00932158 -0.041862 0
    endloop
  endfacet
  facet normal 0 0 1
    outer loop
      vertex 0.0240526 0.0141232 0
      vertex 0.0217451 0.0221214 0
      vertex 0.0175981 0.0161252 0
    endloop
  endfacet
  facet normal 0 0 1
    outer loop
      vertex 0.0175981 0.0161252 0
      vertex 0.0175156 0.00885296 0
      vertex 0.0240526 0.0141232 0
    endloop
  endfacet
  facet normal 0 0 1
    outer loop
      vertex 0.0175156 0.00885296 0
      vertex 0.0175981 0.0161252 0
      vertex 0.0108925 0.0135067 0
    endloop
  endfacet
  facet normal 0 0 1
    outer loop
      vertex 0.0108925 0.0135067 0
      vertex 0.0175981 0.0161252 0
      vertex 0.0139385 0.0220192 0
    endloop
  endfacet
  facet normal -0 0 1
    outer loop
      vertex 0.0139385 0.0220192 0
      vertex 0.00643748 0.0202929 0
      vertex 0.0108925 0.0135067 0
    endloop
  endfacet
  facet normal -0 0 1
    outer loop
      vertex 0.0170716 -0.032584 0
      vertex 0.0102817 -0.0350016 0
      vertex 0.0165865 -0.039874 0
    endloop
  endfacet
  facet normal 0 0 1
    outer loop
      vertex 0.0132088 0.0365099 0
      vertex 0.0209061 0.036412 0
      vertex 0.0162143 0.044214 0
    endloop
  endfacet
  facet normal -0 0 1
    outer loop
      vertex 0.0162143 0.044214 0
      vertex 0.00864014 0.0441467 0
      vertex 0.0132088 0.0365099 0
    endloop
  endfacet
  facet normal 0 0 1
    outer loop
      vertex 0.00864014 0.0441467 0
      vertex 0.0162143 0.044214 0
      vertex 0.0122784 0.0519602 0
    endloop
  endfacet
  facet normal 0 0 1
    outer loop
      vertex 0.0162143 0.044214 0
      vertex 0.0209811 0.0515432 0
      vertex 0.0122784 0.0519602 0
    endloop
  endfacet
  facet normal 0 0 1
    outer loop
      vertex 0.0231441 0.043362 0
      vertex 0.0209811 0.0515432 0
      vertex 0.0162143 0.044214 0
    endloop
  endfacet
  facet normal 0 -0 1
    outer loop
      vertex -0.00338299 -0.0285218 0
      vertex -0.00258483 -0.03592 0
      vertex 0.00355581 -0.0311239 0
    endloop
  endfacet
  facet normal 0 0 1
    outer loop
      vertex 0.0421751 0.0228148 0
      vertex 0.0344596 0.025077 0
      vertex 0.0369556 0.0169241 0
    endloop
  endfacet
  facet normal 0 0 1
    outer loop
      vertex 0.0447643 0.0153927 0
      vertex 0.0501048 0.022588 0
      vertex 0.0421751 0.0228148 0
    endloop
  endfacet
  facet normal 0 0 1
    outer loop
      vertex 0.0525624 0.0153153 0
      vertex 0.0501048 0.022588 0
      vertex 0.0447643 0.0153927 0
    endloop
  endfacet
  facet normal 0 0 1
    outer loop
      vertex 0.0447643 0.0153927 0
      vertex 0.0396225 0.00775126 0
      vertex 0.0477625 0.00783822 0
    endloop
  endfacet
  facet normal 0 -0 1
    outer loop
      vertex 0.0369556 0.0169241 0
      vertex 0.0396225 0.00775126 0
      vertex 0.0447643 0.0153927 0
    endloop
  endfacet
  facet normal 0 0 1
    outer loop
      vertex 0.0225 -0.06 0
      vertex 0.0228746 -0.0528592 0
      vertex 0.0151289 -0.053423 0
    endloop
  endfacet
  facet normal -0 0 1
    outer loop
      vertex 0.0151289 -0.053423 0
      vertex 0.00722441 -0.0545311 0
      vertex 0.015 -0.06 0
    endloop
  endfacet
  facet normal -0 0 1
    outer loop
      vertex 0.00932158 -0.041862 0
      vertex 8.49882e-05 -0.0437061 0
      vertex 0.00770768 -0.0483128 0
    endloop
  endfacet
  facet normal 0 0 1
    outer loop
      vertex 0.0132088 0.0365099 0
      vertex 0.00864014 0.0441467 0
      vertex 0.00557989 0.0361625 0
    endloop
  endfacet
  facet normal 0 0 1
    outer loop
      vertex -0.0157899 0.0211552 0
      vertex -0.00863093 0.019435 0
      vertex -0.0108126 0.0261124 0
    endloop
  endfacet
  facet normal -0 0 1
    outer loop
      vertex -0.0212342 0.0153755 0
      vertex -0.0273285 0.00933496 0
      vertex -0.0201673 0.00730824 0
    endloop
  endfacet
  facet normal -0 0 1
    outer loop
      vertex 0.0170332 -0.0249674 0
      vertex 0.0101943 -0.0278051 0
      vertex 0.0170716 -0.032584 0
    endloop
  endfacet
  facet normal 0 0 1
    outer loop
      vertex 0.0170716 -0.032584 0
      vertex 0.0242062 -0.0304474 0
      vertex 0.0170332 -0.0249674 0
    endloop
  endfacet
  facet normal 0 0 1
    outer loop
      vertex 0.0237688 -0.0381794 0
      vertex 0.0242062 -0.0304474 0
      vertex 0.0170716 -0.032584 0
    endloop
  endfacet
  facet normal 0 0 1
    outer loop
      vertex 0.06 0.0225 0
      vertex 0.0501048 0.022588 0
      vertex 0.0525624 0.0153153 0
    endloop
  endfacet
  facet normal 0 0 1
    outer loop
      vertex 0.06 0.015 0
      vertex 0.0525624 0.0153153 0
      vertex 0.0544498 0.00781284 0
    endloop
  endfacet
  facet normal 0 -0 1
    outer loop
      vertex 0.0525624 0.0153153 0
      vertex 0.06 0.015 0
      vertex 0.06 0.0225 0
    endloop
  endfacet
  facet normal 0 0 1
    outer loop
      vertex 0.0463511 0.0295596 0
      vertex 0.0535187 0.0298238 0
      vertex 0.0495448 0.0367811 0
    endloop
  endfacet
  facet normal 0 0 1
    outer loop
      vertex 0.0501048 0.022588 0
      vertex 0.0535187 0.0298238 0
      vertex 0.0463511 0.0295596 0
    endloop
  endfacet
  facet normal -0 0 1
    outer loop
      vertex 0.0463511 0.0295596 0
      vertex 0.0421751 0.0228148 0
      vertex 0.0501048 0.022588 0
    endloop
  endfacet
  facet normal 0 -0 1
    outer loop
      vertex 0.0396955 0.0293204 0
      vertex 0.0421751 0.0228148 0
      vertex 0.0463511 0.0295596 0
    endloop
  endfacet
  facet normal 0 0 1
    outer loop
      vertex 0.0463511 0.0295596 0
      vertex 0.0415083 0.035909 0
      vertex 0.0396955 0.0293204 0
    endloop
  endfacet
  facet normal -0 0 1
    outer loop
      vertex 0.0495448 0.0367811 0
      vertex 0.0415083 0.035909 0
      vertex 0.0463511 0.0295596 0
    endloop
  endfacet
  facet normal 0 0 1
    outer loop
      vertex 0.0209811 0.0515432 0
      vertex 0.0225 0.06 0
      vertex 0.015 0.06 0
    endloop
  endfacet
  facet normal -0 0 1
    outer loop
      vertex 0.015 0.06 0
      vertex 0.0122784 0.0519602 0
      vertex 0.0209811 0.0515432 0
    endloop
  endfacet
  facet normal 0 0 1
    outer loop
      vertex 0.0122784 0.0519602 0
      vertex 0.015 0.06 0
      vertex 0.0075 0.06 0
    endloop
  endfacet
  facet normal 0 0 1
    outer loop
      vertex 0.0293935 0.0462571 0
      vertex 0.0294293 0.0536303 0
      vertex 0.0209811 0.0515432 0
    endloop
  endfacet
  facet normal 0 0 1
    outer loop
      vertex 0.0365761 0.0495295 0
      vertex 0.0294293 0.0536303 0
      vertex 0.0293935 0.0462571 0
    endloop
  endfacet
  facet normal 0 -0 1
    outer loop
      vertex 0.0293935 0.0462571 0
      vertex 0.0355495 0.0411741 0
      vertex 0.0365761 0.0495295 0
    endloop
  endfacet
  facet normal 0 0 1
    outer loop
      vertex 0.0283457 0.0380994 0
      vertex 0.0355495 0.0411741 0
      vertex 0.0293935 0.0462571 0
    endloop
  endfacet
  facet normal -0 0 1
    outer loop
      vertex 0.0293935 0.0462571 0
      vertex 0.0231441 0.043362 0
      vertex 0.0283457 0.0380994 0
    endloop
  endfacet
  facet normal 0 -0 1
    outer loop
      vertex 0.0209811 0.0515432 0
      vertex 0.0231441 0.043362 0
      vertex 0.0293935 0.0462571 0
    endloop
  endfacet
  facet normal 0 0 1
    outer loop
      vertex 0.00260589 0.0278734 0
      vertex 0.00557989 0.0361625 0
      vertex -0.00195328 0.0354135 0
    endloop
  endfacet
  facet normal 0 0 1
    outer loop
      vertex -0.0225858 0.02426 0
      vertex -0.0157899 0.0211552 0
      vertex -0.0161172 0.0295956 0
    endloop
  endfacet
  facet normal 0 0 1
    outer loop
      vertex -0.00119416 0.0192042 0
      vertex -0.00863093 0.019435 0
      vertex -0.00615171 0.0118529 0
    endloop
  endfacet
  facet normal 0 -0 1
    outer loop
      vertex -0.0435362 -0.0343125 0
      vertex -0.0361658 -0.0371755 0
      vertex -0.0342942 -0.0291782 0
    endloop
  endfacet
  facet normal 0 0 1
    outer loop
      vertex -0.0258737 -0.0232983 0
      vertex -0.0330711 -0.0214486 0
      vertex -0.0342942 -0.0291782 0
    endloop
  endfacet
  facet normal -0 0 1
    outer loop
      vertex -0.0318604 -0.0139859 0
      vertex -0.039534 -0.0189169 0
      vertex -0.0330711 -0.0214486 0
    endloop
  endfacet
  facet normal 0 0 1
    outer loop
      vertex 0.0384103 -0.0520995 0
      vertex 0.0463572 -0.0511493 0
      vertex 0.0385566 -0.0440313 0
    endloop
  endfacet
  facet normal 0 0 1
    outer loop
      vertex -0.0192521 -0.000657526 0
      vertex -0.0116612 -0.00248142 0
      vertex -0.0125656 0.00554143 0
    endloop
  endfacet
  facet normal 0 0 1
    outer loop
      vertex -0.00469473 0.00364543 0
      vertex -0.0125656 0.00554143 0
      vertex -0.0116612 -0.00248142 0
    endloop
  endfacet
  facet normal 0 0 1
    outer loop
      vertex -0.0514033 0.0528162 0
      vertex -0.0525 0.06 0
      vertex -0.06 0.06 0
    endloop
  endfacet
  facet normal 0 0 1
    outer loop
      vertex -0.0183269 -0.00865355 0
      vertex -0.0111207 -0.0105732 0
      vertex -0.0116612 -0.00248142 0
    endloop
  endfacet
  facet normal -0 0 1
    outer loop
      vertex -0.0514033 0.0528162 0
      vertex -0.06 0.0525 0
      vertex -0.0543858 0.0453868 0
    endloop
  endfacet
  facet normal 0 0 1
    outer loop
      vertex 0.0369556 0.0169241 0
      vertex 0.0344596 0.025077 0
      vertex 0.0292069 0.0197979 0
    endloop
  endfacet
  facet normal 0 0 1
    outer loop
      vertex 0.0240526 0.0141232 0
      vertex 0.0313784 0.0114382 0
      vertex 0.0292069 0.0197979 0
    endloop
  endfacet
  facet normal 0 0 1
    outer loop
      vertex -0.0318604 -0.0139859 0
      vertex -0.025359 -0.00713948 0
      vertex -0.0323728 -0.00718061 0
    endloop
  endfacet
  facet normal -0 0 1
    outer loop
      vertex 0.030952 -0.0118523 0
      vertex 0.0239403 -0.0143692 0
      vertex 0.0304652 -0.0193965 0
    endloop
  endfacet
  facet normal 0 0 1
    outer loop
      vertex 0.036434 -0.0233665 0
      vertex 0.0371855 -0.0168156 0
      vertex 0.0304652 -0.0193965 0
    endloop
  endfacet
  facet normal -0 0 1
    outer loop
      vertex 0.0430198 -0.022795 0
      vertex 0.036434 -0.0233665 0
      vertex 0.0402479 -0.0292115 0
    endloop
  endfacet
  facet normal 0 0 1
    outer loop
      vertex -0.0517491 0.0209617 0
      vertex -0.06 0.0225 0
      vertex -0.06 0.015 0
    endloop
  endfacet
  facet normal 0 0 1
    outer loop
      vertex 0.0383059 -0.0360941 0
      vertex 0.0448955 -0.0351421 0
      vertex 0.0402479 -0.0292115 0
    endloop
  endfacet
  facet normal 0 0 1
    outer loop
      vertex -0.0545175 0.0128798 0
      vertex -0.0517491 0.0209617 0
      vertex -0.06 0.015 0
    endloop
  endfacet
  facet normal 0 0 1
    outer loop
      vertex -0.0096546 -0.0335994 0
      vertex -0.0105646 -0.0262099 0
      vertex -0.0170488 -0.0317958 0
    endloop
  endfacet
  facet normal 0 -0 1
    outer loop
      vertex -0.0543858 0.0453868 0
      vertex -0.0534324 0.0372985 0
      vertex -0.0478013 0.0450875 0
    endloop
  endfacet
  facet normal 0 0 1
    outer loop
      vertex -0.0478013 0.0450875 0
      vertex -0.0514033 0.0528162 0
      vertex -0.0543858 0.0453868 0
    endloop
  endfacet
  facet normal 0 0 1
    outer loop
      vertex -0.0427628 0.0522493 0
      vertex -0.0514033 0.0528162 0
      vertex -0.0478013 0.0450875 0
    endloop
  endfacet
  facet normal 0 0 1
    outer loop
      vertex -0.0222915 -0.0371665 0
      vertex -0.0156343 -0.0387914 0
      vertex -0.0170488 -0.0317958 0
    endloop
  endfacet
  facet normal 0 0 1
    outer loop
      vertex -0.0534324 0.0372985 0
      vertex -0.0466703 0.0369054 0
      vertex -0.0478013 0.0450875 0
    endloop
  endfacet
  facet normal 0 0 1
    outer loop
      vertex -0.0226092 -0.0437758 0
      vertex -0.0222915 -0.0371665 0
      vertex -0.0292776 -0.0403438 0
    endloop
  endfacet
  facet normal 0 0 1
    outer loop
      vertex -0.0361658 -0.0371755 0
      vertex -0.0373514 -0.0451456 0
      vertex -0.0292776 -0.0403438 0
    endloop
  endfacet
  facet normal -0 0 1
    outer loop
      vertex 0.0308777 -0.0447076 0
      vertex 0.0233492 -0.0456319 0
      vertex 0.0305785 -0.052451 0
    endloop
  endfacet
  facet normal 0 0 1
    outer loop
      vertex -0.0538981 0.00630958 0
      vertex -0.0470254 0.00674658 0
      vertex -0.0479651 0.0142334 0
    endloop
  endfacet
  facet normal -0 0 1
    outer loop
      vertex 0.0383059 -0.0360941 0
      vertex 0.030958 -0.036709 0
      vertex 0.0385566 -0.0440313 0
    endloop
  endfacet
  facet normal 0 0 1
    outer loop
      vertex -0.0411308 0.0134359 0
      vertex -0.0427082 0.0214505 0
      vertex -0.0479651 0.0142334 0
    endloop
  endfacet
  facet normal 0 -0 1
    outer loop
      vertex -0.0338393 0.0419501 0
      vertex -0.0337358 0.0338226 0
      vertex -0.0275929 0.0381615 0
    endloop
  endfacet
  facet normal 0 0 1
    outer loop
      vertex -0.0398537 0.0363929 0
      vertex -0.0337358 0.0338226 0
      vertex -0.0338393 0.0419501 0
    endloop
  endfacet
  facet normal 0 0 1
    outer loop
      vertex 0.0375 -0.06 0
      vertex 0.0384103 -0.0520995 0
      vertex 0.0305785 -0.052451 0
    endloop
  endfacet
  facet normal 0 0 1
    outer loop
      vertex 0.0139385 0.0220192 0
      vertex 0.0217451 0.0221214 0
      vertex 0.0178651 0.029191 0
    endloop
  endfacet
  facet normal 0 0 1
    outer loop
      vertex -0.0338393 0.0419501 0
      vertex -0.0273371 0.0464096 0
      vertex -0.0344254 0.0512159 0
    endloop
  endfacet
  facet normal 0 0 1
    outer loop
      vertex -0.0275929 0.0381615 0
      vertex -0.0273371 0.0464096 0
      vertex -0.0338393 0.0419501 0
    endloop
  endfacet
  facet normal 0 0 1
    outer loop
      vertex 0.0132088 0.0365099 0
      vertex 0.0100182 0.0288124 0
      vertex 0.0178651 0.029191 0
    endloop
  endfacet
  facet normal 0 0 1
    outer loop
      vertex -0.0402896 0.00623291 0
      vertex -0.0470254 0.00674658 0
      vertex -0.0469472 -0.000789427 0
    endloop
  endfacet
  facet normal 0 0 1
    outer loop
      vertex -0.0403604 -0.000760697 0
      vertex -0.0402896 0.00623291 0
      vertex -0.0469472 -0.000789427 0
    endloop
  endfacet
  facet normal -0 0 1
    outer loop
      vertex -0.0403604 -0.000760697 0
      vertex -0.0469472 -0.000789427 0
      vertex -0.0463192 -0.00805309 0
    endloop
  endfacet
  facet normal 0 0 1
    outer loop
      vertex -0.0469472 -0.000789427 0
      vertex -0.0534145 -0.00857547 0
      vertex -0.0463192 -0.00805309 0
    endloop
  endfacet
  facet normal 0 0 1
    outer loop
      vertex -0.0201673 0.00730824 0
      vertex -0.0125656 0.00554143 0
      vertex -0.0140069 0.0133785 0
    endloop
  endfacet
  facet normal -0 0 1
    outer loop
      vertex -0.0108974 -0.0185351 0
      vertex -0.0181425 -0.0245095 0
      vertex -0.0105646 -0.0262099 0
    endloop
  endfacet
  facet normal 0 0 1
    outer loop
      vertex -0.0180905 -0.0166632 0
      vertex -0.0181425 -0.0245095 0
      vertex -0.0108974 -0.0185351 0
    endloop
  endfacet
  facet normal 0 0 1
    outer loop
      vertex -0.0108974 -0.0185351 0
      vertex -0.0111207 -0.0105732 0
      vertex -0.0180905 -0.0166632 0
    endloop
  endfacet
  facet normal 0 0 1
    outer loop
      vertex -0.00392487 -0.0130504 0
      vertex -0.0111207 -0.0105732 0
      vertex -0.0108974 -0.0185351 0
    endloop
  endfacet
  facet normal 0 0 1
    outer loop
      vertex -0.0183269 -0.00865355 0
      vertex -0.0192521 -0.000657526 0
      vertex -0.025359 -0.00713948 0
    endloop
  endfacet
  facet normal 0 0 1
    outer loop
      vertex -0.0105646 -0.0262099 0
      vertex -0.00374972 -0.0209498 0
      vertex -0.0108974 -0.0185351 0
    endloop
  endfacet
  facet normal 0 0 1
    outer loop
      vertex -0.0318604 -0.0139859 0
      vertex -0.0251463 -0.0151691 0
      vertex -0.025359 -0.00713948 0
    endloop
  endfacet
  facet normal 0 0 1
    outer loop
      vertex -0.0156343 -0.0387914 0
      vertex -0.0222915 -0.0371665 0
      vertex -0.0226092 -0.0437758 0
    endloop
  endfacet
  facet normal 0 0 1
    outer loop
      vertex -0.0152847 -0.0458487 0
      vertex -0.00835452 -0.0408583 0
      vertex -0.0156343 -0.0387914 0
    endloop
  endfacet
  facet normal 0 0 1
    outer loop
      vertex -0.00754614 -0.0478451 0
      vertex -0.00835452 -0.0408583 0
      vertex -0.0152847 -0.0458487 0
    endloop
  endfacet
  facet normal -0 0 1
    outer loop
      vertex -0.0152847 -0.0458487 0
      vertex -0.0226298 -0.0510652 0
      vertex -0.0151821 -0.0529641 0
    endloop
  endfacet
  facet normal 0 0 1
    outer loop
      vertex -0.0226092 -0.0437758 0
      vertex -0.0226298 -0.0510652 0
      vertex -0.0152847 -0.0458487 0
    endloop
  endfacet
  facet normal 0 0 1
    outer loop
      vertex -0.0251463 -0.0151691 0
      vertex -0.0258737 -0.0232983 0
      vertex -0.0180905 -0.0166632 0
    endloop
  endfacet
  facet normal 0 0 1
    outer loop
      vertex -0.0251463 -0.0151691 0
      vertex -0.0318604 -0.0139859 0
      vertex -0.0330711 -0.0214486 0
    endloop
  endfacet
  facet normal 0 0 1
    outer loop
      vertex -0.0521985 -0.0164125 0
      vertex -0.0463192 -0.00805309 0
      vertex -0.0534145 -0.00857547 0
    endloop
  endfacet
  facet normal 0 0 1
    outer loop
      vertex -0.0273371 0.0464096 0
      vertex -0.0267579 0.0537344 0
      vertex -0.0344254 0.0512159 0
    endloop
  endfacet
  facet normal 0 0 1
    outer loop
      vertex -0.0251463 -0.0151691 0
      vertex -0.0180905 -0.0166632 0
      vertex -0.0183269 -0.00865355 0
    endloop
  endfacet
  facet normal -0 0 1
    outer loop
      vertex -0.00195328 0.0354135 0
      vertex -0.00915674 0.0334466 0
      vertex -0.00446893 0.026971 0
    endloop
  endfacet
  facet normal 0 0 1
    outer loop
      vertex 0.00258569 0.0104444 0
      vertex -0.00119416 0.0192042 0
      vertex -0.00615171 0.0118529 0
    endloop
  endfacet
  facet normal -0 0 1
    outer loop
      vertex 0.00643748 0.0202929 0
      vertex -0.00119416 0.0192042 0
      vertex 0.00258569 0.0104444 0
    endloop
  endfacet
  facet normal 0 0 1
    outer loop
      vertex 0.00258569 0.0104444 0
      vertex 0.0108925 0.0135067 0
      vertex 0.00643748 0.0202929 0
    endloop
  endfacet
  facet normal 0 0 1
    outer loop
      vertex 0.0102895 0.00497348 0
      vertex 0.0108925 0.0135067 0
      vertex 0.00258569 0.0104444 0
    endloop
  endfacet
  facet normal 0 0 1
    outer loop
      vertex -0.0406982 0.0442861 0
      vertex -0.0338393 0.0419501 0
      vertex -0.0344254 0.0512159 0
    endloop
  endfacet
  facet normal 0 -0 1
    outer loop
      vertex -0.00615171 0.0118529 0
      vertex -0.00469473 0.00364543 0
      vertex 0.00258569 0.0104444 0
    endloop
  endfacet
  facet normal 0 0 1
    outer loop
      vertex -0.0478013 0.0450875 0
      vertex -0.0406982 0.0442861 0
      vertex -0.0427628 0.0522493 0
    endloop
  endfacet
  facet normal 0 0 1
    outer loop
      vertex -0.00615171 0.0118529 0
      vertex -0.00863093 0.019435 0
      vertex -0.0140069 0.0133785 0
    endloop
  endfacet
  facet normal 0 -0 1
    outer loop
      vertex -0.0140069 0.0133785 0
      vertex -0.0125656 0.00554143 0
      vertex -0.00615171 0.0118529 0
    endloop
  endfacet
  facet normal 0 -0 1
    outer loop
      vertex -0.0258737 -0.0232983 0
      vertex -0.0181425 -0.0245095 0
      vertex -0.0180905 -0.0166632 0
    endloop
  endfacet
  facet normal 0 0 1
    outer loop
      vertex -0.06 -0.03 0
      vertex -0.050875 -0.030811 0
      vertex -0.0538493 -0.0244059 0
    endloop
  endfacet
  facet normal 0 0 1
    outer loop
      vertex -0.0111207 -0.0105732 0
      vertex -0.00392487 -0.0130504 0
      vertex -0.00417105 -0.0048246 0
    endloop
  endfacet
  facet normal -0 0 1
    outer loop
      vertex 0.0100182 0.0288124 0
      vertex 0.00260589 0.0278734 0
      vertex 0.00643748 0.0202929 0
    endloop
  endfacet
  facet normal 0 0 1
    outer loop
      vertex 0.00557989 0.0361625 0
      vertex 0.00260589 0.0278734 0
      vertex 0.0100182 0.0288124 0
    endloop
  endfacet
  facet normal 0 0 1
    outer loop
      vertex 0.00295011 0.000616051 0
      vertex -0.00469473 0.00364543 0
      vertex -0.00417105 -0.0048246 0
    endloop
  endfacet
  facet normal -0 0 1
    outer loop
      vertex -0.00743883 0.0428415 0
      vertex -0.014991 0.037897 0
      vertex -0.00915674 0.0334466 0
    endloop
  endfacet
  facet normal 0 -0 1
    outer loop
      vertex 0.0100182 0.0288124 0
      vertex 0.0139385 0.0220192 0
      vertex 0.0178651 0.029191 0
    endloop
  endfacet
  facet normal 0 0 1
    outer loop
      vertex 0.00643748 0.0202929 0
      vertex 0.0139385 0.0220192 0
      vertex 0.0100182 0.0288124 0
    endloop
  endfacet
  facet normal 0 0 1
    outer loop
      vertex 0.0169629 -0.017037 0
      vertex 0.0239735 -0.0224497 0
      vertex 0.0239403 -0.0143692 0
    endloop
  endfacet
  facet normal 0 0 1
    outer loop
      vertex 0.0170332 -0.0249674 0
      vertex 0.0239735 -0.0224497 0
      vertex 0.0169629 -0.017037 0
    endloop
  endfacet
  facet normal 0 0 1
    outer loop
      vertex 0.0231441 0.043362 0
      vertex 0.0209061 0.036412 0
      vertex 0.0283457 0.0380994 0
    endloop
  endfacet
  facet normal 0 0 1
    outer loop
      vertex 0.0100664 -0.0202178 0
      vertex 0.0170332 -0.0249674 0
      vertex 0.0169629 -0.017037 0
    endloop
  endfacet
  facet normal 0 0 1
    outer loop
      vertex 0.0340339 0.0332178 0
      vertex 0.0355495 0.0411741 0
      vertex 0.0283457 0.0380994 0
    endloop
  endfacet
  facet normal 0 0 1
    outer loop
      vertex 0.0239403 -0.0143692 0
      vertex 0.0171962 -0.0087603 0
      vertex 0.0169629 -0.017037 0
    endloop
  endfacet
  facet normal -0 0 1
    outer loop
      vertex 0.0415083 0.035909 0
      vertex 0.0340339 0.0332178 0
      vertex 0.0396955 0.0293204 0
    endloop
  endfacet
  facet normal 0 0 1
    outer loop
      vertex 0.0371855 -0.0168156 0
      vertex 0.036434 -0.0233665 0
      vertex 0.0430198 -0.022795 0
    endloop
  endfacet
  facet normal 0 0 1
    outer loop
      vertex 0.0444185 -0.015763 0
      vertex 0.0380128 -0.00960829 0
      vertex 0.0371855 -0.0168156 0
    endloop
  endfacet
  facet normal -0 0 1
    outer loop
      vertex 0.045131 -0.00814398 0
      vertex 0.0380128 -0.00960829 0
      vertex 0.0444185 -0.015763 0
    endloop
  endfacet
  facet normal 0 -0 1
    outer loop
      vertex 0.0444185 -0.015763 0
      vertex 0.0505814 -0.0226276 0
      vertex 0.0520846 -0.0153281 0
    endloop
  endfacet
  facet normal 0 0 1
    outer loop
      vertex 0.0430198 -0.022795 0
      vertex 0.0505814 -0.0226276 0
      vertex 0.0444185 -0.015763 0
    endloop
  endfacet
  facet normal 0 0 1
    outer loop
      vertex 0.0344596 0.025077 0
      vertex 0.0421751 0.0228148 0
      vertex 0.0396955 0.0293204 0
    endloop
  endfacet
  facet normal 0 0 1
    outer loop
      vertex 0.0385566 -0.0440313 0
      vertex 0.030958 -0.036709 0
      vertex 0.0308777 -0.0447076 0
    endloop
  endfacet
  facet normal 0 -0 1
    outer loop
      vertex 0.0308777 -0.0447076 0
      vertex 0.0384103 -0.0520995 0
      vertex 0.0385566 -0.0440313 0
    endloop
  endfacet
  facet normal 0 0 1
    outer loop
      vertex 0.0305785 -0.052451 0
      vertex 0.0384103 -0.0520995 0
      vertex 0.0308777 -0.0447076 0
    endloop
  endfacet
  facet normal 0 0 1
    outer loop
      vertex 0.00722441 -0.0545311 0
      vertex 0 -0.06 0
      vertex 0.0075 -0.06 0
    endloop
  endfacet
  facet normal -0 0 1
    outer loop
      vertex 0.030958 -0.036709 0
      vertex 0.0237688 -0.0381794 0
      vertex 0.0308777 -0.0447076 0
    endloop
  endfacet
  facet normal 0 0 1
    outer loop
      vertex -0.0225 -0.06 0
      vertex -0.015 -0.06 0
      vertex -0.0151821 -0.0529641 0
    endloop
  endfacet
  facet normal 0 0 1
    outer loop
      vertex -0.0151821 -0.0529641 0
      vertex -0.0226298 -0.0510652 0
      vertex -0.0225 -0.06 0
    endloop
  endfacet
  facet normal 0 0 1
    outer loop
      vertex -0.00734036 -0.0543638 0
      vertex -0.0151821 -0.0529641 0
      vertex -0.015 -0.06 0
    endloop
  endfacet
  facet normal 0 -0 1
    outer loop
      vertex -0.0299327 -0.0476009 0
      vertex -0.0298709 -0.0542524 0
      vertex -0.0226298 -0.0510652 0
    endloop
  endfacet
  facet normal 0 0 1
    outer loop
      vertex -0.0378157 -0.0528066 0
      vertex -0.0298709 -0.0542524 0
      vertex -0.0299327 -0.0476009 0
    endloop
  endfacet
  facet normal 0 0 1
    outer loop
      vertex -0.0299327 -0.0476009 0
      vertex -0.0373514 -0.0451456 0
      vertex -0.0378157 -0.0528066 0
    endloop
  endfacet
  facet normal -0 0 1
    outer loop
      vertex -0.0292776 -0.0403438 0
      vertex -0.0373514 -0.0451456 0
      vertex -0.0299327 -0.0476009 0
    endloop
  endfacet
  facet normal 0 0 1
    outer loop
      vertex -0.0299327 -0.0476009 0
      vertex -0.0226092 -0.0437758 0
      vertex -0.0292776 -0.0403438 0
    endloop
  endfacet
  facet normal 0 0 1
    outer loop
      vertex -0.0226298 -0.0510652 0
      vertex -0.0226092 -0.0437758 0
      vertex -0.0299327 -0.0476009 0
    endloop
  endfacet
  facet normal 0 0 1
    outer loop
      vertex 8.49882e-05 -0.0437061 0
      vertex -0.00835452 -0.0408583 0
      vertex -0.00754614 -0.0478451 0
    endloop
  endfacet
  facet normal 0 0 1
    outer loop
      vertex 0.00770768 -0.0483128 0
      vertex 8.49882e-05 -0.0437061 0
      vertex -2.44266e-05 -0.0515057 0
    endloop
  endfacet
  facet normal 0 -0 1
    outer loop
      vertex -2.44266e-05 -0.0515057 0
      vertex 0.00722441 -0.0545311 0
      vertex 0.00770768 -0.0483128 0
    endloop
  endfacet
  facet normal 0 0 1
    outer loop
      vertex 0 -0.06 0
      vertex 0.00722441 -0.0545311 0
      vertex -2.44266e-05 -0.0515057 0
    endloop
  endfacet
  facet normal 0 0 1
    outer loop
      vertex -2.44266e-05 -0.0515057 0
      vertex -0.00754614 -0.0478451 0
      vertex -0.00734036 -0.0543638 0
    endloop
  endfacet
  facet normal 0 -0 1
    outer loop
      vertex -0.00754614 -0.0478451 0
      vertex -2.44266e-05 -0.0515057 0
      vertex 8.49882e-05 -0.0437061 0
    endloop
  endfacet
  facet normal 0 -0 1
    outer loop
      vertex -0.0217286 0.033854 0
      vertex -0.0161172 0.0295956 0
      vertex -0.014991 0.037897 0
    endloop
  endfacet
  facet normal 0 0 1
    outer loop
      vertex -0.00835452 -0.0408583 0
      vertex -0.00258483 -0.03592 0
      vertex -0.0096546 -0.0335994 0
    endloop
  endfacet
  facet normal -0 0 1
    outer loop
      vertex -0.0096546 -0.0335994 0
      vertex -0.0156343 -0.0387914 0
      vertex -0.00835452 -0.0408583 0
    endloop
  endfacet
  facet normal 0 -0 1
    outer loop
      vertex -0.0170488 -0.0317958 0
      vertex -0.0156343 -0.0387914 0
      vertex -0.0096546 -0.0335994 0
    endloop
  endfacet
  facet normal 0 0 1
    outer loop
      vertex -0.0537396 -0.000961814 0
      vertex -0.06 0 0
      vertex -0.06 -0.0075 0
    endloop
  endfacet
  facet normal 0 0 1
    outer loop
      vertex -0.00258483 -0.03592 0
      vertex -0.00338299 -0.0285218 0
      vertex -0.0096546 -0.0335994 0
    endloop
  endfacet
  facet normal 0 0 1
    outer loop
      vertex 0.0157746 -0.0467598 0
      vertex 0.00932158 -0.041862 0
      vertex 0.00770768 -0.0483128 0
    endloop
  endfacet
  facet normal 0 0 1
    outer loop
      vertex -0.0479651 0.0142334 0
      vertex -0.0517491 0.0209617 0
      vertex -0.0545175 0.0128798 0
    endloop
  endfacet
  facet normal 0 -0 1
    outer loop
      vertex 0.0102895 0.00497348 0
      vertex 0.0103612 -0.00368648 0
      vertex 0.0182855 0.000177816 0
    endloop
  endfacet
  facet normal 0 0 1
    outer loop
      vertex 0.0100916 -0.0121875 0
      vertex 0.0171962 -0.0087603 0
      vertex 0.0103612 -0.00368648 0
    endloop
  endfacet
  facet normal 0 0 1
    outer loop
      vertex 0.0228746 -0.0528592 0
      vertex 0.0233492 -0.0456319 0
      vertex 0.0157746 -0.0467598 0
    endloop
  endfacet
  facet normal 0 -0 1
    outer loop
      vertex 0.00770768 -0.0483128 0
      vertex 0.0151289 -0.053423 0
      vertex 0.0157746 -0.0467598 0
    endloop
  endfacet
  facet normal 0 0 1
    outer loop
      vertex 0.06 -0.0225 0
      vertex 0.06 -0.015 0
      vertex 0.0520846 -0.0153281 0
    endloop
  endfacet
  facet normal 0 0 1
    outer loop
      vertex 0.0520846 -0.0153281 0
      vertex 0.0505814 -0.0226276 0
      vertex 0.06 -0.0225 0
    endloop
  endfacet
  facet normal 0 0 1
    outer loop
      vertex 0.0525212 -0.00761312 0
      vertex 0.0520846 -0.0153281 0
      vertex 0.06 -0.015 0
    endloop
  endfacet
  facet normal 0 0 1
    outer loop
      vertex 0.0474466 -0.0291356 0
      vertex 0.0541718 -0.0299166 0
      vertex 0.0505814 -0.0226276 0
    endloop
  endfacet
  facet normal 0 0 1
    outer loop
      vertex 0.0522855 -0.0381968 0
      vertex 0.0541718 -0.0299166 0
      vertex 0.0474466 -0.0291356 0
    endloop
  endfacet
  facet normal -0 0 1
    outer loop
      vertex 0.0474466 -0.0291356 0
      vertex 0.0448955 -0.0351421 0
      vertex 0.0522855 -0.0381968 0
    endloop
  endfacet
  facet normal 0 -0 1
    outer loop
      vertex 0.0402479 -0.0292115 0
      vertex 0.0448955 -0.0351421 0
      vertex 0.0474466 -0.0291356 0
    endloop
  endfacet
  facet normal 0 0 1
    outer loop
      vertex 0.0474466 -0.0291356 0
      vertex 0.0430198 -0.022795 0
      vertex 0.0402479 -0.0292115 0
    endloop
  endfacet
  facet normal -0 0 1
    outer loop
      vertex 0.0505814 -0.0226276 0
      vertex 0.0430198 -0.022795 0
      vertex 0.0474466 -0.0291356 0
    endloop
  endfacet
  facet normal 0 0 1
    outer loop
      vertex 0.038748 -0.00164449 0
      vertex 0.0380128 -0.00960829 0
      vertex 0.045131 -0.00814398 0
    endloop
  endfacet
  facet normal 0 0 1
    outer loop
      vertex 0.0396225 0.00775126 0
      vertex 0.038748 -0.00164449 0
      vertex 0.0458743 -6.78438e-05 0
    endloop
  endfacet
  facet normal 0 0 1
    outer loop
      vertex 0.0458743 -6.78438e-05 0
      vertex 0.0477625 0.00783822 0
      vertex 0.0396225 0.00775126 0
    endloop
  endfacet
  facet normal 0 0 1
    outer loop
      vertex 0.0477625 0.00783822 0
      vertex 0.0458743 -6.78438e-05 0
      vertex 0.0530521 0.000179679 0
    endloop
  endfacet
  facet normal 0 0 1
    outer loop
      vertex 0.0458743 -6.78438e-05 0
      vertex 0.045131 -0.00814398 0
      vertex 0.0525212 -0.00761312 0
    endloop
  endfacet
  facet normal 0 0 1
    outer loop
      vertex 0.045131 -0.00814398 0
      vertex 0.0458743 -6.78438e-05 0
      vertex 0.038748 -0.00164449 0
    endloop
  endfacet
  facet normal 0 0 1
    outer loop
      vertex 0.00326571 -0.0239475 0
      vertex 0.0100664 -0.0202178 0
      vertex 0.00312981 -0.0162438 0
    endloop
  endfacet
  facet normal 0 0 1
    outer loop
      vertex 0.0380128 -0.00960829 0
      vertex 0.0319741 -0.00446345 0
      vertex 0.030952 -0.0118523 0
    endloop
  endfacet
  facet normal 0 -0 1
    outer loop
      vertex 0.030952 -0.0118523 0
      vertex 0.0371855 -0.0168156 0
      vertex 0.0380128 -0.00960829 0
    endloop
  endfacet
  facet normal 0 0 1
    outer loop
      vertex 0.0304652 -0.0193965 0
      vertex 0.0371855 -0.0168156 0
      vertex 0.030952 -0.0118523 0
    endloop
  endfacet
  facet normal 0 -0 1
    outer loop
      vertex -0.00392487 -0.0130504 0
      vertex -0.00374972 -0.0209498 0
      vertex 0.00312981 -0.0162438 0
    endloop
  endfacet
  facet normal -0 0 1
    outer loop
      vertex 0.0319741 -0.00446345 0
      vertex 0.0245886 -0.00676424 0
      vertex 0.030952 -0.0118523 0
    endloop
  endfacet
  facet normal 0 -0 1
    outer loop
      vertex 0.0313784 0.0114382 0
      vertex 0.0324917 0.00352707 0
      vertex 0.0396225 0.00775126 0
    endloop
  endfacet
  facet normal 0 0 1
    outer loop
      vertex 0.0249108 0.00662145 0
      vertex 0.0324917 0.00352707 0
      vertex 0.0313784 0.0114382 0
    endloop
  endfacet
  facet normal -0 0 1
    outer loop
      vertex 0.00433191 0.0518993 0
      vertex -0.00347813 0.0516543 0
      vertex 0.000804049 0.0437471 0
    endloop
  endfacet
  facet normal 0 0 1
    outer loop
      vertex -0.00743883 0.0428415 0
      vertex 0.000804049 0.0437471 0
      vertex -0.00347813 0.0516543 0
    endloop
  endfacet
  facet normal 0 0 1
    outer loop
      vertex 0.0313784 0.0114382 0
      vertex 0.0369556 0.0169241 0
      vertex 0.0292069 0.0197979 0
    endloop
  endfacet
  facet normal 0 0 1
    outer loop
      vertex 0.0396225 0.00775126 0
      vertex 0.0369556 0.0169241 0
      vertex 0.0313784 0.0114382 0
    endloop
  endfacet
  facet normal 0 0 1
    outer loop
      vertex -0.0147757 0.0454338 0
      vertex -0.011269 0.0522134 0
      vertex -0.0196237 0.0515681 0
    endloop
  endfacet
  facet normal 0 -0 1
    outer loop
      vertex -0.06 -0.0525 0
      vertex -0.053953 -0.0538548 0
      vertex -0.052389 -0.0469508 0
    endloop
  endfacet
  facet normal 0 0 1
    outer loop
      vertex -0.0147757 0.0454338 0
      vertex -0.00743883 0.0428415 0
      vertex -0.011269 0.0522134 0
    endloop
  endfacet
  facet normal 0 0 1
    outer loop
      vertex -0.06 0.0075 0
      vertex -0.0538981 0.00630958 0
      vertex -0.0545175 0.0128798 0
    endloop
  endfacet
  facet normal 0 0 1
    outer loop
      vertex -0.0518295 -0.039243 0
      vertex -0.052389 -0.0469508 0
      vertex -0.0446808 -0.0424656 0
    endloop
  endfacet
  facet normal 0 0 1
    outer loop
      vertex 0.0540542 -0.0537891 0
      vertex 0.0463572 -0.0511493 0
      vertex 0.0525 -0.06 0
    endloop
  endfacet
  facet normal 0 0 1
    outer loop
      vertex -0.052389 -0.0469508 0
      vertex -0.06 -0.045 0
      vertex -0.06 -0.0525 0
    endloop
  endfacet
  facet normal -0 0 1
    outer loop
      vertex 0.0100916 -0.0121875 0
      vertex 0.00312981 -0.0162438 0
      vertex 0.0100664 -0.0202178 0
    endloop
  endfacet
  facet normal -0 0 1
    outer loop
      vertex -0.047014 -0.0217932 0
      vertex -0.0538493 -0.0244059 0
      vertex -0.050875 -0.030811 0
    endloop
  endfacet
  facet normal 0 0 1
    outer loop
      vertex -0.0538493 -0.0244059 0
      vertex -0.047014 -0.0217932 0
      vertex -0.0521985 -0.0164125 0
    endloop
  endfacet
endsolid
