solid stl
  facet normal 0.379092 -0.285205 0.880311
    outer loop
      vertex 0.00867493 0.0550154 0.0281029
      vertex 0.00972174 0.0471457 0.0251024
      vertex 0.0152225 0.0534395 0.0247727
    endloop
  endfacet
  facet normal 0.33555 -0.935601 0.109799
    outer loop
      vertex 0.0138899 0.0336466 0.000379543
      vertex 0.0101382 0.0332168 0.00818282
      vertex 0.00568097 0.030822 0.00139808
    endloop
  endfacet
  facet normal -0.0811007 -0.9384 -0.3359
    outer loop
      vertex 0.0014217 0.0332796 -0.0130504
      vertex -0.000617983 0.0306166 -0.00511852
      vertex -0.00735769 0.03326 -0.010876
    endloop
  endfacet
  facet normal -0.0799676 -0.3689 0.926023
    outer loop
      vertex -0.00490934 0.0530162 0.0285959
      vertex -0.00464198 0.0453302 0.0255572
      vertex 0.0023375 0.0491397 0.0276775
    endloop
  endfacet
  facet normal 0.44543 -0.256526 -0.85778
    outer loop
      vertex 0.0121765 0.0482869 -0.0245466
      vertex 0.0129026 0.0566741 -0.0266778
      vertex 0.0169942 0.0524058 -0.0232767
    endloop
  endfacet
  facet normal 0.55048 -0.129498 -0.824744
    outer loop
      vertex 0.0169942 0.0524058 -0.0232767
      vertex 0.0129026 0.0566741 -0.0266778
      vertex 0.0187397 0.0590429 -0.0231538
    endloop
  endfacet
  facet normal 0.471094 -0.369777 0.800834
    outer loop
      vertex 0.00972174 0.0471457 0.0251024
      vertex 0.0166993 0.0469298 0.0208981
      vertex 0.0152225 0.0534395 0.0247727
    endloop
  endfacet
  facet normal -0.0160675 0.406979 0.913296
    outer loop
      vertex -0.00239691 0.0683137 0.0285501
      vertex 0.0040566 0.0718196 0.0271013
      vertex -0.00412336 0.0739802 0.0259946
    endloop
  endfacet
  facet normal -0.123517 0.846014 -0.518656
    outer loop
      vertex -0.00267061 0.0873141 -0.0115697
      vertex -0.00113053 0.0832659 -0.0185398
      vertex -0.00785778 0.0838999 -0.0159036
    endloop
  endfacet
  facet normal 0.606025 -0.300801 0.736378
    outer loop
      vertex 0.0152225 0.0534395 0.0247727
      vertex 0.0166993 0.0469298 0.0208981
      vertex 0.0211884 0.0535052 0.0198897
    endloop
  endfacet
  facet normal 0.682348 -0.369065 0.631025
    outer loop
      vertex 0.0222618 0.0476975 0.0153323
      vertex 0.0211884 0.0535052 0.0198897
      vertex 0.0166993 0.0469298 0.0208981
    endloop
  endfacet
  facet normal 0.642334 -0.335296 -0.68919
    outer loop
      vertex 0.0169942 0.0524058 -0.0232767
      vertex 0.0216197 0.0526882 -0.0191031
      vertex 0.0174445 0.046241 -0.0198578
    endloop
  endfacet
  facet normal 0.530532 -0.0739444 0.844434
    outer loop
      vertex 0.0152225 0.0534395 0.0247727
      vertex 0.0190146 0.0593197 0.0229052
      vertex 0.0138717 0.0615085 0.026328
    endloop
  endfacet
  facet normal -0.021708 -0.715487 -0.698289
    outer loop
      vertex -0.00452314 0.0370721 -0.0184348
      vertex -0.00109242 0.0425377 -0.0241416
      vertex 0.00386825 0.0380795 -0.0197279
    endloop
  endfacet
  facet normal 0.203638 -0.0345547 0.978436
    outer loop
      vertex 0.00156569 0.0571349 0.0296573
      vertex 0.00867493 0.0550154 0.0281029
      vertex 0.00759661 0.0634678 0.0286258
    endloop
  endfacet
  facet normal -0.175147 -0.799947 0.573941
    outer loop
      vertex -0.00582728 0.0393208 0.0206024
      vertex -0.00799151 0.0350823 0.0140345
      vertex -0.000795169 0.0351978 0.0163915
    endloop
  endfacet
  facet normal 0.732124 -0.680702 -0.0252919
    outer loop
      vertex 0.0242728 0.0429484 -0.00217588
      vertex 0.0206378 0.0388413 0.00313994
      vertex 0.019491 0.0378483 -0.00333056
    endloop
  endfacet
  facet normal 0.803582 -0.489119 -0.339145
    outer loop
      vertex 0.0215174 0.0415392 -0.00891268
      vertex 0.0223819 0.0466853 -0.014286
      vertex 0.0264929 0.0485349 -0.00721278
    endloop
  endfacet
  facet normal 0.141993 0.0259574 0.989527
    outer loop
      vertex 0.00759661 0.0634678 0.0286258
      vertex 0.00124642 0.0640937 0.0295206
      vertex 0.00156569 0.0571349 0.0296573
    endloop
  endfacet
  facet normal -0.0532065 -0.46056 -0.886033
    outer loop
      vertex -0.00109242 0.0425377 -0.0241416
      vertex -0.00446328 0.049462 -0.0275385
      vertex 0.00179263 0.0486247 -0.0274789
    endloop
  endfacet
  facet normal 0.776213 -0.62887 0.0449021
    outer loop
      vertex 0.0206378 0.0388413 0.00313994
      vertex 0.0242728 0.0429484 -0.00217588
      vertex 0.0247756 0.0440332 0.0043256
    endloop
  endfacet
  facet normal 0.742449 -0.638207 0.203621
    outer loop
      vertex 0.0218981 0.0424502 0.00985609
      vertex 0.0206378 0.0388413 0.00313994
      vertex 0.0247756 0.0440332 0.0043256
    endloop
  endfacet
  facet normal 0.0718614 -0.984044 0.162768
    outer loop
      vertex 0.00568097 0.030822 0.00139808
      vertex 0.00306873 0.0319549 0.00940056
      vertex -0.00221019 0.0305166 0.00303554
    endloop
  endfacet
  facet normal -0.783965 -0.502745 -0.364207
    outer loop
      vertex -0.0203557 0.0415474 -0.0113203
      vertex -0.0257057 0.0465685 -0.00673538
      vertex -0.0240932 0.0489293 -0.013465
    endloop
  endfacet
  facet normal 0.819537 -0.497734 0.283938
    outer loop
      vertex 0.0218981 0.0424502 0.00985609
      vertex 0.0247756 0.0440332 0.0043256
      vertex 0.0261615 0.0489536 0.0089509
    endloop
  endfacet
  facet normal -0.265781 -0.767749 0.583028
    outer loop
      vertex -0.00582728 0.0393208 0.0206024
      vertex -0.012481 0.0390184 0.0171711
      vertex -0.00799151 0.0350823 0.0140345
    endloop
  endfacet
  facet normal -0.328207 -0.641906 0.692991
    outer loop
      vertex -0.0124828 0.0441415 0.0219157
      vertex -0.012481 0.0390184 0.0171711
      vertex -0.00582728 0.0393208 0.0206024
    endloop
  endfacet
  facet normal -0.16547 -0.498112 -0.851178
    outer loop
      vertex -0.00446328 0.049462 -0.0275385
      vertex -0.00109242 0.0425377 -0.0241416
      vertex -0.00848301 0.0432095 -0.023098
    endloop
  endfacet
  facet normal 0.386303 -0.258431 -0.885428
    outer loop
      vertex 0.0121765 0.0482869 -0.0245466
      vertex 0.00720178 0.0525501 -0.0279614
      vertex 0.0129026 0.0566741 -0.0266778
    endloop
  endfacet
  facet normal 0.291011 -0.106358 -0.95079
    outer loop
      vertex 0.00720178 0.0525501 -0.0279614
      vertex 0.00701633 0.0612114 -0.028987
      vertex 0.0129026 0.0566741 -0.0266778
    endloop
  endfacet
  facet normal -0.16348 -0.661553 -0.731862
    outer loop
      vertex -0.00452314 0.0370721 -0.0184348
      vertex -0.00848301 0.0432095 -0.023098
      vertex -0.00109242 0.0425377 -0.0241416
    endloop
  endfacet
  facet normal -0.420727 -0.595991 -0.683947
    outer loop
      vertex -0.0132618 0.0386785 -0.0162101
      vertex -0.0150066 0.0462933 -0.0217723
      vertex -0.00848301 0.0432095 -0.023098
    endloop
  endfacet
  facet normal -0.175671 -0.963807 0.200538
    outer loop
      vertex -0.00911967 0.0324663 0.00635344
      vertex -0.00221019 0.0305166 0.00303554
      vertex -0.00348571 0.0322216 0.0101126
    endloop
  endfacet
  facet normal -0.0282278 -0.279197 -0.959819
    outer loop
      vertex -0.00446328 0.049462 -0.0275385
      vertex 0.00076503 0.0558419 -0.029548
      vertex 0.00179263 0.0486247 -0.0274789
    endloop
  endfacet
  facet normal -0.972261 -0.0236609 -0.232701
    outer loop
      vertex -0.0279165 0.0544017 -0.00890008
      vertex -0.029643 0.060777 -0.00233472
      vertex -0.0275616 0.0621344 -0.0111693
    endloop
  endfacet
  facet normal -0.233904 0.880027 -0.41333
    outer loop
      vertex -0.00785778 0.0838999 -0.0159036
      vertex -0.00957689 0.086735 -0.00889436
      vertex -0.00267061 0.0873141 -0.0115697
    endloop
  endfacet
  facet normal 0.207673 0.975051 -0.078411
    outer loop
      vertex 0.00401563 0.088583 -0.0072298
      vertex 0.00348151 0.0894466 0.00209377
      vertex 0.0109259 0.0873589 -0.00415023
    endloop
  endfacet
  facet normal 0.940319 -0.325591 -0.0989487
    outer loop
      vertex 0.0264929 0.0485349 -0.00721278
      vertex 0.0292216 0.0548546 -0.00207651
      vertex 0.0275731 0.0490682 0.00129762
    endloop
  endfacet
  facet normal 0.535627 -0.833536 -0.135358
    outer loop
      vertex 0.0150208 0.035802 -0.00841878
      vertex 0.019491 0.0378483 -0.00333056
      vertex 0.0138899 0.0336466 0.000379543
    endloop
  endfacet
  facet normal 0.152968 -0.981288 -0.116941
    outer loop
      vertex -0.000617983 0.0306166 -0.00511852
      vertex 0.0077726 0.0321185 -0.00674507
      vertex 0.00568097 0.030822 0.00139808
    endloop
  endfacet
  facet normal -0.235457 -0.968677 0.0788961
    outer loop
      vertex -0.00911967 0.0324663 0.00635344
      vertex -0.00868134 0.0316617 -0.0022175
      vertex -0.00221019 0.0305166 0.00303554
    endloop
  endfacet
  facet normal 0.183608 -0.111718 -0.97663
    outer loop
      vertex 0.00720178 0.0525501 -0.0279614
      vertex 0.00076503 0.0558419 -0.029548
      vertex 0.00701633 0.0612114 -0.028987
    endloop
  endfacet
  facet normal 0.0784558 0.0128146 -0.996835
    outer loop
      vertex 0.00701633 0.0612114 -0.028987
      vertex 0.00076503 0.0558419 -0.029548
      vertex -0.000606582 0.0642349 -0.0295481
    endloop
  endfacet
  facet normal -0.357308 -0.931422 0.069167
    outer loop
      vertex -0.0149465 0.0344181 0.00253699
      vertex -0.00868134 0.0316617 -0.0022175
      vertex -0.00911967 0.0324663 0.00635344
    endloop
  endfacet
  facet normal 0.940091 -0.29611 0.168964
    outer loop
      vertex 0.0275731 0.0490682 0.00129762
      vertex 0.0288634 0.0560031 0.00627227
      vertex 0.0261615 0.0489536 0.0089509
    endloop
  endfacet
  facet normal 0.0783847 0.815581 -0.573309
    outer loop
      vertex 0.00342066 0.0860153 -0.0140063
      vertex 0.00542165 0.0824442 -0.0188128
      vertex -0.00113053 0.0832659 -0.0185398
    endloop
  endfacet
  facet normal 0.915288 -0.223465 0.33513
    outer loop
      vertex 0.0288634 0.0560031 0.00627227
      vertex 0.0257678 0.0547887 0.013917
      vertex 0.0261615 0.0489536 0.0089509
    endloop
  endfacet
  facet normal 0.391065 0.0393575 -0.919521
    outer loop
      vertex 0.0129026 0.0566741 -0.0266778
      vertex 0.00701633 0.0612114 -0.028987
      vertex 0.0138081 0.0648257 -0.0259438
    endloop
  endfacet
  facet normal 0.628634 -0.733971 -0.25711
    outer loop
      vertex 0.0215174 0.0415392 -0.00891268
      vertex 0.019491 0.0378483 -0.00333056
      vertex 0.0150208 0.035802 -0.00841878
    endloop
  endfacet
  facet normal 0.666511 -0.161809 -0.727723
    outer loop
      vertex 0.0169942 0.0524058 -0.0232767
      vertex 0.0187397 0.0590429 -0.0231538
      vertex 0.0216197 0.0526882 -0.0191031
    endloop
  endfacet
  facet normal 0.626127 -0.161518 0.762809
    outer loop
      vertex 0.0152225 0.0534395 0.0247727
      vertex 0.0211884 0.0535052 0.0198897
      vertex 0.0190146 0.0593197 0.0229052
    endloop
  endfacet
  facet normal -0.22353 -0.365084 0.903741
    outer loop
      vertex -0.00490934 0.0530162 0.0285959
      vertex -0.0108113 0.0497397 0.0258126
      vertex -0.00464198 0.0453302 0.0255572
    endloop
  endfacet
  facet normal -0.268893 -0.580591 0.768512
    outer loop
      vertex -0.00464198 0.0453302 0.0255572
      vertex -0.0124828 0.0441415 0.0219157
      vertex -0.00582728 0.0393208 0.0206024
    endloop
  endfacet
  facet normal -0.367288 -0.903017 -0.222845
    outer loop
      vertex -0.00868134 0.0316617 -0.0022175
      vertex -0.0154155 0.0355552 -0.00689584
      vertex -0.00735769 0.03326 -0.010876
    endloop
  endfacet
  facet normal 0.0693962 -0.504678 -0.860514
    outer loop
      vertex -0.00109242 0.0425377 -0.0241416
      vertex 0.00179263 0.0486247 -0.0274789
      vertex 0.0061758 0.0443512 -0.0246191
    endloop
  endfacet
  facet normal -0.420344 -0.826539 -0.374358
    outer loop
      vertex -0.00735769 0.03326 -0.010876
      vertex -0.0154155 0.0355552 -0.00689584
      vertex -0.0132618 0.0386785 -0.0162101
    endloop
  endfacet
  facet normal 0.339732 -0.0148396 0.940405
    outer loop
      vertex 0.00759661 0.0634678 0.0286258
      vertex 0.00867493 0.0550154 0.0281029
      vertex 0.0138717 0.0615085 0.026328
    endloop
  endfacet
  facet normal 0.617274 -0.688901 0.379984
    outer loop
      vertex 0.0218981 0.0424502 0.00985609
      vertex 0.0175638 0.0416531 0.0154519
      vertex 0.0166406 0.0370137 0.00854037
    endloop
  endfacet
  facet normal 0.948055 -0.257097 -0.187332
    outer loop
      vertex 0.0292216 0.0548546 -0.00207651
      vertex 0.0264929 0.0485349 -0.00721278
      vertex 0.0282494 0.0558621 -0.00837949
    endloop
  endfacet
  facet normal -0.308766 -0.479567 0.821388
    outer loop
      vertex -0.0108113 0.0497397 0.0258126
      vertex -0.0124828 0.0441415 0.0219157
      vertex -0.00464198 0.0453302 0.0255572
    endloop
  endfacet
  facet normal 0.992107 -0.11124 0.0578743
    outer loop
      vertex 0.0292216 0.0548546 -0.00207651
      vertex 0.0297356 0.0607888 0.000518415
      vertex 0.0288634 0.0560031 0.00627227
    endloop
  endfacet
  facet normal -0.526563 -0.577754 0.623644
    outer loop
      vertex -0.0124828 0.0441415 0.0219157
      vertex -0.0188868 0.0432237 0.0156583
      vertex -0.012481 0.0390184 0.0171711
    endloop
  endfacet
  facet normal -0.58086 -0.4714 0.663613
    outer loop
      vertex -0.0179919 0.0511358 0.022062
      vertex -0.0188868 0.0432237 0.0156583
      vertex -0.0124828 0.0441415 0.0219157
    endloop
  endfacet
  facet normal 0.928246 -0.0815026 0.362928
    outer loop
      vertex 0.0288634 0.0560031 0.00627227
      vertex 0.0270953 0.0621226 0.0121687
      vertex 0.0257678 0.0547887 0.013917
    endloop
  endfacet
  facet normal -0.294995 -0.691415 -0.659487
    outer loop
      vertex -0.00848301 0.0432095 -0.023098
      vertex -0.00452314 0.0370721 -0.0184348
      vertex -0.0132618 0.0386785 -0.0162101
    endloop
  endfacet
  facet normal -0.437369 -0.871429 0.222083
    outer loop
      vertex -0.0146478 0.0363529 0.0107168
      vertex -0.0149465 0.0344181 0.00253699
      vertex -0.00911967 0.0324663 0.00635344
    endloop
  endfacet
  facet normal 0.108458 -0.635854 -0.764151
    outer loop
      vertex -0.00109242 0.0425377 -0.0241416
      vertex 0.0061758 0.0443512 -0.0246191
      vertex 0.00386825 0.0380795 -0.0197279
    endloop
  endfacet
  facet normal 0.986532 0.156724 0.0468131
    outer loop
      vertex 0.0297356 0.0607888 0.000518415
      vertex 0.0287792 0.067418 -0.00151958
      vertex 0.0289719 0.0640768 0.00560409
    endloop
  endfacet
  facet normal 0.988821 -0.000959199 0.149102
    outer loop
      vertex 0.0288634 0.0560031 0.00627227
      vertex 0.0297356 0.0607888 0.000518415
      vertex 0.0289719 0.0640768 0.00560409
    endloop
  endfacet
  facet normal -0.375358 -0.444351 -0.813424
    outer loop
      vertex -0.0109146 0.0510678 -0.0262687
      vertex -0.00848301 0.0432095 -0.023098
      vertex -0.0150066 0.0462933 -0.0217723
    endloop
  endfacet
  facet normal -0.276477 -0.431934 -0.858483
    outer loop
      vertex -0.0109146 0.0510678 -0.0262687
      vertex -0.00446328 0.049462 -0.0275385
      vertex -0.00848301 0.0432095 -0.023098
    endloop
  endfacet
  facet normal -0.0180768 0.86285 -0.505137
    outer loop
      vertex -0.00113053 0.0832659 -0.0185398
      vertex -0.00267061 0.0873141 -0.0115697
      vertex 0.00342066 0.0860153 -0.0140063
    endloop
  endfacet
  facet normal -0.569943 -0.794717 0.208779
    outer loop
      vertex -0.0203647 0.0395074 0.00711814
      vertex -0.0149465 0.0344181 0.00253699
      vertex -0.0146478 0.0363529 0.0107168
    endloop
  endfacet
  facet normal -0.618701 -0.77494 0.129141
    outer loop
      vertex -0.0149465 0.0344181 0.00253699
      vertex -0.0203647 0.0395074 0.00711814
      vertex -0.0200305 0.0380596 3.14836e-05
    endloop
  endfacet
  facet normal -0.116303 -0.210435 -0.970665
    outer loop
      vertex -0.00446328 0.049462 -0.0275385
      vertex -0.00649497 0.0575935 -0.0290579
      vertex 0.00076503 0.0558419 -0.029548
    endloop
  endfacet
  facet normal 0.715931 -0.114543 -0.688711
    outer loop
      vertex 0.0216197 0.0526882 -0.0191031
      vertex 0.0187397 0.0590429 -0.0231538
      vertex 0.0236814 0.0597163 -0.0181288
    endloop
  endfacet
  facet normal 0.692277 0.100717 0.714569
    outer loop
      vertex 0.0190146 0.0593197 0.0229052
      vertex 0.0234362 0.0614015 0.0183281
      vertex 0.0186784 0.0668126 0.0221747
    endloop
  endfacet
  facet normal 0.431726 -0.100499 0.896389
    outer loop
      vertex 0.0138717 0.0615085 0.026328
      vertex 0.00867493 0.0550154 0.0281029
      vertex 0.0152225 0.0534395 0.0247727
    endloop
  endfacet
  facet normal -0.557085 -0.827326 -0.0720272
    outer loop
      vertex -0.0200305 0.0380596 3.14836e-05
      vertex -0.0154155 0.0355552 -0.00689584
      vertex -0.0149465 0.0344181 0.00253699
    endloop
  endfacet
  facet normal 0.418172 -0.723328 -0.549481
    outer loop
      vertex 0.00959047 0.0358449 -0.0143084
      vertex 0.0113627 0.0413664 -0.0202282
      vertex 0.0167653 0.0403879 -0.0148285
    endloop
  endfacet
  facet normal -0.624471 -0.768743 -0.138099
    outer loop
      vertex -0.0200305 0.0380596 3.14836e-05
      vertex -0.0220686 0.0406293 -0.0050566
      vertex -0.0154155 0.0355552 -0.00689584
    endloop
  endfacet
  facet normal 0.387636 0.181556 0.903756
    outer loop
      vertex 0.00759661 0.0634678 0.0286258
      vertex 0.0138717 0.0615085 0.026328
      vertex 0.0120201 0.0699048 0.0254354
    endloop
  endfacet
  facet normal -0.629926 -0.724991 -0.278535
    outer loop
      vertex -0.0203557 0.0415474 -0.0113203
      vertex -0.0154155 0.0355552 -0.00689584
      vertex -0.0220686 0.0406293 -0.0050566
    endloop
  endfacet
  facet normal 0.897702 -0.270569 -0.347742
    outer loop
      vertex 0.0282494 0.0558621 -0.00837949
      vertex 0.0264929 0.0485349 -0.00721278
      vertex 0.0255356 0.0537082 -0.0137091
    endloop
  endfacet
  facet normal 0.903357 -0.117511 -0.412477
    outer loop
      vertex 0.0272018 0.061257 -0.0122107
      vertex 0.0282494 0.0558621 -0.00837949
      vertex 0.0255356 0.0537082 -0.0137091
    endloop
  endfacet
  facet normal 0.513007 -0.592888 -0.620731
    outer loop
      vertex 0.0174445 0.046241 -0.0198578
      vertex 0.0167653 0.0403879 -0.0148285
      vertex 0.0113627 0.0413664 -0.0202282
    endloop
  endfacet
  facet normal 0.955437 -0.0234479 -0.294261
    outer loop
      vertex 0.0291966 0.0619971 -0.00579282
      vertex 0.0282494 0.0558621 -0.00837949
      vertex 0.0272018 0.061257 -0.0122107
    endloop
  endfacet
  facet normal 0.581508 0.104736 0.80677
    outer loop
      vertex 0.0190146 0.0593197 0.0229052
      vertex 0.0186784 0.0668126 0.0221747
      vertex 0.0138717 0.0615085 0.026328
    endloop
  endfacet
  facet normal -0.265021 -0.112543 0.957652
    outer loop
      vertex -0.00490934 0.0530162 0.0285959
      vertex -0.00576083 0.0611717 0.0293187
      vertex -0.0122029 0.0566226 0.0270013
    endloop
  endfacet
  facet normal -0.484335 -0.39779 0.779219
    outer loop
      vertex -0.0108113 0.0497397 0.0258126
      vertex -0.0179919 0.0511358 0.022062
      vertex -0.0124828 0.0441415 0.0219157
    endloop
  endfacet
  facet normal -0.892758 0.44812 0.0466001
    outer loop
      vertex -0.0246591 0.0759762 0.00481924
      vertex -0.0254072 0.075237 -0.00240455
      vertex -0.0282475 0.0691498 0.00171733
    endloop
  endfacet
  facet normal 0.332343 -0.748112 0.574349
    outer loop
      vertex 0.0127313 0.0370949 0.0140583
      vertex 0.0111575 0.0410295 0.0200939
      vertex 0.00644812 0.0357597 0.0159549
    endloop
  endfacet
  facet normal 0.933989 0.17652 -0.310654
    outer loop
      vertex 0.0272018 0.061257 -0.0122107
      vertex 0.0266932 0.0695793 -0.00901101
      vertex 0.0291966 0.0619971 -0.00579282
    endloop
  endfacet
  facet normal 0.158729 0.242001 0.957205
    outer loop
      vertex 0.00124642 0.0640937 0.0295206
      vertex 0.00759661 0.0634678 0.0286258
      vertex 0.0040566 0.0718196 0.0271013
    endloop
  endfacet
  facet normal 0.952625 0.230118 -0.198873
    outer loop
      vertex 0.0291966 0.0619971 -0.00579282
      vertex 0.0266932 0.0695793 -0.00901101
      vertex 0.0287792 0.067418 -0.00151958
    endloop
  endfacet
  facet normal -0.775859 -0.558218 -0.293998
    outer loop
      vertex -0.0220686 0.0406293 -0.0050566
      vertex -0.0257057 0.0465685 -0.00673538
      vertex -0.0203557 0.0415474 -0.0113203
    endloop
  endfacet
  facet normal -0.0285512 -0.731079 0.681695
    outer loop
      vertex -0.00582728 0.0393208 0.0206024
      vertex -0.000795169 0.0351978 0.0163915
      vertex 0.00279617 0.0410287 0.0227953
    endloop
  endfacet
  facet normal 0.969382 0.231361 0.0822846
    outer loop
      vertex 0.0287792 0.067418 -0.00151958
      vertex 0.027621 0.0702948 0.00403572
      vertex 0.0289719 0.0640768 0.00560409
    endloop
  endfacet
  facet normal 0.938841 0.260713 0.224957
    outer loop
      vertex 0.0289719 0.0640768 0.00560409
      vertex 0.027621 0.0702948 0.00403572
      vertex 0.026777 0.0684911 0.00964844
    endloop
  endfacet
  facet normal -0.595606 -0.352044 -0.722024
    outer loop
      vertex -0.0150066 0.0462933 -0.0217723
      vertex -0.020752 0.0511238 -0.0193881
      vertex -0.0164587 0.0529435 -0.0238169
    endloop
  endfacet
  facet normal -0.622825 -0.412746 -0.664628
    outer loop
      vertex -0.0192186 0.0448141 -0.0169066
      vertex -0.020752 0.0511238 -0.0193881
      vertex -0.0150066 0.0462933 -0.0217723
    endloop
  endfacet
  facet normal -0.728851 -0.396617 -0.558096
    outer loop
      vertex -0.0240932 0.0489293 -0.013465
      vertex -0.020752 0.0511238 -0.0193881
      vertex -0.0192186 0.0448141 -0.0169066
    endloop
  endfacet
  facet normal 0.510568 0.0206861 -0.859589
    outer loop
      vertex 0.0138081 0.0648257 -0.0259438
      vertex 0.0187397 0.0590429 -0.0231538
      vertex 0.0129026 0.0566741 -0.0266778
    endloop
  endfacet
  facet normal 0.834306 0.189273 0.517793
    outer loop
      vertex 0.0234362 0.0614015 0.0183281
      vertex 0.0270953 0.0621226 0.0121687
      vertex 0.0229883 0.0701308 0.0158588
    endloop
  endfacet
  facet normal -0.676 -0.415891 0.608324
    outer loop
      vertex -0.0179919 0.0511358 0.022062
      vertex -0.0234137 0.0504535 0.0155706
      vertex -0.0188868 0.0432237 0.0156583
    endloop
  endfacet
  facet normal 0.706309 0.0719423 -0.704239
    outer loop
      vertex 0.0236814 0.0597163 -0.0181288
      vertex 0.0187397 0.0590429 -0.0231538
      vertex 0.0200729 0.0661328 -0.0210924
    endloop
  endfacet
  facet normal 0.923597 0.383319 -0.00595118
    outer loop
      vertex 0.0287792 0.067418 -0.00151958
      vertex 0.0256795 0.0748903 -0.00128297
      vertex 0.027621 0.0702948 0.00403572
    endloop
  endfacet
  facet normal 0.152107 0.204025 -0.967077
    outer loop
      vertex 0.00701633 0.0612114 -0.028987
      vertex -0.000606582 0.0642349 -0.0295481
      vertex 0.00682233 0.0706236 -0.0270318
    endloop
  endfacet
  facet normal -0.354622 -0.154005 -0.92224
    outer loop
      vertex -0.0109146 0.0510678 -0.0262687
      vertex -0.0135301 0.0587415 -0.0265444
      vertex -0.00649497 0.0575935 -0.0290579
    endloop
  endfacet
  facet normal 0.85756 0.500362 0.119282
    outer loop
      vertex 0.027621 0.0702948 0.00403572
      vertex 0.0256795 0.0748903 -0.00128297
      vertex 0.0244894 0.0746793 0.00815829
    endloop
  endfacet
  facet normal 0.548104 0.722486 0.421421
    outer loop
      vertex 0.0155108 0.08386 0.00852741
      vertex 0.0126793 0.0816497 0.0159994
      vertex 0.0195908 0.0781944 0.012934
    endloop
  endfacet
  facet normal 0.856975 0.226094 0.463115
    outer loop
      vertex 0.026777 0.0684911 0.00964844
      vertex 0.0229883 0.0701308 0.0158588
      vertex 0.0270953 0.0621226 0.0121687
    endloop
  endfacet
  facet normal 0.591999 0.120377 -0.796898
    outer loop
      vertex 0.0187397 0.0590429 -0.0231538
      vertex 0.0138081 0.0648257 -0.0259438
      vertex 0.0200729 0.0661328 -0.0210924
    endloop
  endfacet
  facet normal -0.792025 -0.582506 0.182713
    outer loop
      vertex -0.0241564 0.0454084 0.00949458
      vertex -0.0248942 0.0437724 0.0010807
      vertex -0.0203647 0.0395074 0.00711814
    endloop
  endfacet
  facet normal 0.490491 0.854418 0.171431
    outer loop
      vertex 0.0168024 0.0847729 0.000281912
      vertex 0.0111312 0.0873704 0.00356203
      vertex 0.0155108 0.08386 0.00852741
    endloop
  endfacet
  facet normal -0.748698 -0.655534 0.0986177
    outer loop
      vertex -0.0248942 0.0437724 0.0010807
      vertex -0.0200305 0.0380596 3.14836e-05
      vertex -0.0203647 0.0395074 0.00711814
    endloop
  endfacet
  facet normal -0.836872 -0.185251 0.515099
    outer loop
      vertex -0.0231563 0.0574545 0.0185066
      vertex -0.0271266 0.0574221 0.0120446
      vertex -0.0234137 0.0504535 0.0155706
    endloop
  endfacet
  facet normal -0.763121 -0.645929 -0.0205352
    outer loop
      vertex -0.0220686 0.0406293 -0.0050566
      vertex -0.0200305 0.0380596 3.14836e-05
      vertex -0.0248942 0.0437724 0.0010807
    endloop
  endfacet
  facet normal 0.504411 0.200515 0.839859
    outer loop
      vertex 0.0138717 0.0615085 0.026328
      vertex 0.0186784 0.0668126 0.0221747
      vertex 0.0120201 0.0699048 0.0254354
    endloop
  endfacet
  facet normal 0.540606 0.364598 0.758165
    outer loop
      vertex 0.0120201 0.0699048 0.0254354
      vertex 0.0186784 0.0668126 0.0221747
      vertex 0.0165093 0.074691 0.0199327
    endloop
  endfacet
  facet normal 0.767223 0.142654 -0.625314
    outer loop
      vertex 0.0236814 0.0597163 -0.0181288
      vertex 0.0200729 0.0661328 -0.0210924
      vertex 0.0244819 0.0661576 -0.0156771
    endloop
  endfacet
  facet normal 0.657421 0.357188 -0.663487
    outer loop
      vertex 0.0200729 0.0661328 -0.0210924
      vertex 0.0155332 0.0723705 -0.0222325
      vertex 0.0216632 0.0725323 -0.0160714
    endloop
  endfacet
  facet normal -0.449039 -0.184462 -0.874264
    outer loop
      vertex -0.0164587 0.0529435 -0.0238169
      vertex -0.0135301 0.0587415 -0.0265444
      vertex -0.0109146 0.0510678 -0.0262687
    endloop
  endfacet
  facet normal 0.890916 0.209398 -0.403014
    outer loop
      vertex 0.0244819 0.0661576 -0.0156771
      vertex 0.0266932 0.0695793 -0.00901101
      vertex 0.0272018 0.061257 -0.0122107
    endloop
  endfacet
  facet normal -0.855046 -0.489818 0.170217
    outer loop
      vertex -0.0273806 0.0492943 0.00448068
      vertex -0.0248942 0.0437724 0.0010807
      vertex -0.0241564 0.0454084 0.00949458
    endloop
  endfacet
  facet normal -0.911246 -0.411855 0.00249875
    outer loop
      vertex -0.0248942 0.0437724 0.0010807
      vertex -0.0273806 0.0492943 0.00448068
      vertex -0.0285139 0.0517637 -0.00177153
    endloop
  endfacet
  facet normal -0.244012 -0.236697 -0.940443
    outer loop
      vertex -0.00649497 0.0575935 -0.0290579
      vertex -0.00446328 0.049462 -0.0275385
      vertex -0.0109146 0.0510678 -0.0262687
    endloop
  endfacet
  facet normal -0.331087 0.0355256 -0.942931
    outer loop
      vertex -0.0135301 0.0587415 -0.0265444
      vertex -0.00896337 0.0655379 -0.0278919
      vertex -0.00649497 0.0575935 -0.0290579
    endloop
  endfacet
  facet normal 0.856151 0.471388 -0.211658
    outer loop
      vertex 0.0256795 0.0748903 -0.00128297
      vertex 0.0266932 0.0695793 -0.00901101
      vertex 0.0225071 0.0770201 -0.00937219
    endloop
  endfacet
  facet normal 0.79691 0.582771 -0.159099
    outer loop
      vertex 0.0225071 0.0770201 -0.00937219
      vertex 0.021277 0.0804772 -0.00286998
      vertex 0.0256795 0.0748903 -0.00128297
    endloop
  endfacet
  facet normal 0.741402 0.290405 -0.604969
    outer loop
      vertex 0.0216632 0.0725323 -0.0160714
      vertex 0.0244819 0.0661576 -0.0156771
      vertex 0.0200729 0.0661328 -0.0210924
    endloop
  endfacet
  facet normal 0.809077 0.436053 -0.394021
    outer loop
      vertex 0.0216632 0.0725323 -0.0160714
      vertex 0.0225071 0.0770201 -0.00937219
      vertex 0.0266932 0.0695793 -0.00901101
    endloop
  endfacet
  facet normal -0.901024 -0.42958 -0.0601338
    outer loop
      vertex -0.0257057 0.0465685 -0.00673538
      vertex -0.0248942 0.0437724 0.0010807
      vertex -0.0285139 0.0517637 -0.00177153
    endloop
  endfacet
  facet normal -0.928598 -0.315899 -0.194712
    outer loop
      vertex -0.0257057 0.0465685 -0.00673538
      vertex -0.0285139 0.0517637 -0.00177153
      vertex -0.0279165 0.0544017 -0.00890008
    endloop
  endfacet
  facet normal -0.0998563 -0.0981785 0.990146
    outer loop
      vertex 0.00156569 0.0571349 0.0296573
      vertex -0.00576083 0.0611717 0.0293187
      vertex -0.00490934 0.0530162 0.0285959
    endloop
  endfacet
  facet normal 0.687563 0.68698 -0.235192
    outer loop
      vertex 0.021277 0.0804772 -0.00286998
      vertex 0.0225071 0.0770201 -0.00937219
      vertex 0.0169222 0.083058 -0.00806247
    endloop
  endfacet
  facet normal -0.312007 -0.222608 0.923633
    outer loop
      vertex -0.0122029 0.0566226 0.0270013
      vertex -0.0108113 0.0497397 0.0258126
      vertex -0.00490934 0.0530162 0.0285959
    endloop
  endfacet
  facet normal 0.142422 0.893665 0.425533
    outer loop
      vertex 0.00800707 0.0866698 0.0103626
      vertex -0.000117081 0.0877857 0.0107381
      vertex 0.0047178 0.0838319 0.0174234
    endloop
  endfacet
  facet normal 0.783096 0.621689 0.0162317
    outer loop
      vertex 0.0256795 0.0748903 -0.00128297
      vertex 0.021277 0.0804772 -0.00286998
      vertex 0.0213015 0.0802505 0.00463006
    endloop
  endfacet
  facet normal -0.485795 -0.243223 0.839551
    outer loop
      vertex -0.0122029 0.0566226 0.0270013
      vertex -0.0179919 0.0511358 0.022062
      vertex -0.0108113 0.0497397 0.0258126
    endloop
  endfacet
  facet normal 0.828379 0.547884 0.116666
    outer loop
      vertex 0.0213015 0.0802505 0.00463006
      vertex 0.0244894 0.0746793 0.00815829
      vertex 0.0256795 0.0748903 -0.00128297
    endloop
  endfacet
  facet normal -0.671603 -0.139466 0.727667
    outer loop
      vertex -0.0179919 0.0511358 0.022062
      vertex -0.0181704 0.0600292 0.0236019
      vertex -0.0231563 0.0574545 0.0185066
    endloop
  endfacet
  facet normal -0.475573 -0.351744 -0.806292
    outer loop
      vertex -0.0164587 0.0529435 -0.0238169
      vertex -0.0109146 0.0510678 -0.0262687
      vertex -0.0150066 0.0462933 -0.0217723
    endloop
  endfacet
  facet normal 0.404738 0.327442 -0.853797
    outer loop
      vertex 0.0138081 0.0648257 -0.0259438
      vertex 0.00682233 0.0706236 -0.0270318
      vertex 0.0155332 0.0723705 -0.0222325
    endloop
  endfacet
  facet normal 0.666612 0.368006 0.648228
    outer loop
      vertex 0.0229883 0.0701308 0.0158588
      vertex 0.0165093 0.074691 0.0199327
      vertex 0.0186784 0.0668126 0.0221747
    endloop
  endfacet
  facet normal -0.553603 -0.15285 0.818634
    outer loop
      vertex -0.0122029 0.0566226 0.0270013
      vertex -0.0181704 0.0600292 0.0236019
      vertex -0.0179919 0.0511358 0.022062
    endloop
  endfacet
  facet normal 0.113923 -0.9503 -0.289745
    outer loop
      vertex 0.0014217 0.0332796 -0.0130504
      vertex 0.0077726 0.0321185 -0.00674507
      vertex -0.000617983 0.0306166 -0.00511852
    endloop
  endfacet
  facet normal 0.604951 0.775506 0.180623
    outer loop
      vertex 0.0213015 0.0802505 0.00463006
      vertex 0.0168024 0.0847729 0.000281912
      vertex 0.0155108 0.08386 0.00852741
    endloop
  endfacet
  facet normal 0.643429 0.701569 0.306268
    outer loop
      vertex 0.0195908 0.0781944 0.012934
      vertex 0.0213015 0.0802505 0.00463006
      vertex 0.0155108 0.08386 0.00852741
    endloop
  endfacet
  facet normal -0.795513 -0.262638 -0.546059
    outer loop
      vertex -0.0248298 0.0564094 -0.0159897
      vertex -0.020752 0.0511238 -0.0193881
      vertex -0.0240932 0.0489293 -0.013465
    endloop
  endfacet
  facet normal -0.732464 -0.240218 0.637018
    outer loop
      vertex -0.0231563 0.0574545 0.0185066
      vertex -0.0234137 0.0504535 0.0155706
      vertex -0.0179919 0.0511358 0.022062
    endloop
  endfacet
  facet normal -0.66356 -0.193363 -0.722703
    outer loop
      vertex -0.0199747 0.0582831 -0.0220173
      vertex -0.0164587 0.0529435 -0.0238169
      vertex -0.020752 0.0511238 -0.0193881
    endloop
  endfacet
  facet normal 0.556479 0.260809 -0.788866
    outer loop
      vertex 0.0155332 0.0723705 -0.0222325
      vertex 0.0200729 0.0661328 -0.0210924
      vertex 0.0138081 0.0648257 -0.0259438
    endloop
  endfacet
  facet normal -0.595919 -0.634443 -0.492304
    outer loop
      vertex -0.0132618 0.0386785 -0.0162101
      vertex -0.0203557 0.0415474 -0.0113203
      vertex -0.0192186 0.0448141 -0.0169066
    endloop
  endfacet
  facet normal 0.316895 -0.945932 -0.0692059
    outer loop
      vertex 0.00568097 0.030822 0.00139808
      vertex 0.0077726 0.0321185 -0.00674507
      vertex 0.0138899 0.0336466 0.000379543
    endloop
  endfacet
  facet normal 0.426587 0.480698 0.766129
    outer loop
      vertex 0.0120201 0.0699048 0.0254354
      vertex 0.0165093 0.074691 0.0199327
      vertex 0.0088337 0.0775356 0.0224217
    endloop
  endfacet
  facet normal -0.567371 -0.0980406 -0.817605
    outer loop
      vertex -0.0199747 0.0582831 -0.0220173
      vertex -0.0135301 0.0587415 -0.0265444
      vertex -0.0164587 0.0529435 -0.0238169
    endloop
  endfacet
  facet normal 0.605771 0.503642 -0.615943
    outer loop
      vertex 0.0216632 0.0725323 -0.0160714
      vertex 0.0155332 0.0723705 -0.0222325
      vertex 0.0168809 0.0788408 -0.0156164
    endloop
  endfacet
  facet normal 0.504083 0.563897 -0.654157
    outer loop
      vertex 0.0168809 0.0788408 -0.0156164
      vertex 0.0155332 0.0723705 -0.0222325
      vertex 0.0104235 0.0781676 -0.0211728
    endloop
  endfacet
  facet normal 0.285576 0.452819 0.844631
    outer loop
      vertex 0.0040566 0.0718196 0.0271013
      vertex 0.0120201 0.0699048 0.0254354
      vertex 0.0088337 0.0775356 0.0224217
    endloop
  endfacet
  facet normal -0.944793 -0.25009 0.211708
    outer loop
      vertex -0.0291147 0.0559752 0.00463417
      vertex -0.0273806 0.0492943 0.00448068
      vertex -0.0268137 0.0515524 0.00967818
    endloop
  endfacet
  facet normal 0.637199 0.671446 -0.378336
    outer loop
      vertex 0.0168809 0.0788408 -0.0156164
      vertex 0.0169222 0.083058 -0.00806247
      vertex 0.0225071 0.0770201 -0.00937219
    endloop
  endfacet
  facet normal 0.260466 0.27911 0.924259
    outer loop
      vertex 0.00759661 0.0634678 0.0286258
      vertex 0.0120201 0.0699048 0.0254354
      vertex 0.0040566 0.0718196 0.0271013
    endloop
  endfacet
  facet normal 0.234116 -0.319005 0.918382
    outer loop
      vertex 0.0023375 0.0491397 0.0276775
      vertex 0.00972174 0.0471457 0.0251024
      vertex 0.00867493 0.0550154 0.0281029
    endloop
  endfacet
  facet normal -0.0903015 0.148516 0.984778
    outer loop
      vertex 0.00124642 0.0640937 0.0295206
      vertex -0.00239691 0.0683137 0.0285501
      vertex -0.00576083 0.0611717 0.0293187
    endloop
  endfacet
  facet normal -0.992101 -0.124968 -0.0108927
    outer loop
      vertex -0.0285139 0.0517637 -0.00177153
      vertex -0.0291147 0.0559752 0.00463417
      vertex -0.029643 0.060777 -0.00233472
    endloop
  endfacet
  facet normal 0.309098 -0.850731 0.425106
    outer loop
      vertex 0.00644812 0.0357597 0.0159549
      vertex 0.0101382 0.0332168 0.00818282
      vertex 0.0127313 0.0370949 0.0140583
    endloop
  endfacet
  facet normal 0.628742 0.763426 -0.147865
    outer loop
      vertex 0.0168024 0.0847729 0.000281912
      vertex 0.021277 0.0804772 -0.00286998
      vertex 0.0169222 0.083058 -0.00806247
    endloop
  endfacet
  facet normal 0.150819 0.547704 0.822966
    outer loop
      vertex 0.0040566 0.0718196 0.0271013
      vertex 0.0088337 0.0775356 0.0224217
      vertex 0.000635587 0.0790915 0.0228886
    endloop
  endfacet
  facet normal -0.928819 0.0694008 0.363976
    outer loop
      vertex -0.0271266 0.0574221 0.0120446
      vertex -0.0258624 0.0641482 0.013988
      vertex -0.0287963 0.0631865 0.00668456
    endloop
  endfacet
  facet normal 0.0649757 0.276597 0.958787
    outer loop
      vertex 0.0040566 0.0718196 0.0271013
      vertex -0.00239691 0.0683137 0.0285501
      vertex 0.00124642 0.0640937 0.0295206
    endloop
  endfacet
  facet normal 0.310641 0.823038 0.47551
    outer loop
      vertex 0.0126793 0.0816497 0.0159994
      vertex 0.00800707 0.0866698 0.0103626
      vertex 0.0047178 0.0838319 0.0174234
    endloop
  endfacet
  facet normal 0.732351 0.6103 0.301988
    outer loop
      vertex 0.0244894 0.0746793 0.00815829
      vertex 0.0213015 0.0802505 0.00463006
      vertex 0.0195908 0.0781944 0.012934
    endloop
  endfacet
  facet normal 0.453058 -0.509685 -0.731409
    outer loop
      vertex 0.0113627 0.0413664 -0.0202282
      vertex 0.0121765 0.0482869 -0.0245466
      vertex 0.0174445 0.046241 -0.0198578
    endloop
  endfacet
  facet normal 0.430264 0.857225 -0.282909
    outer loop
      vertex 0.0107156 0.0845405 -0.0130098
      vertex 0.0109259 0.0873589 -0.00415023
      vertex 0.0169222 0.083058 -0.00806247
    endloop
  endfacet
  facet normal -0.995901 0.0188204 0.08847
    outer loop
      vertex -0.0287963 0.0631865 0.00668456
      vertex -0.029643 0.060777 -0.00233472
      vertex -0.0291147 0.0559752 0.00463417
    endloop
  endfacet
  facet normal 0.500143 0.849603 -0.167423
    outer loop
      vertex 0.0169222 0.083058 -0.00806247
      vertex 0.0109259 0.0873589 -0.00415023
      vertex 0.0168024 0.0847729 0.000281912
    endloop
  endfacet
  facet normal 0.4105 0.911778 -0.012291
    outer loop
      vertex 0.0168024 0.0847729 0.000281912
      vertex 0.0109259 0.0873589 -0.00415023
      vertex 0.0111312 0.0873704 0.00356203
    endloop
  endfacet
  facet normal -0.982661 -0.131286 -0.130926
    outer loop
      vertex -0.029643 0.060777 -0.00233472
      vertex -0.0279165 0.0544017 -0.00890008
      vertex -0.0285139 0.0517637 -0.00177153
    endloop
  endfacet
  facet normal -0.454201 -0.886899 -0.0843246
    outer loop
      vertex -0.00868134 0.0316617 -0.0022175
      vertex -0.0149465 0.0344181 0.00253699
      vertex -0.0154155 0.0355552 -0.00689584
    endloop
  endfacet
  facet normal 0.267888 -0.392249 -0.879987
    outer loop
      vertex 0.00720178 0.0525501 -0.0279614
      vertex 0.0121765 0.0482869 -0.0245466
      vertex 0.0061758 0.0443512 -0.0246191
    endloop
  endfacet
  facet normal -0.356216 0.0286674 0.933964
    outer loop
      vertex -0.012908 0.0643357 0.0264957
      vertex -0.0122029 0.0566226 0.0270013
      vertex -0.00576083 0.0611717 0.0293187
    endloop
  endfacet
  facet normal 0.555644 0.619344 0.554682
    outer loop
      vertex 0.0165093 0.074691 0.0199327
      vertex 0.0195908 0.0781944 0.012934
      vertex 0.0126793 0.0816497 0.0159994
    endloop
  endfacet
  facet normal 0.750267 0.215314 0.625091
    outer loop
      vertex 0.0229883 0.0701308 0.0158588
      vertex 0.0186784 0.0668126 0.0221747
      vertex 0.0234362 0.0614015 0.0183281
    endloop
  endfacet
  facet normal 0.35523 0.461695 -0.812804
    outer loop
      vertex 0.0155332 0.0723705 -0.0222325
      vertex 0.00682233 0.0706236 -0.0270318
      vertex 0.0104235 0.0781676 -0.0211728
    endloop
  endfacet
  facet normal 0.310316 0.199474 -0.92947
    outer loop
      vertex 0.0138081 0.0648257 -0.0259438
      vertex 0.00701633 0.0612114 -0.028987
      vertex 0.00682233 0.0706236 -0.0270318
    endloop
  endfacet
  facet normal 0.884346 0.389056 0.258007
    outer loop
      vertex 0.0244894 0.0746793 0.00815829
      vertex 0.026777 0.0684911 0.00964844
      vertex 0.027621 0.0702948 0.00403572
    endloop
  endfacet
  facet normal -0.744606 -0.157381 -0.648685
    outer loop
      vertex -0.0248298 0.0564094 -0.0159897
      vertex -0.0199747 0.0582831 -0.0220173
      vertex -0.020752 0.0511238 -0.0193881
    endloop
  endfacet
  facet normal 0.415546 0.709679 -0.568927
    outer loop
      vertex 0.0168809 0.0788408 -0.0156164
      vertex 0.0104235 0.0781676 -0.0211728
      vertex 0.0107156 0.0845405 -0.0130098
    endloop
  endfacet
  facet normal 0.395077 0.877488 0.271898
    outer loop
      vertex 0.0155108 0.08386 0.00852741
      vertex 0.0111312 0.0873704 0.00356203
      vertex 0.00800707 0.0866698 0.0103626
    endloop
  endfacet
  facet normal -0.718552 0.0155067 0.6953
    outer loop
      vertex -0.0220123 0.0643065 0.0195361
      vertex -0.0231563 0.0574545 0.0185066
      vertex -0.0181704 0.0600292 0.0236019
    endloop
  endfacet
  facet normal -0.575686 0.0208284 -0.817406
    outer loop
      vertex -0.0135301 0.0587415 -0.0265444
      vertex -0.0199747 0.0582831 -0.0220173
      vertex -0.0166904 0.0653048 -0.0241514
    endloop
  endfacet
  facet normal -0.435606 0.11572 -0.892668
    outer loop
      vertex -0.0166904 0.0653048 -0.0241514
      vertex -0.00896337 0.0655379 -0.0278919
      vertex -0.0135301 0.0587415 -0.0265444
    endloop
  endfacet
  facet normal 0.240163 0.521329 -0.818864
    outer loop
      vertex 0.0104235 0.0781676 -0.0211728
      vertex 0.00682233 0.0706236 -0.0270318
      vertex 0.00235066 0.0777457 -0.023809
    endloop
  endfacet
  facet normal 0.169459 0.678334 0.714946
    outer loop
      vertex 0.000635587 0.0790915 0.0228886
      vertex 0.0088337 0.0775356 0.0224217
      vertex 0.0047178 0.0838319 0.0174234
    endloop
  endfacet
  facet normal 0.35039 0.732135 -0.584127
    outer loop
      vertex 0.0107156 0.0845405 -0.0130098
      vertex 0.0104235 0.0781676 -0.0211728
      vertex 0.00542165 0.0824442 -0.0188128
    endloop
  endfacet
  facet normal 0.206111 0.64643 -0.734606
    outer loop
      vertex 0.00542165 0.0824442 -0.0188128
      vertex 0.0104235 0.0781676 -0.0211728
      vertex 0.00235066 0.0777457 -0.023809
    endloop
  endfacet
  facet normal -0.489591 0.0124034 0.871864
    outer loop
      vertex -0.0181704 0.0600292 0.0236019
      vertex -0.0122029 0.0566226 0.0270013
      vertex -0.012908 0.0643357 0.0264957
    endloop
  endfacet
  facet normal -0.567775 0.149896 0.809421
    outer loop
      vertex -0.0181704 0.0600292 0.0236019
      vertex -0.012908 0.0643357 0.0264957
      vertex -0.0176474 0.068672 0.0223682
    endloop
  endfacet
  facet normal 0.236881 0.824475 -0.513934
    outer loop
      vertex 0.00542165 0.0824442 -0.0188128
      vertex 0.00342066 0.0860153 -0.0140063
      vertex 0.0107156 0.0845405 -0.0130098
    endloop
  endfacet
  facet normal -0.774667 -0.0253654 -0.631861
    outer loop
      vertex -0.0248298 0.0564094 -0.0159897
      vertex -0.0231336 0.0637534 -0.0183641
      vertex -0.0199747 0.0582831 -0.0220173
    endloop
  endfacet
  facet normal 0.231993 0.902682 -0.362414
    outer loop
      vertex 0.0107156 0.0845405 -0.0130098
      vertex 0.00342066 0.0860153 -0.0140063
      vertex 0.00401563 0.088583 -0.0072298
    endloop
  endfacet
  facet normal -0.677804 0.0954557 -0.72902
    outer loop
      vertex -0.0231336 0.0637534 -0.0183641
      vertex -0.0166904 0.0653048 -0.0241514
      vertex -0.0199747 0.0582831 -0.0220173
    endloop
  endfacet
  facet normal -0.680821 0.210815 -0.701455
    outer loop
      vertex -0.0197687 0.0705855 -0.0195766
      vertex -0.0166904 0.0653048 -0.0241514
      vertex -0.0231336 0.0637534 -0.0183641
    endloop
  endfacet
  facet normal 0.293022 0.909084 -0.296149
    outer loop
      vertex 0.00401563 0.088583 -0.0072298
      vertex 0.0109259 0.0873589 -0.00415023
      vertex 0.0107156 0.0845405 -0.0130098
    endloop
  endfacet
  facet normal 0.432923 -0.508103 0.744586
    outer loop
      vertex 0.00972174 0.0471457 0.0251024
      vertex 0.0111575 0.0410295 0.0200939
      vertex 0.0166993 0.0469298 0.0208981
    endloop
  endfacet
  facet normal 0.684043 0.485633 0.544284
    outer loop
      vertex 0.0229883 0.0701308 0.0158588
      vertex 0.0195908 0.0781944 0.012934
      vertex 0.0165093 0.074691 0.0199327
    endloop
  endfacet
  facet normal -0.917786 0.201505 0.342148
    outer loop
      vertex -0.0287963 0.0631865 0.00668456
      vertex -0.0258624 0.0641482 0.013988
      vertex -0.0261512 0.0703033 0.00958853
    endloop
  endfacet
  facet normal 0.764463 0.47871 0.431779
    outer loop
      vertex 0.0195908 0.0781944 0.012934
      vertex 0.0229883 0.0701308 0.0158588
      vertex 0.0244894 0.0746793 0.00815829
    endloop
  endfacet
  facet normal 0.251075 -0.577308 0.776966
    outer loop
      vertex 0.00279617 0.0410287 0.0227953
      vertex 0.0111575 0.0410295 0.0200939
      vertex 0.00972174 0.0471457 0.0251024
    endloop
  endfacet
  facet normal 0.263431 0.964641 -0.00845395
    outer loop
      vertex 0.0111312 0.0873704 0.00356203
      vertex 0.0109259 0.0873589 -0.00415023
      vertex 0.00348151 0.0894466 0.00209377
    endloop
  endfacet
  facet normal -0.941127 0.263255 0.212076
    outer loop
      vertex -0.0261512 0.0703033 0.00958853
      vertex -0.0282475 0.0691498 0.00171733
      vertex -0.0287963 0.0631865 0.00668456
    endloop
  endfacet
  facet normal -0.904617 0.231162 -0.358096
    outer loop
      vertex -0.0248123 0.0691479 -0.0135872
      vertex -0.0275616 0.0621344 -0.0111693
      vertex -0.0279704 0.0683085 -0.00615091
    endloop
  endfacet
  facet normal 0.143714 -0.224783 0.963752
    outer loop
      vertex 0.00156569 0.0571349 0.0296573
      vertex 0.0023375 0.0491397 0.0276775
      vertex 0.00867493 0.0550154 0.0281029
    endloop
  endfacet
  facet normal 0.460557 -0.820604 0.338374
    outer loop
      vertex 0.0101382 0.0332168 0.00818282
      vertex 0.0166406 0.0370137 0.00854037
      vertex 0.0127313 0.0370949 0.0140583
    endloop
  endfacet
  facet normal -0.045951 0.998537 0.0284939
    outer loop
      vertex 0.00348151 0.0894466 0.00209377
      vertex -0.00310187 0.0893137 -0.00386685
      vertex -0.00530139 0.088984 0.00414015
    endloop
  endfacet
  facet normal 0.844343 0.0957182 -0.527184
    outer loop
      vertex 0.0236814 0.0597163 -0.0181288
      vertex 0.0244819 0.0661576 -0.0156771
      vertex 0.0272018 0.061257 -0.0122107
    endloop
  endfacet
  facet normal -0.191488 0.981419 -0.01219
    outer loop
      vertex -0.00530139 0.088984 0.00414015
      vertex -0.00310187 0.0893137 -0.00386685
      vertex -0.00993092 0.0880076 -0.00174569
    endloop
  endfacet
  facet normal -0.988888 0.137689 0.0560551
    outer loop
      vertex -0.029643 0.060777 -0.00233472
      vertex -0.0287963 0.0631865 0.00668456
      vertex -0.0282475 0.0691498 0.00171733
    endloop
  endfacet
  facet normal 0.103411 -0.260484 -0.959924
    outer loop
      vertex 0.00720178 0.0525501 -0.0279614
      vertex 0.00179263 0.0486247 -0.0274789
      vertex 0.00076503 0.0558419 -0.029548
    endloop
  endfacet
  facet normal 0.606189 -0.795187 0.0145986
    outer loop
      vertex 0.0206378 0.0388413 0.00313994
      vertex 0.0138899 0.0336466 0.000379543
      vertex 0.019491 0.0378483 -0.00333056
    endloop
  endfacet
  facet normal -0.980268 0.189916 -0.0548296
    outer loop
      vertex -0.0282475 0.0691498 0.00171733
      vertex -0.0279704 0.0683085 -0.00615091
      vertex -0.029643 0.060777 -0.00233472
    endloop
  endfacet
  facet normal 0.0735687 0.449119 -0.890438
    outer loop
      vertex 0.00235066 0.0777457 -0.023809
      vertex 0.00682233 0.0706236 -0.0270318
      vertex -0.0030225 0.0719956 -0.0271532
    endloop
  endfacet
  facet normal 0.0549038 0.309995 -0.949152
    outer loop
      vertex -0.000606582 0.0642349 -0.0295481
      vertex -0.0030225 0.0719956 -0.0271532
      vertex 0.00682233 0.0706236 -0.0270318
    endloop
  endfacet
  facet normal -0.902013 0.391035 0.182933
    outer loop
      vertex -0.0261512 0.0703033 0.00958853
      vertex -0.0246591 0.0759762 0.00481924
      vertex -0.0282475 0.0691498 0.00171733
    endloop
  endfacet
  facet normal 0.203948 -0.391332 -0.897365
    outer loop
      vertex 0.0061758 0.0443512 -0.0246191
      vertex 0.00179263 0.0486247 -0.0274789
      vertex 0.00720178 0.0525501 -0.0279614
    endloop
  endfacet
  facet normal -0.143156 0.884543 0.443948
    outer loop
      vertex -0.00847111 0.0862966 0.0110113
      vertex -0.00342927 0.0839179 0.0173765
      vertex -0.000117081 0.0877857 0.0107381
    endloop
  endfacet
  facet normal 0.0977089 -0.762533 0.639528
    outer loop
      vertex 0.00644812 0.0357597 0.0159549
      vertex 0.00279617 0.0410287 0.0227953
      vertex -0.000795169 0.0351978 0.0163915
    endloop
  endfacet
  facet normal 0.00417546 0.753872 0.657008
    outer loop
      vertex 0.000635587 0.0790915 0.0228886
      vertex 0.0047178 0.0838319 0.0174234
      vertex -0.00342927 0.0839179 0.0173765
    endloop
  endfacet
  facet normal 0.0595688 0.708648 -0.703043
    outer loop
      vertex 0.00542165 0.0824442 -0.0188128
      vertex 0.00235066 0.0777457 -0.023809
      vertex -0.00113053 0.0832659 -0.0185398
    endloop
  endfacet
  facet normal -0.0368873 0.677734 -0.734381
    outer loop
      vertex 0.00235066 0.0777457 -0.023809
      vertex -0.00541455 0.0785296 -0.0226956
      vertex -0.00113053 0.0832659 -0.0185398
    endloop
  endfacet
  facet normal -0.921843 0.380597 -0.0731606
    outer loop
      vertex -0.0254072 0.075237 -0.00240455
      vertex -0.0279704 0.0683085 -0.00615091
      vertex -0.0282475 0.0691498 0.00171733
    endloop
  endfacet
  facet normal 0.0174344 0.507324 0.861579
    outer loop
      vertex 0.0040566 0.0718196 0.0271013
      vertex 0.000635587 0.0790915 0.0228886
      vertex -0.00412336 0.0739802 0.0259946
    endloop
  endfacet
  facet normal -0.88369 0.428623 -0.188084
    outer loop
      vertex -0.0279704 0.0683085 -0.00615091
      vertex -0.0254072 0.075237 -0.00240455
      vertex -0.0246509 0.0739691 -0.00884741
    endloop
  endfacet
  facet normal -0.117009 0.702823 0.701676
    outer loop
      vertex 0.000635587 0.0790915 0.0228886
      vertex -0.00342927 0.0839179 0.0173765
      vertex -0.00775798 0.0786698 0.0219113
    endloop
  endfacet
  facet normal -0.874259 0.3549 -0.331236
    outer loop
      vertex -0.0248123 0.0691479 -0.0135872
      vertex -0.0279704 0.0683085 -0.00615091
      vertex -0.0246509 0.0739691 -0.00884741
    endloop
  endfacet
  facet normal -0.637393 0.146551 0.756474
    outer loop
      vertex -0.0176474 0.068672 0.0223682
      vertex -0.0220123 0.0643065 0.0195361
      vertex -0.0181704 0.0600292 0.0236019
    endloop
  endfacet
  facet normal 0.215048 -0.714821 0.665421
    outer loop
      vertex 0.00279617 0.0410287 0.0227953
      vertex 0.00644812 0.0357597 0.0159549
      vertex 0.0111575 0.0410295 0.0200939
    endloop
  endfacet
  facet normal 0.994582 -0.0452184 -0.0936002
    outer loop
      vertex 0.0291966 0.0619971 -0.00579282
      vertex 0.0297356 0.0607888 0.000518415
      vertex 0.0292216 0.0548546 -0.00207651
    endloop
  endfacet
  facet normal 0.982895 -0.0822865 -0.164764
    outer loop
      vertex 0.0292216 0.0548546 -0.00207651
      vertex 0.0282494 0.0558621 -0.00837949
      vertex 0.0291966 0.0619971 -0.00579282
    endloop
  endfacet
  facet normal 0.0555164 0.932051 -0.358048
    outer loop
      vertex 0.00401563 0.088583 -0.0072298
      vertex 0.00342066 0.0860153 -0.0140063
      vertex -0.00267061 0.0873141 -0.0115697
    endloop
  endfacet
  facet normal 0.861 -0.0348887 0.507407
    outer loop
      vertex 0.0234362 0.0614015 0.0183281
      vertex 0.0257678 0.0547887 0.013917
      vertex 0.0270953 0.0621226 0.0121687
    endloop
  endfacet
  facet normal -0.019871 0.967456 -0.252256
    outer loop
      vertex 0.00401563 0.088583 -0.0072298
      vertex -0.00267061 0.0873141 -0.0115697
      vertex -0.00310187 0.0893137 -0.00386685
    endloop
  endfacet
  facet normal -0.703606 0.279751 0.653205
    outer loop
      vertex -0.0222366 0.0707142 0.0165502
      vertex -0.0220123 0.0643065 0.0195361
      vertex -0.0176474 0.068672 0.0223682
    endloop
  endfacet
  facet normal 0.960639 0.0100559 0.277618
    outer loop
      vertex 0.0288634 0.0560031 0.00627227
      vertex 0.0289719 0.0640768 0.00560409
      vertex 0.0270953 0.0621226 0.0121687
    endloop
  endfacet
  facet normal 0.060187 0.994244 -0.0886377
    outer loop
      vertex 0.00401563 0.088583 -0.0072298
      vertex -0.00310187 0.0893137 -0.00386685
      vertex 0.00348151 0.0894466 0.00209377
    endloop
  endfacet
  facet normal -0.425721 0.273956 -0.862386
    outer loop
      vertex -0.0166904 0.0653048 -0.0241514
      vertex -0.0119297 0.0727234 -0.0241449
      vertex -0.00896337 0.0655379 -0.0278919
    endloop
  endfacet
  facet normal 0.460463 -0.776464 -0.430207
    outer loop
      vertex 0.0167653 0.0403879 -0.0148285
      vertex 0.0150208 0.035802 -0.00841878
      vertex 0.00959047 0.0358449 -0.0143084
    endloop
  endfacet
  facet normal -0.471417 0.28059 0.836083
    outer loop
      vertex -0.0117329 0.0725328 0.0244073
      vertex -0.0176474 0.068672 0.0223682
      vertex -0.012908 0.0643357 0.0264957
    endloop
  endfacet
  facet normal -0.245542 0.828095 0.503953
    outer loop
      vertex -0.00847111 0.0862966 0.0110113
      vertex -0.0106189 0.0821848 0.0167213
      vertex -0.00342927 0.0839179 0.0173765
    endloop
  endfacet
  facet normal -0.633955 0.421889 0.648159
    outer loop
      vertex -0.0222366 0.0707142 0.0165502
      vertex -0.0176474 0.068672 0.0223682
      vertex -0.0161298 0.0765206 0.0187438
    endloop
  endfacet
  facet normal 0.565934 -0.811748 0.144168
    outer loop
      vertex 0.0138899 0.0336466 0.000379543
      vertex 0.0206378 0.0388413 0.00313994
      vertex 0.0166406 0.0370137 0.00854037
    endloop
  endfacet
  facet normal -0.534747 0.437296 0.723061
    outer loop
      vertex -0.0161298 0.0765206 0.0187438
      vertex -0.0176474 0.068672 0.0223682
      vertex -0.0117329 0.0725328 0.0244073
    endloop
  endfacet
  facet normal -0.541068 0.347892 -0.765648
    outer loop
      vertex -0.0119297 0.0727234 -0.0241449
      vertex -0.0166904 0.0653048 -0.0241514
      vertex -0.0197687 0.0705855 -0.0195766
    endloop
  endfacet
  facet normal -0.122343 0.596112 0.793525
    outer loop
      vertex -0.00775798 0.0786698 0.0219113
      vertex -0.00412336 0.0739802 0.0259946
      vertex 0.000635587 0.0790915 0.0228886
    endloop
  endfacet
  facet normal -0.404168 0.745235 -0.530352
    outer loop
      vertex -0.0114763 0.0794042 -0.0194632
      vertex -0.0153298 0.0820326 -0.0128332
      vertex -0.00785778 0.0838999 -0.0159036
    endloop
  endfacet
  facet normal -0.339694 0.93381 0.11228
    outer loop
      vertex -0.0141568 0.0857462 0.00427677
      vertex -0.00530139 0.088984 0.00414015
      vertex -0.00993092 0.0880076 -0.00174569
    endloop
  endfacet
  facet normal 0.866184 -0.0937487 -0.490853
    outer loop
      vertex 0.0255356 0.0537082 -0.0137091
      vertex 0.0236814 0.0597163 -0.0181288
      vertex 0.0272018 0.061257 -0.0122107
    endloop
  endfacet
  facet normal -0.158281 0.942148 0.295474
    outer loop
      vertex -0.00530139 0.088984 0.00414015
      vertex -0.00847111 0.0862966 0.0110113
      vertex -0.000117081 0.0877857 0.0107381
    endloop
  endfacet
  facet normal -0.398722 0.808737 0.432395
    outer loop
      vertex -0.0106189 0.0821848 0.0167213
      vertex -0.00847111 0.0862966 0.0110113
      vertex -0.0156553 0.0822098 0.0120303
    endloop
  endfacet
  facet normal -0.499072 0.678182 0.539441
    outer loop
      vertex -0.0156553 0.0822098 0.0120303
      vertex -0.0161298 0.0765206 0.0187438
      vertex -0.0106189 0.0821848 0.0167213
    endloop
  endfacet
  facet normal -0.00859862 0.98266 0.185218
    outer loop
      vertex -0.00530139 0.088984 0.00414015
      vertex -0.000117081 0.0877857 0.0107381
      vertex 0.00348151 0.0894466 0.00209377
    endloop
  endfacet
  facet normal -0.273229 0.353689 -0.894567
    outer loop
      vertex -0.0119297 0.0727234 -0.0241449
      vertex -0.0030225 0.0719956 -0.0271532
      vertex -0.00896337 0.0655379 -0.0278919
    endloop
  endfacet
  facet normal -0.80744 0.553653 -0.203738
    outer loop
      vertex -0.0254072 0.075237 -0.00240455
      vertex -0.0210265 0.0798029 -0.00735824
      vertex -0.0246509 0.0739691 -0.00884741
    endloop
  endfacet
  facet normal 0.847322 -0.347517 -0.401595
    outer loop
      vertex 0.0255356 0.0537082 -0.0137091
      vertex 0.0264929 0.0485349 -0.00721278
      vertex 0.0223819 0.0466853 -0.014286
    endloop
  endfacet
  facet normal -0.410716 0.63368 0.655563
    outer loop
      vertex -0.00775798 0.0786698 0.0219113
      vertex -0.0106189 0.0821848 0.0167213
      vertex -0.0161298 0.0765206 0.0187438
    endloop
  endfacet
  facet normal -0.756655 0.557348 -0.341813
    outer loop
      vertex -0.0246509 0.0739691 -0.00884741
      vertex -0.0210265 0.0798029 -0.00735824
      vertex -0.0209755 0.0758956 -0.0138422
    endloop
  endfacet
  facet normal -0.49696 0.668147 -0.553724
    outer loop
      vertex -0.0153298 0.0820326 -0.0128332
      vertex -0.0114763 0.0794042 -0.0194632
      vertex -0.016527 0.0764364 -0.0185112
    endloop
  endfacet
  facet normal -0.597007 0.630727 -0.495748
    outer loop
      vertex -0.016527 0.0764364 -0.0185112
      vertex -0.0209755 0.0758956 -0.0138422
      vertex -0.0153298 0.0820326 -0.0128332
    endloop
  endfacet
  facet normal -0.380067 0.821315 -0.42543
    outer loop
      vertex -0.0153298 0.0820326 -0.0128332
      vertex -0.00957689 0.086735 -0.00889436
      vertex -0.00785778 0.0838999 -0.0159036
    endloop
  endfacet
  facet normal -0.470647 0.882321 0.00105872
    outer loop
      vertex -0.0158694 0.0848434 -0.00466479
      vertex -0.0141568 0.0857462 0.00427677
      vertex -0.00993092 0.0880076 -0.00174569
    endloop
  endfacet
  facet normal -0.664461 0.47343 -0.578235
    outer loop
      vertex -0.0209755 0.0758956 -0.0138422
      vertex -0.016527 0.0764364 -0.0185112
      vertex -0.0197687 0.0705855 -0.0195766
    endloop
  endfacet
  facet normal -0.26057 0.412799 0.872754
    outer loop
      vertex -0.0078723 0.0682358 0.0275923
      vertex -0.00412336 0.0739802 0.0259946
      vertex -0.0117329 0.0725328 0.0244073
    endloop
  endfacet
  facet normal -0.640831 0.655286 -0.39992
    outer loop
      vertex -0.0210265 0.0798029 -0.00735824
      vertex -0.0153298 0.0820326 -0.0128332
      vertex -0.0209755 0.0758956 -0.0138422
    endloop
  endfacet
  facet normal 0.561304 -0.719899 0.408268
    outer loop
      vertex 0.0166406 0.0370137 0.00854037
      vertex 0.0175638 0.0416531 0.0154519
      vertex 0.0127313 0.0370949 0.0140583
    endloop
  endfacet
  facet normal 0.812902 -0.160869 -0.559743
    outer loop
      vertex 0.0255356 0.0537082 -0.0137091
      vertex 0.0216197 0.0526882 -0.0191031
      vertex 0.0236814 0.0597163 -0.0181288
    endloop
  endfacet
  facet normal 0.737874 -0.654485 -0.164899
    outer loop
      vertex 0.019491 0.0378483 -0.00333056
      vertex 0.0215174 0.0415392 -0.00891268
      vertex 0.0242728 0.0429484 -0.00217588
    endloop
  endfacet
  facet normal -0.599089 0.793832 0.104512
    outer loop
      vertex -0.019943 0.0810437 0.00682716
      vertex -0.0141568 0.0857462 0.00427677
      vertex -0.020841 0.0812631 1.35293e-05
    endloop
  endfacet
  facet normal -0.749987 0.650517 0.119783
    outer loop
      vertex -0.020841 0.0812631 1.35293e-05
      vertex -0.0246591 0.0759762 0.00481924
      vertex -0.019943 0.0810437 0.00682716
    endloop
  endfacet
  facet normal -0.640687 0.668188 0.378212
    outer loop
      vertex -0.0156553 0.0822098 0.0120303
      vertex -0.019943 0.0810437 0.00682716
      vertex -0.0214868 0.0765916 0.0120775
    endloop
  endfacet
  facet normal 0.160639 -0.502323 0.849628
    outer loop
      vertex 0.0023375 0.0491397 0.0276775
      vertex 0.00279617 0.0410287 0.0227953
      vertex 0.00972174 0.0471457 0.0251024
    endloop
  endfacet
  facet normal 0.734107 -0.0755184 0.674821
    outer loop
      vertex 0.0190146 0.0593197 0.0229052
      vertex 0.0211884 0.0535052 0.0198897
      vertex 0.0234362 0.0614015 0.0183281
    endloop
  endfacet
  facet normal -0.755561 0.592216 0.280014
    outer loop
      vertex -0.0246591 0.0759762 0.00481924
      vertex -0.0214868 0.0765916 0.0120775
      vertex -0.019943 0.0810437 0.00682716
    endloop
  endfacet
  facet normal -0.817523 0.481118 0.316515
    outer loop
      vertex -0.0214868 0.0765916 0.0120775
      vertex -0.0246591 0.0759762 0.00481924
      vertex -0.0261512 0.0703033 0.00958853
    endloop
  endfacet
  facet normal -0.568118 0.822544 0.0257625
    outer loop
      vertex -0.0158694 0.0848434 -0.00466479
      vertex -0.020841 0.0812631 1.35293e-05
      vertex -0.0141568 0.0857462 0.00427677
    endloop
  endfacet
  facet normal -0.60243 0.629425 0.490818
    outer loop
      vertex -0.0214868 0.0765916 0.0120775
      vertex -0.0161298 0.0765206 0.0187438
      vertex -0.0156553 0.0822098 0.0120303
    endloop
  endfacet
  facet normal -0.672089 0.500806 0.545426
    outer loop
      vertex -0.0214868 0.0765916 0.0120775
      vertex -0.0222366 0.0707142 0.0165502
      vertex -0.0161298 0.0765206 0.0187438
    endloop
  endfacet
  facet normal 0.0205719 -0.514741 0.857099
    outer loop
      vertex -0.00464198 0.0453302 0.0255572
      vertex 0.00279617 0.0410287 0.0227953
      vertex 0.0023375 0.0491397 0.0276775
    endloop
  endfacet
  facet normal -0.539217 0.430544 -0.723793
    outer loop
      vertex -0.016527 0.0764364 -0.0185112
      vertex -0.0119297 0.0727234 -0.0241449
      vertex -0.0197687 0.0705855 -0.0195766
    endloop
  endfacet
  facet normal -0.745263 0.4037 -0.530669
    outer loop
      vertex -0.0197687 0.0705855 -0.0195766
      vertex -0.0248123 0.0691479 -0.0135872
      vertex -0.0209755 0.0758956 -0.0138422
    endloop
  endfacet
  facet normal -0.406183 0.27985 0.869885
    outer loop
      vertex -0.0078723 0.0682358 0.0275923
      vertex -0.0117329 0.0725328 0.0244073
      vertex -0.012908 0.0643357 0.0264957
    endloop
  endfacet
  facet normal -0.0701065 -0.0114639 -0.997474
    outer loop
      vertex -0.000606582 0.0642349 -0.0295481
      vertex 0.00076503 0.0558419 -0.029548
      vertex -0.00649497 0.0575935 -0.0290579
    endloop
  endfacet
  facet normal -0.415046 0.560341 0.716767
    outer loop
      vertex -0.0117329 0.0725328 0.0244073
      vertex -0.00775798 0.0786698 0.0219113
      vertex -0.0161298 0.0765206 0.0187438
    endloop
  endfacet
  facet normal -0.558608 -0.738841 -0.376922
    outer loop
      vertex -0.0203557 0.0415474 -0.0113203
      vertex -0.0132618 0.0386785 -0.0162101
      vertex -0.0154155 0.0355552 -0.00689584
    endloop
  endfacet
  facet normal -0.438827 0.846551 0.301302
    outer loop
      vertex -0.0156553 0.0822098 0.0120303
      vertex -0.00847111 0.0862966 0.0110113
      vertex -0.0141568 0.0857462 0.00427677
    endloop
  endfacet
  facet normal -0.65731 0.74224 -0.130477
    outer loop
      vertex -0.0210265 0.0798029 -0.00735824
      vertex -0.020841 0.0812631 1.35293e-05
      vertex -0.0158694 0.0848434 -0.00466479
    endloop
  endfacet
  facet normal -0.771953 0.626987 -0.104763
    outer loop
      vertex -0.0210265 0.0798029 -0.00735824
      vertex -0.0254072 0.075237 -0.00240455
      vertex -0.020841 0.0812631 1.35293e-05
    endloop
  endfacet
  facet normal -0.267339 0.506544 0.819721
    outer loop
      vertex -0.00412336 0.0739802 0.0259946
      vertex -0.00775798 0.0786698 0.0219113
      vertex -0.0117329 0.0725328 0.0244073
    endloop
  endfacet
  facet normal -0.801016 0.598249 0.0217382
    outer loop
      vertex -0.0254072 0.075237 -0.00240455
      vertex -0.0246591 0.0759762 0.00481924
      vertex -0.020841 0.0812631 1.35293e-05
    endloop
  endfacet
  facet normal -0.766957 0.274817 -0.579873
    outer loop
      vertex -0.0248123 0.0691479 -0.0135872
      vertex -0.0197687 0.0705855 -0.0195766
      vertex -0.0231336 0.0637534 -0.0183641
    endloop
  endfacet
  facet normal -0.796584 0.437156 -0.417551
    outer loop
      vertex -0.0246509 0.0739691 -0.00884741
      vertex -0.0209755 0.0758956 -0.0138422
      vertex -0.0248123 0.0691479 -0.0135872
    endloop
  endfacet
  facet normal -0.310881 0.136933 0.940533
    outer loop
      vertex -0.00576083 0.0611717 0.0293187
      vertex -0.0078723 0.0682358 0.0275923
      vertex -0.012908 0.0643357 0.0264957
    endloop
  endfacet
  facet normal 0.900594 -0.404118 0.160061
    outer loop
      vertex 0.0261615 0.0489536 0.0089509
      vertex 0.0247756 0.0440332 0.0043256
      vertex 0.0275731 0.0490682 0.00129762
    endloop
  endfacet
  facet normal 0.00619549 0.862674 0.505723
    outer loop
      vertex -0.000117081 0.0877857 0.0107381
      vertex -0.00342927 0.0839179 0.0173765
      vertex 0.0047178 0.0838319 0.0174234
    endloop
  endfacet
  facet normal 0.969617 -0.233264 0.0736962
    outer loop
      vertex 0.0275731 0.0490682 0.00129762
      vertex 0.0292216 0.0548546 -0.00207651
      vertex 0.0288634 0.0560031 0.00627227
    endloop
  endfacet
  facet normal 0.353535 -0.524779 -0.774352
    outer loop
      vertex 0.0113627 0.0413664 -0.0202282
      vertex 0.0061758 0.0443512 -0.0246191
      vertex 0.0121765 0.0482869 -0.0245466
    endloop
  endfacet
  facet normal 0.877183 -0.480001 0.0122525
    outer loop
      vertex 0.0275731 0.0490682 0.00129762
      vertex 0.0247756 0.0440332 0.0043256
      vertex 0.0242728 0.0429484 -0.00217588
    endloop
  endfacet
  facet normal 0.896569 -0.43436 -0.0865797
    outer loop
      vertex 0.0242728 0.0429484 -0.00217588
      vertex 0.0264929 0.0485349 -0.00721278
      vertex 0.0275731 0.0490682 0.00129762
    endloop
  endfacet
  facet normal -0.185072 0.737393 -0.649615
    outer loop
      vertex -0.00785778 0.0838999 -0.0159036
      vertex -0.00113053 0.0832659 -0.0185398
      vertex -0.00541455 0.0785296 -0.0226956
    endloop
  endfacet
  facet normal -0.799492 0.425013 0.424471
    outer loop
      vertex -0.0222366 0.0707142 0.0165502
      vertex -0.0214868 0.0765916 0.0120775
      vertex -0.0261512 0.0703033 0.00958853
    endloop
  endfacet
  facet normal -0.842149 0.286866 0.456611
    outer loop
      vertex -0.0222366 0.0707142 0.0165502
      vertex -0.0261512 0.0703033 0.00958853
      vertex -0.0258624 0.0641482 0.013988
    endloop
  endfacet
  facet normal 0.819043 -0.527958 -0.224563
    outer loop
      vertex 0.0264929 0.0485349 -0.00721278
      vertex 0.0242728 0.0429484 -0.00217588
      vertex 0.0215174 0.0415392 -0.00891268
    endloop
  endfacet
  facet normal -0.198692 -0.957908 -0.207204
    outer loop
      vertex -0.00735769 0.03326 -0.010876
      vertex -0.000617983 0.0306166 -0.00511852
      vertex -0.00868134 0.0316617 -0.0022175
    endloop
  endfacet
  facet normal -0.802866 0.228481 0.550638
    outer loop
      vertex -0.0258624 0.0641482 0.013988
      vertex -0.0220123 0.0643065 0.0195361
      vertex -0.0222366 0.0707142 0.0165502
    endloop
  endfacet
  facet normal -0.821148 0.0517086 0.568368
    outer loop
      vertex -0.0258624 0.0641482 0.013988
      vertex -0.0231563 0.0574545 0.0185066
      vertex -0.0220123 0.0643065 0.0195361
    endloop
  endfacet
  facet normal -0.85421 0.0294646 -0.519093
    outer loop
      vertex -0.0248298 0.0564094 -0.0159897
      vertex -0.0275616 0.0621344 -0.0111693
      vertex -0.0231336 0.0637534 -0.0183641
    endloop
  endfacet
  facet normal -0.971221 0.108167 -0.212201
    outer loop
      vertex -0.029643 0.060777 -0.00233472
      vertex -0.0279704 0.0683085 -0.00615091
      vertex -0.0275616 0.0621344 -0.0111693
    endloop
  endfacet
  facet normal -0.448479 0.533148 -0.71737
    outer loop
      vertex -0.0119297 0.0727234 -0.0241449
      vertex -0.016527 0.0764364 -0.0185112
      vertex -0.0114763 0.0794042 -0.0194632
    endloop
  endfacet
  facet normal 0.795423 -0.314651 -0.517975
    outer loop
      vertex 0.0216197 0.0526882 -0.0191031
      vertex 0.0255356 0.0537082 -0.0137091
      vertex 0.0223819 0.0466853 -0.014286
    endloop
  endfacet
  facet normal -0.326705 0.557164 -0.763435
    outer loop
      vertex -0.0114763 0.0794042 -0.0194632
      vertex -0.00541455 0.0785296 -0.0226956
      vertex -0.0119297 0.0727234 -0.0241449
    endloop
  endfacet
  facet normal -0.536381 0.802207 0.262222
    outer loop
      vertex -0.0141568 0.0857462 0.00427677
      vertex -0.019943 0.0810437 0.00682716
      vertex -0.0156553 0.0822098 0.0120303
    endloop
  endfacet
  facet normal 0.236963 -0.650175 -0.721887
    outer loop
      vertex 0.00386825 0.0380795 -0.0197279
      vertex 0.0061758 0.0443512 -0.0246191
      vertex 0.0113627 0.0413664 -0.0202282
    endloop
  endfacet
  facet normal 0.416154 -0.894097 -0.16555
    outer loop
      vertex 0.0138899 0.0336466 0.000379543
      vertex 0.0077726 0.0321185 -0.00674507
      vertex 0.0150208 0.035802 -0.00841878
    endloop
  endfacet
  facet normal -0.963704 -0.0327806 0.264952
    outer loop
      vertex -0.0287963 0.0631865 0.00668456
      vertex -0.0291147 0.0559752 0.00463417
      vertex -0.0271266 0.0574221 0.0120446
    endloop
  endfacet
  facet normal -0.180481 0.0877113 -0.97966
    outer loop
      vertex -0.00896337 0.0655379 -0.0278919
      vertex -0.000606582 0.0642349 -0.0295481
      vertex -0.00649497 0.0575935 -0.0290579
    endloop
  endfacet
  facet normal 0.221306 -0.89483 -0.387689
    outer loop
      vertex 0.0077726 0.0321185 -0.00674507
      vertex 0.0014217 0.0332796 -0.0130504
      vertex 0.00959047 0.0358449 -0.0143084
    endloop
  endfacet
  facet normal 0.990393 0.124194 -0.0608102
    outer loop
      vertex 0.0297356 0.0607888 0.000518415
      vertex 0.0291966 0.0619971 -0.00579282
      vertex 0.0287792 0.067418 -0.00151958
    endloop
  endfacet
  facet normal -0.85202 0.00889475 0.523434
    outer loop
      vertex -0.0258624 0.0641482 0.013988
      vertex -0.0271266 0.0574221 0.0120446
      vertex -0.0231563 0.0574545 0.0185066
    endloop
  endfacet
  facet normal 0.800058 -0.111159 0.589534
    outer loop
      vertex 0.0257678 0.0547887 0.013917
      vertex 0.0234362 0.0614015 0.0183281
      vertex 0.0211884 0.0535052 0.0198897
    endloop
  endfacet
  facet normal 0.789726 -0.281685 0.544965
    outer loop
      vertex 0.0257678 0.0547887 0.013917
      vertex 0.0211884 0.0535052 0.0198897
      vertex 0.0222618 0.0476975 0.0153323
    endloop
  endfacet
  facet normal -0.150923 0.248297 -0.956855
    outer loop
      vertex -0.0030225 0.0719956 -0.0271532
      vertex -0.000606582 0.0642349 -0.0295481
      vertex -0.00896337 0.0655379 -0.0278919
    endloop
  endfacet
  facet normal 0.705174 -0.387132 -0.594019
    outer loop
      vertex 0.0223819 0.0466853 -0.014286
      vertex 0.0174445 0.046241 -0.0198578
      vertex 0.0216197 0.0526882 -0.0191031
    endloop
  endfacet
  facet normal -0.905284 -0.0808314 -0.417045
    outer loop
      vertex -0.0248298 0.0564094 -0.0159897
      vertex -0.0279165 0.0544017 -0.00890008
      vertex -0.0275616 0.0621344 -0.0111693
    endloop
  endfacet
  facet normal -0.865152 -0.234767 -0.443166
    outer loop
      vertex -0.0279165 0.0544017 -0.00890008
      vertex -0.0248298 0.0564094 -0.0159897
      vertex -0.0240932 0.0489293 -0.013465
    endloop
  endfacet
  facet normal 0.932341 0.172373 0.317849
    outer loop
      vertex 0.0270953 0.0621226 0.0121687
      vertex 0.0289719 0.0640768 0.00560409
      vertex 0.026777 0.0684911 0.00964844
    endloop
  endfacet
  facet normal 0.527008 -0.382413 -0.758962
    outer loop
      vertex 0.0174445 0.046241 -0.0198578
      vertex 0.0121765 0.0482869 -0.0245466
      vertex 0.0169942 0.0524058 -0.0232767
    endloop
  endfacet
  facet normal -0.58277 0.755799 -0.298574
    outer loop
      vertex -0.0158694 0.0848434 -0.00466479
      vertex -0.0153298 0.0820326 -0.0128332
      vertex -0.0210265 0.0798029 -0.00735824
    endloop
  endfacet
  facet normal -0.165552 0.363076 0.916934
    outer loop
      vertex -0.00412336 0.0739802 0.0259946
      vertex -0.0078723 0.0682358 0.0275923
      vertex -0.00239691 0.0683137 0.0285501
    endloop
  endfacet
  facet normal -0.17188 0.185089 0.967574
    outer loop
      vertex -0.00576083 0.0611717 0.0293187
      vertex -0.00239691 0.0683137 0.0285501
      vertex -0.0078723 0.0682358 0.0275923
    endloop
  endfacet
  facet normal -0.943973 -0.165439 0.28556
    outer loop
      vertex -0.0291147 0.0559752 0.00463417
      vertex -0.0268137 0.0515524 0.00967818
      vertex -0.0271266 0.0574221 0.0120446
    endloop
  endfacet
  facet normal 0.834407 -0.323481 0.446235
    outer loop
      vertex 0.0222618 0.0476975 0.0153323
      vertex 0.0261615 0.0489536 0.0089509
      vertex 0.0257678 0.0547887 0.013917
    endloop
  endfacet
  facet normal -0.964759 -0.252138 0.0752812
    outer loop
      vertex -0.0285139 0.0517637 -0.00177153
      vertex -0.0273806 0.0492943 0.00448068
      vertex -0.0291147 0.0559752 0.00463417
    endloop
  endfacet
  facet normal 0.825329 0.400869 0.397664
    outer loop
      vertex 0.0229883 0.0701308 0.0158588
      vertex 0.026777 0.0684911 0.00964844
      vertex 0.0244894 0.0746793 0.00815829
    endloop
  endfacet
  facet normal -0.882009 -0.389399 0.265383
    outer loop
      vertex -0.0273806 0.0492943 0.00448068
      vertex -0.0241564 0.0454084 0.00949458
      vertex -0.0268137 0.0515524 0.00967818
    endloop
  endfacet
  facet normal 0.79312 -0.465222 0.393103
    outer loop
      vertex 0.0218981 0.0424502 0.00985609
      vertex 0.0261615 0.0489536 0.0089509
      vertex 0.0222618 0.0476975 0.0153323
    endloop
  endfacet
  facet normal -0.861017 -0.228971 0.454116
    outer loop
      vertex -0.0234137 0.0504535 0.0155706
      vertex -0.0271266 0.0574221 0.0120446
      vertex -0.0268137 0.0515524 0.00967818
    endloop
  endfacet
  facet normal 0.827542 0.338197 -0.448103
    outer loop
      vertex 0.0266932 0.0695793 -0.00901101
      vertex 0.0244819 0.0661576 -0.0156771
      vertex 0.0216632 0.0725323 -0.0160714
    endloop
  endfacet
  facet normal -0.880623 -0.339803 -0.330208
    outer loop
      vertex -0.0240932 0.0489293 -0.013465
      vertex -0.0257057 0.0465685 -0.00673538
      vertex -0.0279165 0.0544017 -0.00890008
    endloop
  endfacet
  facet normal -0.392181 0.902103 -0.180011
    outer loop
      vertex -0.00993092 0.0880076 -0.00174569
      vertex -0.00957689 0.086735 -0.00889436
      vertex -0.0158694 0.0848434 -0.00466479
    endloop
  endfacet
  facet normal -0.832271 -0.372233 0.410813
    outer loop
      vertex -0.0234137 0.0504535 0.0155706
      vertex -0.0268137 0.0515524 0.00967818
      vertex -0.0241564 0.0454084 0.00949458
    endloop
  endfacet
  facet normal -0.748143 -0.462671 0.475623
    outer loop
      vertex -0.0241564 0.0454084 0.00949458
      vertex -0.0188868 0.0432237 0.0156583
      vertex -0.0234137 0.0504535 0.0155706
    endloop
  endfacet
  facet normal 0.691169 0.557151 -0.460292
    outer loop
      vertex 0.0225071 0.0770201 -0.00937219
      vertex 0.0216632 0.0725323 -0.0160714
      vertex 0.0168809 0.0788408 -0.0156164
    endloop
  endfacet
  facet normal -0.739974 -0.504056 -0.445382
    outer loop
      vertex -0.0240932 0.0489293 -0.013465
      vertex -0.0192186 0.0448141 -0.0169066
      vertex -0.0203557 0.0415474 -0.0113203
    endloop
  endfacet
  facet normal 0.227262 -0.888515 0.398614
    outer loop
      vertex 0.0101382 0.0332168 0.00818282
      vertex 0.00644812 0.0357597 0.0159549
      vertex 0.00306873 0.0319549 0.00940056
    endloop
  endfacet
  facet normal 0.912493 0.383071 -0.143573
    outer loop
      vertex 0.0287792 0.067418 -0.00151958
      vertex 0.0266932 0.0695793 -0.00901101
      vertex 0.0256795 0.0748903 -0.00128297
    endloop
  endfacet
  facet normal -0.834161 -0.541051 -0.106953
    outer loop
      vertex -0.0220686 0.0406293 -0.0050566
      vertex -0.0248942 0.0437724 0.0010807
      vertex -0.0257057 0.0465685 -0.00673538
    endloop
  endfacet
  facet normal -0.245533 0.715494 -0.65405
    outer loop
      vertex -0.00785778 0.0838999 -0.0159036
      vertex -0.00541455 0.0785296 -0.0226956
      vertex -0.0114763 0.0794042 -0.0194632
    endloop
  endfacet
  facet normal 0.688387 -0.575984 -0.44087
    outer loop
      vertex 0.0215174 0.0415392 -0.00891268
      vertex 0.0167653 0.0403879 -0.0148285
      vertex 0.0223819 0.0466853 -0.014286
    endloop
  endfacet
  facet normal -0.235707 0.739381 0.63068
    outer loop
      vertex -0.0106189 0.0821848 0.0167213
      vertex -0.00775798 0.0786698 0.0219113
      vertex -0.00342927 0.0839179 0.0173765
    endloop
  endfacet
  facet normal -0.62287 -0.672166 0.400282
    outer loop
      vertex -0.0146478 0.0363529 0.0107168
      vertex -0.0188868 0.0432237 0.0156583
      vertex -0.0203647 0.0395074 0.00711814
    endloop
  endfacet
  facet normal -0.244281 0.483876 -0.840352
    outer loop
      vertex -0.00541455 0.0785296 -0.0226956
      vertex -0.0030225 0.0719956 -0.0271532
      vertex -0.0119297 0.0727234 -0.0241449
    endloop
  endfacet
  facet normal -0.333213 0.920043 0.206131
    outer loop
      vertex -0.0141568 0.0857462 0.00427677
      vertex -0.00847111 0.0862966 0.0110113
      vertex -0.00530139 0.088984 0.00414015
    endloop
  endfacet
  facet normal 0.487599 -0.852703 0.187469
    outer loop
      vertex 0.0166406 0.0370137 0.00854037
      vertex 0.0101382 0.0332168 0.00818282
      vertex 0.0138899 0.0336466 0.000379543
    endloop
  endfacet
  facet normal -0.521872 -0.577896 -0.627445
    outer loop
      vertex -0.0132618 0.0386785 -0.0162101
      vertex -0.0192186 0.0448141 -0.0169066
      vertex -0.0150066 0.0462933 -0.0217723
    endloop
  endfacet
  facet normal -0.279899 -0.810892 -0.513917
    outer loop
      vertex -0.00452314 0.0370721 -0.0184348
      vertex -0.00735769 0.03326 -0.010876
      vertex -0.0132618 0.0386785 -0.0162101
    endloop
  endfacet
  facet normal -0.0646285 0.546132 -0.835202
    outer loop
      vertex -0.0030225 0.0719956 -0.0271532
      vertex -0.00541455 0.0785296 -0.0226956
      vertex 0.00235066 0.0777457 -0.023809
    endloop
  endfacet
  facet normal -0.559305 -0.682965 0.469827
    outer loop
      vertex -0.0146478 0.0363529 0.0107168
      vertex -0.012481 0.0390184 0.0171711
      vertex -0.0188868 0.0432237 0.0156583
    endloop
  endfacet
  facet normal 0.702384 -0.536671 0.467592
    outer loop
      vertex 0.0222618 0.0476975 0.0153323
      vertex 0.0175638 0.0416531 0.0154519
      vertex 0.0218981 0.0424502 0.00985609
    endloop
  endfacet
  facet normal -0.340026 -0.873836 0.347553
    outer loop
      vertex -0.0146478 0.0363529 0.0107168
      vertex -0.00911967 0.0324663 0.00635344
      vertex -0.00799151 0.0350823 0.0140345
    endloop
  endfacet
  facet normal 0.513717 0.747926 -0.420358
    outer loop
      vertex 0.0169222 0.083058 -0.00806247
      vertex 0.0168809 0.0788408 -0.0156164
      vertex 0.0107156 0.0845405 -0.0130098
    endloop
  endfacet
  facet normal -0.382044 -0.801858 0.459419
    outer loop
      vertex -0.00799151 0.0350823 0.0140345
      vertex -0.012481 0.0390184 0.0171711
      vertex -0.0146478 0.0363529 0.0107168
    endloop
  endfacet
  facet normal 0.605771 -0.715844 -0.347288
    outer loop
      vertex 0.0215174 0.0415392 -0.00891268
      vertex 0.0150208 0.035802 -0.00841878
      vertex 0.0167653 0.0403879 -0.0148285
    endloop
  endfacet
  facet normal 0.699451 0.714419 0.0193077
    outer loop
      vertex 0.0168024 0.0847729 0.000281912
      vertex 0.0213015 0.0802505 0.00463006
      vertex 0.021277 0.0804772 -0.00286998
    endloop
  endfacet
  facet normal -0.117428 -0.868299 -0.481942
    outer loop
      vertex -0.00452314 0.0370721 -0.0184348
      vertex 0.0014217 0.0332796 -0.0130504
      vertex -0.00735769 0.03326 -0.010876
    endloop
  endfacet
  facet normal 0.652627 -0.53593 -0.53559
    outer loop
      vertex 0.0174445 0.046241 -0.0198578
      vertex 0.0223819 0.0466853 -0.014286
      vertex 0.0167653 0.0403879 -0.0148285
    endloop
  endfacet
  facet normal -0.461474 0.829055 -0.31577
    outer loop
      vertex -0.0153298 0.0820326 -0.0128332
      vertex -0.0158694 0.0848434 -0.00466479
      vertex -0.00957689 0.086735 -0.00889436
    endloop
  endfacet
  facet normal -0.856012 0.166882 -0.489279
    outer loop
      vertex -0.0231336 0.0637534 -0.0183641
      vertex -0.0275616 0.0621344 -0.0111693
      vertex -0.0248123 0.0691479 -0.0135872
    endloop
  endfacet
  facet normal -0.179032 0.949796 -0.256583
    outer loop
      vertex -0.00310187 0.0893137 -0.00386685
      vertex -0.00267061 0.0873141 -0.0115697
      vertex -0.00957689 0.086735 -0.00889436
    endloop
  endfacet
  facet normal 0.220755 0.954653 0.199765
    outer loop
      vertex 0.00348151 0.0894466 0.00209377
      vertex 0.00800707 0.0866698 0.0103626
      vertex 0.0111312 0.0873704 0.00356203
    endloop
  endfacet
  facet normal 0.00800324 -0.813347 -0.581724
    outer loop
      vertex 0.0014217 0.0332796 -0.0130504
      vertex -0.00452314 0.0370721 -0.0184348
      vertex 0.00386825 0.0380795 -0.0197279
    endloop
  endfacet
  facet normal 0.143029 0.959212 0.243835
    outer loop
      vertex 0.00800707 0.0866698 0.0103626
      vertex 0.00348151 0.0894466 0.00209377
      vertex -0.000117081 0.0877857 0.0107381
    endloop
  endfacet
  facet normal -0.0058565 -0.240901 0.970532
    outer loop
      vertex 0.00156569 0.0571349 0.0296573
      vertex -0.00490934 0.0530162 0.0285959
      vertex 0.0023375 0.0491397 0.0276775
    endloop
  endfacet
  facet normal -0.238861 0.953914 -0.181641
    outer loop
      vertex -0.00957689 0.086735 -0.00889436
      vertex -0.00993092 0.0880076 -0.00174569
      vertex -0.00310187 0.0893137 -0.00386685
    endloop
  endfacet
  facet normal -0.0362792 0.017968 0.99918
    outer loop
      vertex -0.00576083 0.0611717 0.0293187
      vertex 0.00156569 0.0571349 0.0296573
      vertex 0.00124642 0.0640937 0.0295206
    endloop
  endfacet
  facet normal 0.648578 -0.492621 0.580234
    outer loop
      vertex 0.0175638 0.0416531 0.0154519
      vertex 0.0222618 0.0476975 0.0153323
      vertex 0.0166993 0.0469298 0.0208981
    endloop
  endfacet
  facet normal -0.142554 -0.98898 -0.0399758
    outer loop
      vertex -0.000617983 0.0306166 -0.00511852
      vertex -0.00221019 0.0305166 0.00303554
      vertex -0.00868134 0.0316617 -0.0022175
    endloop
  endfacet
  facet normal 0.439986 0.613058 0.65618
    outer loop
      vertex 0.0126793 0.0816497 0.0159994
      vertex 0.0088337 0.0775356 0.0224217
      vertex 0.0165093 0.074691 0.0199327
    endloop
  endfacet
  facet normal 0.0376563 -0.999279 -0.00491339
    outer loop
      vertex -0.000617983 0.0306166 -0.00511852
      vertex 0.00568097 0.030822 0.00139808
      vertex -0.00221019 0.0305166 0.00303554
    endloop
  endfacet
  facet normal 0.284927 -0.742024 -0.606809
    outer loop
      vertex 0.00959047 0.0358449 -0.0143084
      vertex 0.00386825 0.0380795 -0.0197279
      vertex 0.0113627 0.0413664 -0.0202282
    endloop
  endfacet
  facet normal -0.0143999 -0.972671 0.23174
    outer loop
      vertex -0.00221019 0.0305166 0.00303554
      vertex 0.00306873 0.0319549 0.00940056
      vertex -0.00348571 0.0322216 0.0101126
    endloop
  endfacet
  facet normal 0.405438 0.823323 0.397189
    outer loop
      vertex 0.00800707 0.0866698 0.0103626
      vertex 0.0126793 0.0816497 0.0159994
      vertex 0.0155108 0.08386 0.00852741
    endloop
  endfacet
  facet normal -0.269708 -0.898745 0.345709
    outer loop
      vertex -0.00799151 0.0350823 0.0140345
      vertex -0.00911967 0.0324663 0.00635344
      vertex -0.00348571 0.0322216 0.0101126
    endloop
  endfacet
  facet normal 0.307667 0.706804 0.637001
    outer loop
      vertex 0.0088337 0.0775356 0.0224217
      vertex 0.0126793 0.0816497 0.0159994
      vertex 0.0047178 0.0838319 0.0174234
    endloop
  endfacet
  facet normal -0.140863 -0.869896 0.472693
    outer loop
      vertex -0.00348571 0.0322216 0.0101126
      vertex -0.000795169 0.0351978 0.0163915
      vertex -0.00799151 0.0350823 0.0140345
    endloop
  endfacet
  facet normal -0.69894 -0.603596 0.383607
    outer loop
      vertex -0.0241564 0.0454084 0.00949458
      vertex -0.0203647 0.0395074 0.00711814
      vertex -0.0188868 0.0432237 0.0156583
    endloop
  endfacet
  facet normal 0.362342 -0.86766 -0.340403
    outer loop
      vertex 0.0077726 0.0321185 -0.00674507
      vertex 0.00959047 0.0358449 -0.0143084
      vertex 0.0150208 0.035802 -0.00841878
    endloop
  endfacet
  facet normal 0.205807 -0.957366 0.202715
    outer loop
      vertex 0.0101382 0.0332168 0.00818282
      vertex 0.00306873 0.0319549 0.00940056
      vertex 0.00568097 0.030822 0.00139808
    endloop
  endfacet
  facet normal 0.00934689 -0.905132 0.425029
    outer loop
      vertex -0.000795169 0.0351978 0.0163915
      vertex -0.00348571 0.0322216 0.0101126
      vertex 0.00306873 0.0319549 0.00940056
    endloop
  endfacet
  facet normal 0.516966 -0.572315 0.636555
    outer loop
      vertex 0.0175638 0.0416531 0.0154519
      vertex 0.0166993 0.0469298 0.0208981
      vertex 0.0111575 0.0410295 0.0200939
    endloop
  endfacet
  facet normal 0.474581 -0.675626 0.564183
    outer loop
      vertex 0.0111575 0.0410295 0.0200939
      vertex 0.0127313 0.0370949 0.0140583
      vertex 0.0175638 0.0416531 0.0154519
    endloop
  endfacet
  facet normal 0.0962513 -0.881572 0.462132
    outer loop
      vertex 0.00306873 0.0319549 0.00940056
      vertex 0.00644812 0.0357597 0.0159549
      vertex -0.000795169 0.0351978 0.0163915
    endloop
  endfacet
  facet normal -0.0735337 -0.62575 0.77655
    outer loop
      vertex -0.00464198 0.0453302 0.0255572
      vertex -0.00582728 0.0393208 0.0206024
      vertex 0.00279617 0.0410287 0.0227953
    endloop
  endfacet
  facet normal 0.664014 -0.703469 0.253408
    outer loop
      vertex 0.0166406 0.0370137 0.00854037
      vertex 0.0206378 0.0388413 0.00313994
      vertex 0.0218981 0.0424502 0.00985609
    endloop
  endfacet
  facet normal 0.178598 -0.828778 -0.530312
    outer loop
      vertex 0.00386825 0.0380795 -0.0197279
      vertex 0.00959047 0.0358449 -0.0143084
      vertex 0.0014217 0.0332796 -0.0130504
    endloop
  endfacet
endsolid
